999
dxflib 2.0.4.8
  0
SECTION
  2
HEADER
  9
$ACADVER
  1
AC1015
  9
$HANDSEED
  5
FFFF
  9
$CLAYER
  8
Desks
  9
$DIMASZ
 40
2.5
  9
$DIMGAP
 40
0.625
  9
$DIMEXO
 40
0.625
  9
$INSUNITS
 70
4
  9
$DIMTXT
 40
2.5
  9
$DIMSTYLE
  2
Standard
  9
$PLIMMAX
 10
210.0
 20
297.0
  9
$PLIMMIN
 10
0.0
 20
0.0
  9
$DIMEXE
 40
1.25
  0
ENDSEC
  0
SECTION
  2
TABLES
  0
TABLE
  2
VPORT
  5
8
100
AcDbSymbolTable
 70
1
  0
VPORT
  5
30
100
AcDbSymbolTableRecord
100
AcDbViewportTableRecord
  2
*Active
 70
0
 10
0.0
 20
0.0
 11
1.0
 21
1.0
 12
286.3055555555554861
 22
148.5
 13
0.0
 23
0.0
 14
10.0
 24
10.0
 15
10.0
 25
10.0
 16
0.0
 26
0.0
 36
1.0
 17
0.0
 27
0.0
 37
0.0
 40
297.0
 41
1.92798353909465
 42
50.0
 43
0.0
 44
0.0
 50
0.0
 51
0.0
 71
0
 72
100
 73
1
 74
3
 75
1
 76
1
 77
0
 78
0
281
0
 65
1
110
0.0
120
0.0
130
0.0
111
1.0
121
0.0
131
0.0
112
0.0
122
1.0
132
0.0
 79
0
146
0.0
  0
ENDTAB
  0
TABLE
  2
LTYPE
  5
5
100
AcDbSymbolTable
 70
21
  0
LTYPE
  5
14
100
AcDbSymbolTableRecord
100
AcDbLinetypeTableRecord
  2
ByBlock
 70
0
  3

 72
65
 73
0
 40
0.0
  0
LTYPE
  5
15
100
AcDbSymbolTableRecord
100
AcDbLinetypeTableRecord
  2
ByLayer
 70
0
  3

 72
65
 73
0
 40
0.0
  0
LTYPE
  5
16
100
AcDbSymbolTableRecord
100
AcDbLinetypeTableRecord
  2
CONTINUOUS
 70
0
  3
Solid line
 72
65
 73
0
 40
0.0
  0
LTYPE
  5
31
100
AcDbSymbolTableRecord
100
AcDbLinetypeTableRecord
  2
DOT
 70
0
  3
Dot . . . . . . . . . . . . . . . . . . . . . .
 72
65
 73
2
 40
6.3499999999999996
 49
0.0
 74
0
 49
-6.3499999999999996
 74
0
  0
LTYPE
  5
32
100
AcDbSymbolTableRecord
100
AcDbLinetypeTableRecord
  2
DOT2
 70
0
  3
Dot (.5x) .....................................
 72
65
 73
2
 40
3.1749999999999998
 49
0.0
 74
0
 49
-3.1749999999999998
 74
0
  0
LTYPE
  5
33
100
AcDbSymbolTableRecord
100
AcDbLinetypeTableRecord
  2
DOTX2
 70
0
  3
Dot (2x) .  .  .  .  .  .  .  .  .  .  .  .  .
 72
65
 73
2
 40
12.6999999999999993
 49
0.0
 74
0
 49
-12.6999999999999993
 74
0
  0
LTYPE
  5
34
100
AcDbSymbolTableRecord
100
AcDbLinetypeTableRecord
  2
DASHED
 70
0
  3
Dashed __ __ __ __ __ __ __ __ __ __ __ __ __ _
 72
65
 73
2
 40
19.0500000000000007
 49
12.6999999999999993
 74
0
 49
-6.3499999999999996
 74
0
  0
LTYPE
  5
35
100
AcDbSymbolTableRecord
100
AcDbLinetypeTableRecord
  2
DASHED2
 70
0
  3
Dashed (.5x) _ _ _ _ _ _ _ _ _ _ _ _ _ _ _ _ _
 72
65
 73
2
 40
9.5250000000000004
 49
6.3499999999999996
 74
0
 49
-3.1749999999999998
 74
0
  0
LTYPE
  5
36
100
AcDbSymbolTableRecord
100
AcDbLinetypeTableRecord
  2
DASHEDX2
 70
0
  3
Dashed (2x) ____  ____  ____  ____  ____  ___
 72
65
 73
2
 40
38.1000000000000014
 49
25.3999999999999986
 74
0
 49
-12.6999999999999993
 74
0
  0
LTYPE
  5
37
100
AcDbSymbolTableRecord
100
AcDbLinetypeTableRecord
  2
DASHDOT
 70
0
  3
Dash dot __ . __ . __ . __ . __ . __ . __ . __
 72
65
 73
4
 40
25.3999999999999986
 49
12.6999999999999993
 74
0
 49
-6.3499999999999996
 74
0
 49
0.0
 74
0
 49
-6.3499999999999996
 74
0
  0
LTYPE
  5
38
100
AcDbSymbolTableRecord
100
AcDbLinetypeTableRecord
  2
DASHDOT2
 70
0
  3
Dash dot (.5x) _._._._._._._._._._._._._._._.
 72
65
 73
4
 40
12.6999999999999993
 49
6.3499999999999996
 74
0
 49
-3.1749999999999998
 74
0
 49
0.0
 74
0
 49
-3.1749999999999998
 74
0
  0
LTYPE
  5
39
100
AcDbSymbolTableRecord
100
AcDbLinetypeTableRecord
  2
DASHDOTX2
 70
0
  3
Dash dot (2x) ____  .  ____  .  ____  .  ___
 72
65
 73
4
 40
50.7999999999999972
 49
25.3999999999999986
 74
0
 49
-12.6999999999999993
 74
0
 49
0.0
 74
0
 49
-12.6999999999999993
 74
0
  0
LTYPE
  5
3A
100
AcDbSymbolTableRecord
100
AcDbLinetypeTableRecord
  2
DIVIDE
 70
0
  3
Divide ____ . . ____ . . ____ . . ____ . . ____
 72
65
 73
6
 40
31.75
 49
12.6999999999999993
 74
0
 49
-6.3499999999999996
 74
0
 49
0.0
 74
0
 49
-6.3499999999999996
 74
0
 49
0.0
 74
0
 49
-6.3499999999999996
 74
0
  0
LTYPE
  5
3B
100
AcDbSymbolTableRecord
100
AcDbLinetypeTableRecord
  2
DIVIDE2
 70
0
  3
Divide (.5x) __..__..__..__..__..__..__..__.._
 72
65
 73
6
 40
15.875
 49
6.3499999999999996
 74
0
 49
-3.1749999999999998
 74
0
 49
0.0
 74
0
 49
-3.1749999999999998
 74
0
 49
0.0
 74
0
 49
-3.1749999999999998
 74
0
  0
LTYPE
  5
3C
100
AcDbSymbolTableRecord
100
AcDbLinetypeTableRecord
  2
DIVIDEX2
 70
0
  3
Divide (2x) ________  .  .  ________  .  .  _
 72
65
 73
6
 40
63.5
 49
25.3999999999999986
 74
0
 49
-12.6999999999999993
 74
0
 49
0.0
 74
0
 49
-12.6999999999999993
 74
0
 49
0.0
 74
0
 49
-12.6999999999999993
 74
0
  0
LTYPE
  5
3D
100
AcDbSymbolTableRecord
100
AcDbLinetypeTableRecord
  2
CENTER
 70
0
  3
Center ____ _ ____ _ ____ _ ____ _ ____ _ ____
 72
65
 73
4
 40
50.7999999999999972
 49
31.75
 74
0
 49
-6.3499999999999996
 74
0
 49
6.3499999999999996
 74
0
 49
-6.3499999999999996
 74
0
  0
LTYPE
  5
3E
100
AcDbSymbolTableRecord
100
AcDbLinetypeTableRecord
  2
CENTER2
 70
0
  3
Center (.5x) ___ _ ___ _ ___ _ ___ _ ___ _ ___
 72
65
 73
4
 40
28.5749999999999993
 49
19.0500000000000007
 74
0
 49
-3.1749999999999998
 74
0
 49
3.1749999999999998
 74
0
 49
-3.1749999999999998
 74
0
  0
LTYPE
  5
3F
100
AcDbSymbolTableRecord
100
AcDbLinetypeTableRecord
  2
CENTERX2
 70
0
  3
Center (2x) ________  __  ________  __  _____
 72
65
 73
4
 40
101.5999999999999943
 49
63.5
 74
0
 49
-12.6999999999999993
 74
0
 49
12.6999999999999993
 74
0
 49
-12.6999999999999993
 74
0
  0
LTYPE
  5
40
100
AcDbSymbolTableRecord
100
AcDbLinetypeTableRecord
  2
BORDER
 70
0
  3
Border __ __ . __ __ . __ __ . __ __ . __ __ .
 72
65
 73
6
 40
44.4500000000000028
 49
12.6999999999999993
 74
0
 49
-6.3499999999999996
 74
0
 49
12.6999999999999993
 74
0
 49
-6.3499999999999996
 74
0
 49
0.0
 74
0
 49
-6.3499999999999996
 74
0
  0
LTYPE
  5
41
100
AcDbSymbolTableRecord
100
AcDbLinetypeTableRecord
  2
BORDER2
 70
0
  3
Border (.5x) __.__.__.__.__.__.__.__.__.__.__.
 72
65
 73
6
 40
22.2250000000000014
 49
6.3499999999999996
 74
0
 49
-3.1749999999999998
 74
0
 49
6.3499999999999996
 74
0
 49
-3.1749999999999998
 74
0
 49
0.0
 74
0
 49
-3.1749999999999998
 74
0
  0
LTYPE
  5
42
100
AcDbSymbolTableRecord
100
AcDbLinetypeTableRecord
  2
BORDERX2
 70
0
  3
Border (2x) ____  ____  .  ____  ____  .  ___
 72
65
 73
6
 40
88.9000000000000057
 49
25.3999999999999986
 74
0
 49
-12.6999999999999993
 74
0
 49
25.3999999999999986
 74
0
 49
-12.6999999999999993
 74
0
 49
0.0
 74
0
 49
-12.6999999999999993
 74
0
  0
ENDTAB
  0
TABLE
  2
LAYER
  5
2
100
AcDbSymbolTable
 70
9
  0
LAYER
  5
10
100
AcDbSymbolTableRecord
100
AcDbLayerTableRecord
  2
0
 70
0
 62
7
  6
CONTINUOUS
370
25
390
F
  0
LAYER
  5
43
100
AcDbSymbolTableRecord
100
AcDbLayerTableRecord
  2
Walls
 70
0
 62
7
  6
CONTINUOUS
370
0
390
F
  0
LAYER
  5
44
100
AcDbSymbolTableRecord
100
AcDbLayerTableRecord
  2
Bathrooms
 70
0
 62
7
  6
CONTINUOUS
370
0
390
F
  0
LAYER
  5
45
100
AcDbSymbolTableRecord
100
AcDbLayerTableRecord
  2
obj-v
 70
0
 62
8
  6
CONTINUOUS
370
18
390
F
  0
LAYER
  5
46
100
AcDbSymbolTableRecord
100
AcDbLayerTableRecord
  2
_stretch_lc_50
 70
0
 62
15
  6
CONTINUOUS
390
F
  0
LAYER
  5
47
100
AcDbSymbolTableRecord
100
AcDbLayerTableRecord
  2
_stretch_hu_30
 70
0
 62
15
  6
CONTINUOUS
390
F
  0
LAYER
  5
48
100
AcDbSymbolTableRecord
100
AcDbLayerTableRecord
  2
Kitchen
 70
0
 62
7
  6
CONTINUOUS
370
0
390
F
  0
LAYER
  5
49
100
AcDbSymbolTableRecord
100
AcDbLayerTableRecord
  2
Desks
 70
0
 62
7
  6
CONTINUOUS
370
0
390
F
  0
LAYER
  5
4A
100
AcDbSymbolTableRecord
100
AcDbLayerTableRecord
  2
Pipes
 70
0
 62
7
  6
CONTINUOUS
370
0
390
F
  0
ENDTAB
  0
TABLE
  2
STYLE
  5
3
100
AcDbSymbolTable
 70
1
  0
STYLE
  5
11
100
AcDbSymbolTableRecord
100
AcDbTextStyleTableRecord
  2
Standard
 70
0
 40
0.0
 41
0.75
 50
0.0
 71
0
 42
2.5
  3
txt
  4

  0
ENDTAB
  0
TABLE
  2
VIEW
  5
6
100
AcDbSymbolTable
 70
0
  0
ENDTAB
  0
TABLE
  2
UCS
  5
7
100
AcDbSymbolTable
 70
0
  0
ENDTAB
  0
TABLE
  2
APPID
  5
9
100
AcDbSymbolTable
 70
1
  0
APPID
  5
12
100
AcDbSymbolTableRecord
100
AcDbRegAppTableRecord
  2
ACAD
 70
0
  0
ENDTAB
  0
TABLE
  2
DIMSTYLE
  5
A
100
AcDbSymbolTable
 70
1
100
AcDbDimStyleTable
 71
0
  0
DIMSTYLE
105
27
100
AcDbSymbolTableRecord
100
AcDbDimStyleTableRecord
  2
Standard
 41
2.5
 42
0.625
 43
3.75
 44
1.25
 70
0
 73
0
 74
0
 77
1
 78
8
140
2.5
141
2.5
143
0.03937007874016
147
0.625
171
3
172
1
271
2
272
2
274
3
278
44
283
0
284
8
340
11
  0
ENDTAB
  0
TABLE
  2
BLOCK_RECORD
  5
1
100
AcDbSymbolTable
 70
1
  0
BLOCK_RECORD
  5
1F
100
AcDbSymbolTableRecord
100
AcDbBlockTableRecord
  2
*Model_Space
340
22
  0
BLOCK_RECORD
  5
1B
100
AcDbSymbolTableRecord
100
AcDbBlockTableRecord
  2
*Paper_Space
340
1E
  0
BLOCK_RECORD
  5
23
100
AcDbSymbolTableRecord
100
AcDbBlockTableRecord
  2
*Paper_Space0
340
26
  0
BLOCK_RECORD
  5
4B
100
AcDbSymbolTableRecord
100
AcDbBlockTableRecord
  2
wc_ll-0
340
0
  0
BLOCK_RECORD
  5
4C
100
AcDbSymbolTableRecord
100
AcDbBlockTableRecord
  2
wc_ll-1
340
0
  0
BLOCK_RECORD
  5
4D
100
AcDbSymbolTableRecord
100
AcDbBlockTableRecord
  2
_wb-0
340
0
  0
BLOCK_RECORD
  5
4E
100
AcDbSymbolTableRecord
100
AcDbBlockTableRecord
  2
wb46x26-0
340
0
  0
BLOCK_RECORD
  5
4F
100
AcDbSymbolTableRecord
100
AcDbBlockTableRecord
  2
Desk
340
0
  0
ENDTAB
  0
ENDSEC
  0
SECTION
  2
BLOCKS
  0
BLOCK
  5
20
100
AcDbEntity
  8
0
100
AcDbBlockBegin
  2
*Model_Space
 70
0
 10
0.0
 20
0.0
 30
0.0
  3
*Model_Space
  1

  0
ENDBLK
  5
21
100
AcDbEntity
  8
0
100
AcDbBlockEnd
  0
BLOCK
  5
1C
100
AcDbEntity
 67
1
  8
0
100
AcDbBlockBegin
  2
*Paper_Space
 70
0
 10
0.0
 20
0.0
 30
0.0
  3
*Paper_Space
  1

  0
ENDBLK
  5
1D
100
AcDbEntity
 67
1
  8
0
100
AcDbBlockEnd
  0
BLOCK
  5
24
100
AcDbEntity
  8
0
100
AcDbBlockBegin
  2
*Paper_Space0
 70
0
 10
0.0
 20
0.0
 30
0.0
  3
*Paper_Space0
  1

  0
ENDBLK
  5
25
100
AcDbEntity
  8
0
100
AcDbBlockEnd
  0
BLOCK
  5
50
100
AcDbEntity
  8
0
100
AcDbBlockBegin
  2
wc_ll-0
 70
0
 10
0.0
 20
0.0
 30
0.0
  3
wc_ll-0
  1

  0
ENDBLK
  5
51
100
AcDbEntity
  8
0
100
AcDbBlockEnd
  0
BLOCK
  5
52
100
AcDbEntity
  8
0
100
AcDbBlockBegin
  2
wc_ll-1
 70
0
 10
0.0
 20
0.0
 30
0.0
  3
wc_ll-1
  1

  0
LINE
  5
53
100
AcDbEntity
100
AcDbLine
  8
obj-v
 62
256
370
-1
  6
ByLayer
 10
23.9648440000000846
 20
0.0
 30
0.0
 11
23.9648429999997461
 21
10.0036620000000767
 31
0.0
  0
LINE
  5
54
100
AcDbEntity
100
AcDbLine
  8
obj-v
 62
256
370
-1
  6
ByLayer
 10
23.9648429999997461
 20
10.0036620000000767
 30
0.0
 11
19.0223399999995308
 21
14.9553219999997964
 31
0.0
  0
LINE
  5
55
100
AcDbEntity
100
AcDbLine
  8
obj-v
 62
256
370
-1
  6
ByLayer
 10
12.980956999999762
 20
60.0219719999995505
 30
0.0
 11
18.6014400000003661
 21
46.9112539999996443
 31
0.0
  0
LINE
  5
56
100
AcDbEntity
100
AcDbLine
  8
obj-v
 62
256
370
-1
  6
ByLayer
 10
18.6014400000003661
 20
46.9112539999996443
 30
0.0
 11
18.6014400000003661
 21
33.9099120000000767
 31
0.0
  0
LINE
  5
57
100
AcDbEntity
100
AcDbLine
  8
obj-v
 62
256
370
-1
  6
ByLayer
 10
18.6014400000003661
 20
33.9099120000000767
 30
0.0
 11
12.980956999999762
 21
15.0056150000000343
 31
0.0
  0
LINE
  5
58
100
AcDbEntity
100
AcDbLine
  8
obj-v
 62
256
370
-1
  6
ByLayer
 10
-23.9648429999997461
 20
0.0
 30
0.0
 11
-23.9648440000000846
 21
10.0036620000000767
 31
0.0
  0
LINE
  5
59
100
AcDbEntity
100
AcDbLine
  8
obj-v
 62
256
370
-1
  6
ByLayer
 10
-23.9648440000000846
 20
10.0036620000000767
 30
0.0
 11
-19.0223380000006728
 21
14.9553219999997964
 31
0.0
  0
LINE
  5
5A
100
AcDbEntity
100
AcDbLine
  8
obj-v
 62
256
370
-1
  6
ByLayer
 10
-12.980956999999762
 20
60.02197200000046
 30
0.0
 11
-18.6014410000007047
 21
46.9112539999996443
 31
0.0
  0
LINE
  5
5B
100
AcDbEntity
100
AcDbLine
  8
obj-v
 62
256
370
-1
  6
ByLayer
 10
-18.6014410000007047
 20
46.9112539999996443
 30
0.0
 11
-18.6014410000007047
 21
33.9099120000000767
 31
0.0
  0
LINE
  5
5C
100
AcDbEntity
100
AcDbLine
  8
obj-v
 62
256
370
-1
  6
ByLayer
 10
-18.6014410000007047
 20
33.9099120000000767
 30
0.0
 11
-12.980956999999762
 21
15.0056150000000343
 31
0.0
  0
LINE
  5
5D
100
AcDbEntity
100
AcDbLine
  8
obj-v
 62
256
370
-1
  6
ByLayer
 10
-19.0223380000006728
 20
14.9553219999997964
 30
0.0
 11
19.0223399999995308
 21
14.9553219999997964
 31
0.0
  0
LINE
  5
5E
100
AcDbEntity
100
AcDbLine
  8
obj-v
 62
256
370
-1
  6
ByLayer
 10
-23.9648429999997461
 20
0.0
 30
0.0
 11
23.9648440000000846
 21
0.0
 31
0.0
  0
LINE
  5
5F
100
AcDbEntity
100
AcDbLine
  8
obj-v
 62
256
370
-1
  6
ByLayer
 10
6.4215079999994487
 20
64.3182370000004084
 30
0.0
 11
0.0
 21
65.0239250000004176
 31
0.0
  0
LINE
  5
60
100
AcDbEntity
100
AcDbLine
  8
obj-v
 62
256
370
-1
  6
ByLayer
 10
12.980956999999762
 20
60.0219719999995505
 30
0.0
 11
6.4215079999994487
 21
64.3182370000004084
 31
0.0
  0
LINE
  5
61
100
AcDbEntity
100
AcDbLine
  8
obj-v
 62
256
370
-1
  6
ByLayer
 10
-6.4215089999997872
 20
64.3182370000004084
 30
0.0
 11
0.0
 21
65.0239250000004176
 31
0.0
  0
LINE
  5
62
100
AcDbEntity
100
AcDbLine
  8
obj-v
 62
256
370
-1
  6
ByLayer
 10
-12.980956999999762
 20
60.02197200000046
 30
0.0
 11
-6.4215089999997872
 21
64.3182370000004084
 31
0.0
  0
ENDBLK
  5
63
100
AcDbEntity
  8
0
100
AcDbBlockEnd
  0
BLOCK
  5
64
100
AcDbEntity
  8
0
100
AcDbBlockBegin
  2
_wb-0
 70
0
 10
0.0
 20
0.0
 30
0.0
  3
_wb-0
  1

  0
LINE
  5
65
100
AcDbEntity
100
AcDbLine
  8
_stretch_lc_50
 62
15
370
0
  6
CONTINUOUS
 10
0.0
 20
330.0
 30
0.0
 11
0.0
 21
-30.0
 31
0.0
  0
LINE
  5
66
100
AcDbEntity
100
AcDbLine
  8
_stretch_hu_30
 62
15
370
0
  6
CONTINUOUS
 10
-280.0
 20
120.0
 30
0.0
 11
290.0
 21
120.0
 31
0.0
  0
ARC
  5
67
100
AcDbEntity
  8
obj-v
 62
256
370
-1
  6
ByLayer
100
AcDbCircle
 10
-140.0
 20
110.0
 30
0.0
 40
70.0
100
AcDbArc
 50
180.0
 51
270.0
  0
ARC
  5
68
100
AcDbEntity
  8
obj-v
 62
256
370
-1
  6
ByLayer
100
AcDbCircle
 10
140.0
 20
110.0
 30
0.0
 40
70.0
100
AcDbArc
 50
270.0
 51
0.0
  0
LINE
  5
69
100
AcDbEntity
100
AcDbLine
  8
obj-v
 62
256
370
-1
  6
ByLayer
 10
-250.0
 20
0.0
 30
0.0
 11
250.0
 21
0.0
 31
0.0
  0
LINE
  5
6A
100
AcDbEntity
100
AcDbLine
  8
obj-v
 62
256
370
-1
  6
ByLayer
 10
-140.0
 20
40.0
 30
0.0
 11
140.0
 21
40.0
 31
0.0
  0
ARC
  5
6B
100
AcDbEntity
  8
obj-v
 62
256
370
-1
  6
ByLayer
100
AcDbCircle
 10
-140.0
 20
190.0
 30
0.0
 40
70.0
100
AcDbArc
 50
90.0
 51
180.0
  0
LINE
  5
6C
100
AcDbEntity
100
AcDbLine
  8
obj-v
 62
256
370
-1
  6
ByLayer
 10
-210.0
 20
190.0
 30
0.0
 11
-210.0
 21
110.0
 31
0.0
  0
LINE
  5
6D
100
AcDbEntity
100
AcDbLine
  8
obj-v
 62
256
370
-1
  6
ByLayer
 10
-250.0
 20
180.0
 30
0.0
 11
-250.0
 21
0.0
 31
0.0
  0
ARC
  5
6E
100
AcDbEntity
  8
obj-v
 62
256
370
-1
  6
ByLayer
100
AcDbCircle
 10
-130.0
 20
180.0
 30
0.0
 40
120.0
100
AcDbArc
 50
90.0
 51
180.0
  0
ARC
  5
6F
100
AcDbEntity
  8
obj-v
 62
256
370
-1
  6
ByLayer
100
AcDbCircle
 10
140.0
 20
190.0
 30
0.0
 40
70.0
100
AcDbArc
 50
0.0
 51
90.0
  0
LINE
  5
70
100
AcDbEntity
100
AcDbLine
  8
obj-v
 62
256
370
-1
  6
ByLayer
 10
210.0
 20
110.0
 30
0.0
 11
210.0
 21
190.0
 31
0.0
  0
LINE
  5
71
100
AcDbEntity
100
AcDbLine
  8
obj-v
 62
256
370
-1
  6
ByLayer
 10
250.0
 20
0.0
 30
0.0
 11
250.0
 21
180.0
 31
0.0
  0
ARC
  5
72
100
AcDbEntity
  8
obj-v
 62
256
370
-1
  6
ByLayer
100
AcDbCircle
 10
130.0
 20
180.0
 30
0.0
 40
120.0
100
AcDbArc
 50
0.0
 51
90.0
  0
LINE
  5
73
100
AcDbEntity
100
AcDbLine
  8
obj-v
 62
256
370
-1
  6
ByLayer
 10
140.0
 20
260.0
 30
0.0
 11
-140.0
 21
260.0
 31
0.0
  0
LINE
  5
74
100
AcDbEntity
100
AcDbLine
  8
obj-v
 62
256
370
-1
  6
ByLayer
 10
130.0
 20
300.0
 30
0.0
 11
-130.0
 21
300.0
 31
0.0
  0
CIRCLE
  5
75
100
AcDbEntity
100
AcDbCircle
  8
obj-v
 62
256
370
-1
  6
ByLayer
 10
0.0
 20
90.0
 30
0.0
 40
20.0
  0
ENDBLK
  5
76
100
AcDbEntity
  8
0
100
AcDbBlockEnd
  0
BLOCK
  5
77
100
AcDbEntity
  8
0
100
AcDbBlockBegin
  2
wb46x26-0
 70
0
 10
0.0
 20
0.0
 30
0.0
  3
wb46x26-0
  1

  0
CIRCLE
  5
78
100
AcDbEntity
100
AcDbCircle
  8
obj-v
 62
256
370
-1
  6
ByLayer
 10
0.0
 20
90.0
 30
0.0
 40
20.0
  0
ARC
  5
79
100
AcDbEntity
  8
obj-v
 62
256
370
-1
  6
ByLayer
100
AcDbCircle
 10
-120.0
 20
110.0
 30
0.0
 40
70.0
100
AcDbArc
 50
180.0
 51
270.0
  0
LINE
  5
7A
100
AcDbEntity
100
AcDbLine
  8
obj-v
 62
256
370
-1
  6
ByLayer
 10
-230.0
 20
140.0
 30
0.0
 11
-230.0
 21
0.0
 31
0.0
  0
ARC
  5
7B
100
AcDbEntity
  8
obj-v
 62
256
370
-1
  6
ByLayer
100
AcDbCircle
 10
-110.0
 20
140.0
 30
0.0
 40
120.0
100
AcDbArc
 50
90.0
 51
180.0
  0
ARC
  5
7C
100
AcDbEntity
  8
obj-v
 62
256
370
-1
  6
ByLayer
100
AcDbCircle
 10
-120.0
 20
160.0
 30
0.0
 40
70.0
100
AcDbArc
 50
90.0
 51
180.0
  0
LINE
  5
7D
100
AcDbEntity
100
AcDbLine
  8
obj-v
 62
256
370
-1
  6
ByLayer
 10
-190.0
 20
160.0
 30
0.0
 11
-190.0
 21
110.0
 31
0.0
  0
ARC
  5
7E
100
AcDbEntity
  8
obj-v
 62
256
370
-1
  6
ByLayer
100
AcDbCircle
 10
120.0
 20
110.0
 30
0.0
 40
70.0
100
AcDbArc
 50
270.0
 51
0.0
  0
LINE
  5
7F
100
AcDbEntity
100
AcDbLine
  8
obj-v
 62
256
370
-1
  6
ByLayer
 10
230.0
 20
0.0
 30
0.0
 11
230.0
 21
140.0
 31
0.0
  0
ARC
  5
80
100
AcDbEntity
  8
obj-v
 62
256
370
-1
  6
ByLayer
100
AcDbCircle
 10
110.0
 20
140.0
 30
0.0
 40
120.0
100
AcDbArc
 50
0.0
 51
90.0
  0
ARC
  5
81
100
AcDbEntity
  8
obj-v
 62
256
370
-1
  6
ByLayer
100
AcDbCircle
 10
120.0
 20
160.0
 30
0.0
 40
70.0
100
AcDbArc
 50
0.0
 51
90.0
  0
LINE
  5
82
100
AcDbEntity
100
AcDbLine
  8
obj-v
 62
256
370
-1
  6
ByLayer
 10
190.0
 20
110.0
 30
0.0
 11
190.0
 21
160.0
 31
0.0
  0
LINE
  5
83
100
AcDbEntity
100
AcDbLine
  8
obj-v
 62
256
370
-1
  6
ByLayer
 10
-230.0
 20
0.0
 30
0.0
 11
230.0
 21
0.0
 31
0.0
  0
LINE
  5
84
100
AcDbEntity
100
AcDbLine
  8
obj-v
 62
256
370
-1
  6
ByLayer
 10
-120.0
 20
40.0
 30
0.0
 11
120.0
 21
40.0
 31
0.0
  0
LINE
  5
85
100
AcDbEntity
100
AcDbLine
  8
obj-v
 62
256
370
-1
  6
ByLayer
 10
110.0
 20
260.0
 30
0.0
 11
-110.0
 21
260.0
 31
0.0
  0
LINE
  5
86
100
AcDbEntity
100
AcDbLine
  8
obj-v
 62
256
370
-1
  6
ByLayer
 10
120.0
 20
230.0
 30
0.0
 11
-120.0
 21
230.0
 31
0.0
  0
ENDBLK
  5
87
100
AcDbEntity
  8
0
100
AcDbBlockEnd
  0
BLOCK
  5
88
100
AcDbEntity
  8
0
100
AcDbBlockBegin
  2
Desk
 70
0
 10
0.0
 20
0.0
 30
0.0
  3
Desk
  1

  0
LINE
  5
89
100
AcDbEntity
100
AcDbLine
  8
Desks
 62
256
370
-1
  6
ByLayer
 10
0.0
 20
0.0
 30
0.0
 11
0.0
 21
1500.0
 31
0.0
  0
LINE
  5
8A
100
AcDbEntity
100
AcDbLine
  8
Desks
 62
256
370
-1
  6
ByLayer
 10
0.0
 20
1500.0
 30
0.0
 11
750.0
 21
1500.0
 31
0.0
  0
LINE
  5
8B
100
AcDbEntity
100
AcDbLine
  8
Desks
 62
256
370
-1
  6
ByLayer
 10
750.0
 20
1500.0
 30
0.0
 11
750.0
 21
0.0
 31
0.0
  0
LINE
  5
8C
100
AcDbEntity
100
AcDbLine
  8
Desks
 62
256
370
-1
  6
ByLayer
 10
750.0
 20
0.0
 30
0.0
 11
0.0
 21
0.0
 31
0.0
  0
ENDBLK
  5
8D
100
AcDbEntity
  8
0
100
AcDbBlockEnd
  0
ENDSEC
  0
SECTION
  2
ENTITIES
  0
LINE
  5
8E
100
AcDbEntity
100
AcDbLine
  8
Walls
 62
256
370
-1
  6
ByLayer
 10
5490.0
 20
0.0
 30
0.0
 11
7180.0
 21
0.0
 31
0.0
  0
LINE
  5
8F
100
AcDbEntity
100
AcDbLine
  8
Walls
 62
256
370
-1
  6
ByLayer
 10
7180.0
 20
0.0
 30
0.0
 11
7280.0
 21
0.0
 31
0.0
  0
LINE
  5
90
100
AcDbEntity
100
AcDbLine
  8
Walls
 62
256
370
-1
  6
ByLayer
 10
14450.0
 20
1590.0
 30
0.0
 11
14450.0
 21
1820.0
 31
0.0
  0
LINE
  5
91
100
AcDbEntity
100
AcDbLine
  8
Walls
 62
256
370
-1
  6
ByLayer
 10
14450.0
 20
1820.0
 30
0.0
 11
13280.0
 21
1820.0
 31
0.0
  0
LINE
  5
92
100
AcDbEntity
100
AcDbLine
  8
Walls
 62
256
370
-1
  6
ByLayer
 10
13280.0
 20
1820.0
 30
0.0
 11
13280.0
 21
2280.0
 31
0.0
  0
LINE
  5
93
100
AcDbEntity
100
AcDbLine
  8
Walls
 62
256
370
-1
  6
ByLayer
 10
13280.0
 20
3030.0
 30
0.0
 11
13280.0
 21
3540.0
 31
0.0
  0
LINE
  5
94
100
AcDbEntity
100
AcDbLine
  8
Walls
 62
256
370
-1
  6
ByLayer
 10
13280.0
 20
3540.0
 30
0.0
 11
13280.0
 21
3550.0
 31
0.0
  0
LINE
  5
95
100
AcDbEntity
100
AcDbLine
  8
Walls
 62
256
370
-1
  6
ByLayer
 10
13280.0
 20
3550.0
 30
0.0
 11
13280.0
 21
3650.0
 31
0.0
  0
LINE
  5
96
100
AcDbEntity
100
AcDbLine
  8
Walls
 62
256
370
-1
  6
ByLayer
 10
13280.0
 20
3650.0
 30
0.0
 11
13280.0
 21
5810.0
 31
0.0
  0
LINE
  5
97
100
AcDbEntity
100
AcDbLine
  8
Walls
 62
256
370
-1
  6
ByLayer
 10
13380.0
 20
7500.0
 30
0.0
 11
13380.0
 21
7610.0
 31
0.0
  0
LINE
  5
98
100
AcDbEntity
100
AcDbLine
  8
Walls
 62
256
370
-1
  6
ByLayer
 10
13380.0
 20
7610.0
 30
0.0
 11
9690.0
 21
7610.0
 31
0.0
  0
LINE
  5
99
100
AcDbEntity
100
AcDbLine
  8
Walls
 62
256
370
-1
  6
ByLayer
 10
9690.0
 20
7610.0
 30
0.0
 11
9690.0
 21
7510.0
 31
0.0
  0
LINE
  5
9A
100
AcDbEntity
100
AcDbLine
  8
Walls
 62
256
370
-1
  6
ByLayer
 10
9690.0
 20
7510.0
 30
0.0
 11
9090.0
 21
7510.0
 31
0.0
  0
LINE
  5
9B
100
AcDbEntity
100
AcDbLine
  8
Walls
 62
256
370
-1
  6
ByLayer
 10
9090.0
 20
7510.0
 30
0.0
 11
9090.0
 21
7610.0
 31
0.0
  0
LINE
  5
9C
100
AcDbEntity
100
AcDbLine
  8
Walls
 62
256
370
-1
  6
ByLayer
 10
9090.0
 20
7610.0
 30
0.0
 11
4680.0
 21
7610.0
 31
0.0
  0
LINE
  5
9D
100
AcDbEntity
100
AcDbLine
  8
Walls
 62
256
370
-1
  6
ByLayer
 10
4680.0
 20
7610.0
 30
0.0
 11
4680.0
 21
7510.0
 31
0.0
  0
LINE
  5
9E
100
AcDbEntity
100
AcDbLine
  8
Walls
 62
256
370
-1
  6
ByLayer
 10
4680.0
 20
7510.0
 30
0.0
 11
4085.0
 21
7510.0
 31
0.0
  0
LINE
  5
9F
100
AcDbEntity
100
AcDbLine
  8
Walls
 62
256
370
-1
  6
ByLayer
 10
4085.0
 20
7510.0
 30
0.0
 11
4085.0
 21
7610.0
 31
0.0
  0
LINE
  5
A0
100
AcDbEntity
100
AcDbLine
  8
Walls
 62
256
370
-1
  6
ByLayer
 10
4085.0
 20
7610.0
 30
0.0
 11
1855.0
 21
7610.0
 31
0.0
  0
LINE
  5
A1
100
AcDbEntity
100
AcDbLine
  8
Walls
 62
256
370
-1
  6
ByLayer
 10
1855.0
 20
7610.0
 30
0.0
 11
1755.0
 21
7610.0
 31
0.0
  0
LINE
  5
A2
100
AcDbEntity
100
AcDbLine
  8
Walls
 62
256
370
-1
  6
ByLayer
 10
1755.0
 20
7610.0
 30
0.0
 11
-345.0
 21
7610.0
 31
0.0
  0
LINE
  5
A3
100
AcDbEntity
100
AcDbLine
  8
Walls
 62
256
370
-1
  6
ByLayer
 10
-345.0
 20
7610.0
 30
0.0
 11
-345.0
 21
7510.0
 31
0.0
  0
LINE
  5
A4
100
AcDbEntity
100
AcDbLine
  8
Walls
 62
256
370
-1
  6
ByLayer
 10
-345.0
 20
7510.0
 30
0.0
 11
-850.0
 21
7510.0
 31
0.0
  0
LINE
  5
A5
100
AcDbEntity
100
AcDbLine
  8
Walls
 62
256
370
-1
  6
ByLayer
 10
-850.0
 20
7510.0
 30
0.0
 11
-850.0
 21
7330.0
 31
0.0
  0
LINE
  5
A6
100
AcDbEntity
100
AcDbLine
  8
Walls
 62
256
370
-1
  6
ByLayer
 10
-850.0
 20
6490.0
 30
0.0
 11
-850.0
 21
5990.0
 31
0.0
  0
LINE
  5
A7
100
AcDbEntity
100
AcDbLine
  8
Walls
 62
256
370
-1
  6
ByLayer
 10
-850.0
 20
5990.0
 30
0.0
 11
-850.0
 21
5120.0
 31
0.0
  0
LINE
  5
A8
100
AcDbEntity
100
AcDbLine
  8
Walls
 62
256
370
-1
  6
ByLayer
 10
-850.0
 20
5120.0
 30
0.0
 11
-850.0
 21
4770.0
 31
0.0
  0
LINE
  5
A9
100
AcDbEntity
100
AcDbLine
  8
Walls
 62
256
370
-1
  6
ByLayer
 10
-850.0
 20
4770.0
 30
0.0
 11
-850.0
 21
3900.0
 31
0.0
  0
LINE
  5
AA
100
AcDbEntity
100
AcDbLine
  8
Walls
 62
256
370
-1
  6
ByLayer
 10
-850.0
 20
3900.0
 30
0.0
 11
-850.0
 21
3550.0
 31
0.0
  0
LINE
  5
AB
100
AcDbEntity
100
AcDbLine
  8
Walls
 62
256
370
-1
  6
ByLayer
 10
-850.0
 20
3550.0
 30
0.0
 11
-850.0
 21
2680.0
 31
0.0
  0
LINE
  5
AC
100
AcDbEntity
100
AcDbLine
  8
Walls
 62
256
370
-1
  6
ByLayer
 10
-850.0
 20
2680.0
 30
0.0
 11
-850.0
 21
2330.0
 31
0.0
  0
LINE
  5
AD
100
AcDbEntity
100
AcDbLine
  8
Walls
 62
256
370
-1
  6
ByLayer
 10
-850.0
 20
1110.0
 30
0.0
 11
-850.0
 21
240.0
 31
0.0
  0
LINE
  5
AE
100
AcDbEntity
100
AcDbLine
  8
Walls
 62
256
370
-1
  6
ByLayer
 10
13380.0
 20
7710.0
 30
0.0
 11
9690.0
 21
7710.0
 31
0.0
  0
LINE
  5
AF
100
AcDbEntity
100
AcDbLine
  8
Walls
 62
256
370
-1
  6
ByLayer
 10
4680.0
 20
7710.0
 30
0.0
 11
1855.0
 21
7710.0
 31
0.0
  0
LINE
  5
B0
100
AcDbEntity
100
AcDbLine
  8
Walls
 62
256
370
-1
  6
ByLayer
 10
-1150.0
 20
7710.0
 30
0.0
 11
-1150.0
 21
7330.0
 31
0.0
  0
LINE
  5
B1
100
AcDbEntity
100
AcDbLine
  8
Walls
 62
256
370
-1
  6
ByLayer
 10
1855.0
 20
7710.0
 30
0.0
 11
-1150.0
 21
7710.0
 31
0.0
  0
LINE
  5
B2
100
AcDbEntity
100
AcDbLine
  8
Walls
 62
256
370
-1
  6
ByLayer
 10
15576.6108384441376984
 20
7717.0998704178637126
 30
0.0
 11
13379.6768061533566652
 21
7709.9994777273232103
 31
0.0
  0
LINE
  5
B3
100
AcDbEntity
100
AcDbLine
  8
Walls
 62
256
370
-1
  6
ByLayer
 10
-1150.0
 20
6490.0
 30
0.0
 11
-850.0
 21
6490.0
 31
0.0
  0
LINE
  5
B4
100
AcDbEntity
100
AcDbLine
  8
Walls
 62
256
370
-1
  6
ByLayer
 10
-1150.0
 20
7330.0
 30
0.0
 11
-850.0
 21
7330.0
 31
0.0
  0
LINE
  5
B5
100
AcDbEntity
100
AcDbLine
  8
Walls
 62
256
370
-1
  6
ByLayer
 10
-1150.0
 20
240.0
 30
0.0
 11
-1150.0
 21
1110.0
 31
0.0
  0
LINE
  5
B6
100
AcDbEntity
100
AcDbLine
  8
Walls
 62
256
370
-1
  6
ByLayer
 10
-850.0
 20
1460.0
 30
0.0
 11
-850.0
 21
1460.0
 31
0.0
  0
LINE
  5
B7
100
AcDbEntity
100
AcDbLine
  8
Walls
 62
256
370
-1
  6
ByLayer
 10
-850.0
 20
1460.0
 30
0.0
 11
-850.0
 21
1460.0
 31
0.0
  0
LINE
  5
B8
100
AcDbEntity
100
AcDbLine
  8
Walls
 62
256
370
-1
  6
ByLayer
 10
-850.0
 20
1460.0
 30
0.0
 11
-850.0
 21
1460.0
 31
0.0
  0
LINE
  5
B9
100
AcDbEntity
100
AcDbLine
  8
Walls
 62
256
370
-1
  6
ByLayer
 10
-850.0
 20
1460.0
 30
0.0
 11
-850.0
 21
1460.0
 31
0.0
  0
LINE
  5
BA
100
AcDbEntity
100
AcDbLine
  8
Walls
 62
256
370
-1
  6
ByLayer
 10
-850.0
 20
1460.0
 30
0.0
 11
-850.0
 21
1460.0
 31
0.0
  0
LINE
  5
BB
100
AcDbEntity
100
AcDbLine
  8
Walls
 62
256
370
-1
  6
ByLayer
 10
-850.0
 20
2330.0
 30
0.0
 11
-1150.0
 21
2331.944415345879861
 31
0.0
  0
LINE
  5
BC
100
AcDbEntity
100
AcDbLine
  8
Walls
 62
256
370
-1
  6
ByLayer
 10
-850.0
 20
2680.0
 30
0.0
 11
-1150.0
 21
2683.373168110955703
 31
0.0
  0
LINE
  5
BD
100
AcDbEntity
100
AcDbLine
  8
Walls
 62
256
370
-1
  6
ByLayer
 10
-850.0
 20
3550.0
 30
0.0
 11
-1150.0
 21
3552.713678800650996
 31
0.0
  0
LINE
  5
BE
100
AcDbEntity
100
AcDbLine
  8
Walls
 62
256
370
-1
  6
ByLayer
 10
-850.0
 20
5120.0
 30
0.0
 11
-1150.0
 21
5120.4551709818097152
 31
0.0
  0
LINE
  5
BF
100
AcDbEntity
100
AcDbLine
  8
Walls
 62
256
370
-1
  6
ByLayer
 10
14550.0
 20
1590.0
 30
0.0
 11
14550.0
 21
1659.9987194702416673
 31
0.0
  0
LINE
  5
C0
100
AcDbEntity
100
AcDbLine
  8
Walls
 62
256
370
-1
  6
ByLayer
 10
14450.0
 20
1590.0
 30
0.0
 11
14550.0
 21
1590.0
 31
0.0
  0
LINE
  5
C1
100
AcDbEntity
100
AcDbLine
  8
Walls
 62
256
370
-1
  6
ByLayer
 10
14550.0
 20
1659.9987194702416673
 30
0.0
 11
15580.0920138735582441
 21
1659.9855288354663116
 31
0.0
  0
LINE
  5
C2
100
AcDbEntity
100
AcDbLine
  8
Walls
 62
256
370
-1
  6
ByLayer
 10
15580.0920138735582441
 20
1659.9855288354663116
 30
0.0
 11
15576.6108384441376984
 21
7717.0998704178637126
 31
0.0
  0
LINE
  5
C3
100
AcDbEntity
100
AcDbLine
  8
Walls
 62
256
370
-1
  6
ByLayer
 10
15279.9425274935692869
 20
1920.0
 30
0.0
 11
13380.0
 21
1920.0
 31
0.0
  0
LINE
  5
C4
100
AcDbEntity
100
AcDbLine
  8
Walls
 62
256
370
-1
  6
ByLayer
 10
13380.0
 20
1920.0
 30
0.0
 11
13380.0
 21
2280.0
 31
0.0
  0
LINE
  5
C5
100
AcDbEntity
100
AcDbLine
  8
Walls
 62
256
370
-1
  6
ByLayer
 10
15279.9425274935692869
 20
2070.0
 30
0.0
 11
15579.8536613639116695
 21
2074.7099326488182669
 31
0.0
  0
LINE
  5
C6
100
AcDbEntity
100
AcDbLine
  8
Walls
 62
256
370
-1
  6
ByLayer
 10
15266.2813601125599234
 20
2939.892736207049893
 30
0.0
 11
15566.192493982902306
 21
2944.6026688558681599
 31
0.0
  0
LINE
  5
C7
100
AcDbEntity
100
AcDbLine
  8
Walls
 62
256
370
-1
  6
ByLayer
 10
15279.3562515647608961
 20
3030.0980698915172979
 30
0.0
 11
14479.3562515647608961
 21
3030.0980698915172979
 31
0.0
  0
LINE
  5
C8
100
AcDbEntity
100
AcDbLine
  8
Walls
 62
256
370
-1
  6
ByLayer
 10
13729.3562515647608961
 20
3030.0980698915172979
 30
0.0
 11
13280.0
 21
3030.0
 31
0.0
  0
LINE
  5
C9
100
AcDbEntity
100
AcDbLine
  8
Walls
 62
256
370
-1
  6
ByLayer
 10
15279.3562515647608961
 20
3130.0980698915172979
 30
0.0
 11
14479.3562515647608961
 21
3130.0980698915172979
 31
0.0
  0
LINE
  5
CA
100
AcDbEntity
100
AcDbLine
  8
Walls
 62
256
370
-1
  6
ByLayer
 10
15279.2470538025445421
 20
3290.0980698915172979
 30
0.0
 11
15579.1585274630870117
 21
3290.0980698915172979
 31
0.0
  0
LINE
  5
CB
100
AcDbEntity
100
AcDbLine
  8
Walls
 62
256
370
-1
  6
ByLayer
 10
15279.2470538025445421
 20
4160.0980698915172979
 30
0.0
 11
15579.1585274630870117
 21
4160.0980698915172979
 31
0.0
  0
LINE
  5
CC
100
AcDbEntity
100
AcDbLine
  8
Walls
 62
256
370
-1
  6
ByLayer
 10
13729.3344270349552971
 20
3130.0980675099667678
 30
0.0
 11
13729.3562515647608961
 21
3030.0980698915172979
 31
0.0
  0
LINE
  5
CD
100
AcDbEntity
100
AcDbLine
  8
Walls
 62
256
370
-1
  6
ByLayer
 10
14479.3562515647608961
 20
3130.0980698915172979
 30
0.0
 11
14479.3562515647608961
 21
3030.0980698915172979
 31
0.0
  0
LINE
  5
CE
100
AcDbEntity
100
AcDbLine
  8
Walls
 62
256
370
-1
  6
ByLayer
 10
13280.0
 20
2280.0
 30
0.0
 11
13380.0
 21
2280.0
 31
0.0
  0
LINE
  5
CF
100
AcDbEntity
100
AcDbLine
  8
Walls
 62
256
370
-1
  6
ByLayer
 10
13380.0
 20
2280.0
 30
0.0
 11
13380.0
 21
2280.0
 31
0.0
  0
LINE
  5
D0
100
AcDbEntity
100
AcDbLine
  8
Walls
 62
256
370
-1
  6
ByLayer
 10
15277.1962531539247721
 20
6690.0
 30
0.0
 11
15577.2485646546592761
 21
6690.0
 31
0.0
  0
LINE
  5
D1
100
AcDbEntity
100
AcDbLine
  8
Walls
 62
256
370
-1
  6
ByLayer
 10
15277.1962531539247721
 20
5820.0
 30
0.0
 11
15577.2485646546592761
 21
5820.0
 31
0.0
  0
LINE
  5
D2
100
AcDbEntity
100
AcDbLine
  8
Walls
 62
256
370
-1
  6
ByLayer
 10
15277.7010997428114933
 20
5690.0
 30
0.0
 11
14297.7010997428114933
 21
5690.0
 31
0.0
  0
LINE
  5
D3
100
AcDbEntity
100
AcDbLine
  8
Walls
 62
256
370
-1
  6
ByLayer
 10
13547.7010997428114933
 20
5690.0
 30
0.0
 11
13380.0
 21
5690.0262279672851946
 31
0.0
  0
LINE
  5
D4
100
AcDbEntity
100
AcDbLine
  8
Walls
 62
256
370
-1
  6
ByLayer
 10
15277.7010997428114933
 20
5590.0
 30
0.0
 11
14297.7010997428114933
 21
5590.0
 31
0.0
  0
LINE
  5
D5
100
AcDbEntity
100
AcDbLine
  8
Walls
 62
256
370
-1
  6
ByLayer
 10
13547.6854600320839381
 20
5590.0000012230029824
 30
0.0
 11
13379.9843602892724448
 21
5590.0262291902881771
 31
0.0
  0
LINE
  5
D6
100
AcDbEntity
100
AcDbLine
  8
Walls
 62
256
370
-1
  6
ByLayer
 10
15277.7010997428114933
 20
5460.0
 30
0.0
 11
15577.9065305285457725
 21
5460.0
 31
0.0
  0
LINE
  5
D7
100
AcDbEntity
100
AcDbLine
  8
Walls
 62
256
370
-1
  6
ByLayer
 10
15277.7010997428114933
 20
4590.0
 30
0.0
 11
15577.9065305285457725
 21
4590.0
 31
0.0
  0
LINE
  5
D8
100
AcDbEntity
100
AcDbLine
  8
Walls
 62
256
370
-1
  6
ByLayer
 10
13729.3344270349552971
 20
3130.0980675099667678
 30
0.0
 11
13380.0
 21
3130.0218269119040997
 31
0.0
  0
LINE
  5
D9
100
AcDbEntity
100
AcDbLine
  8
Walls
 62
256
370
-1
  6
ByLayer
 10
15279.2470538025445421
 20
4400.0980698915172979
 30
0.0
 11
13380.0
 21
4400.0980698915172979
 31
0.0
  0
LINE
  5
DA
100
AcDbEntity
100
AcDbLine
  8
Walls
 62
256
370
-1
  6
ByLayer
 10
13380.0
 20
3130.0218269119040997
 30
0.0
 11
13380.0
 21
4300.0980698915172979
 31
0.0
  0
LINE
  5
DB
100
AcDbEntity
100
AcDbLine
  8
Walls
 62
256
370
-1
  6
ByLayer
 10
15279.2470538025445421
 20
4300.0980698915172979
 30
0.0
 11
13380.0
 21
4300.0980698915172979
 31
0.0
  0
LINE
  5
DC
100
AcDbEntity
100
AcDbLine
  8
Walls
 62
256
370
-1
  6
ByLayer
 10
13380.0
 20
4400.0980698915172979
 30
0.0
 11
13380.0
 21
5590.0262267442831217
 31
0.0
  0
LINE
  5
DD
100
AcDbEntity
100
AcDbLine
  8
Walls
 62
256
370
-1
  6
ByLayer
 10
13380.0
 20
5690.0262279672851946
 30
0.0
 11
13380.0
 21
5810.0
 31
0.0
  0
LINE
  5
DE
100
AcDbEntity
100
AcDbLine
  8
Walls
 62
256
370
-1
  6
ByLayer
 10
13280.0
 20
5810.0
 30
0.0
 11
13380.0
 21
5810.0
 31
0.0
  0
LINE
  5
DF
100
AcDbEntity
100
AcDbLine
  8
Walls
 62
256
370
-1
  6
ByLayer
 10
13547.7010997428114933
 20
5690.0
 30
0.0
 11
13547.6854600320839381
 21
5590.0000012230029824
 31
0.0
  0
LINE
  5
E0
100
AcDbEntity
100
AcDbLine
  8
Walls
 62
256
370
-1
  6
ByLayer
 10
14297.7010997428114933
 20
5690.0
 30
0.0
 11
14297.7010997428114933
 21
5590.0
 31
0.0
  0
LINE
  5
E1
100
AcDbEntity
100
AcDbLine
  8
Walls
 62
256
370
-1
  6
ByLayer
 10
13280.0
 20
6560.0
 30
0.0
 11
13380.0
 21
6560.0
 31
0.0
  0
LINE
  5
E2
100
AcDbEntity
100
AcDbLine
  8
Walls
 62
256
370
-1
  6
ByLayer
 10
13380.0
 20
6710.0
 30
0.0
 11
15277.1962531539247721
 21
6710.0
 31
0.0
  0
LINE
  5
E3
100
AcDbEntity
100
AcDbLine
  8
Walls
 62
256
370
-1
  6
ByLayer
 10
13380.0
 20
6560.0
 30
0.0
 11
13380.0
 21
6710.0
 31
0.0
  0
LINE
  5
E4
100
AcDbEntity
100
AcDbLine
  8
Walls
 62
256
370
-1
  6
ByLayer
 10
13280.0
 20
6560.0
 30
0.0
 11
13280.0
 21
6810.0
 31
0.0
  0
LINE
  5
E5
100
AcDbEntity
100
AcDbLine
  8
Walls
 62
256
370
-1
  6
ByLayer
 10
13280.0
 20
6810.0
 30
0.0
 11
15277.1962531539247721
 21
6810.0
 31
0.0
  0
LINE
  5
E6
100
AcDbEntity
100
AcDbLine
  8
Walls
 62
256
370
-1
  6
ByLayer
 10
13380.0
 20
7500.0
 30
0.0
 11
13880.0
 21
7500.0
 31
0.0
  0
LINE
  5
E7
100
AcDbEntity
100
AcDbLine
  8
Walls
 62
256
370
-1
  6
ByLayer
 10
13880.0
 20
7500.0
 30
0.0
 11
13880.0
 21
7600.0
 31
0.0
  0
LINE
  5
E8
100
AcDbEntity
100
AcDbLine
  8
Walls
 62
256
370
-1
  6
ByLayer
 10
9690.0
 20
7710.0
 30
0.0
 11
4680.0
 21
7710.0
 31
0.0
  0
LINE
  5
E9
100
AcDbEntity
100
AcDbLine
  8
Walls
 62
256
370
-1
  6
ByLayer
 10
15276.6688188424268446
 20
7616.129948928709382
 30
0.0
 11
13880.0
 21
7600.0
 31
0.0
  0
LINE
  5
EA
100
AcDbEntity
100
AcDbLine
  8
Walls
 62
256
370
-1
  6
ByLayer
 10
13380.0
 20
6560.0
 30
0.0
 11
14130.0
 21
6560.0
 31
0.0
  0
ARC
  5
EB
100
AcDbEntity
  8
Walls
 62
256
370
-1
  6
ByLayer
100
AcDbCircle
 10
13380.0
 20
6560.0
 30
0.0
 40
750.0
100
AcDbArc
 50
270.0
 51
0.0
  0
LINE
  5
EC
100
AcDbEntity
100
AcDbLine
  8
Walls
 62
256
370
-1
  6
ByLayer
 10
13547.6854600320839381
 20
5590.0000012230029824
 30
0.0
 11
13547.6854600320839381
 21
4840.0000012230029824
 31
0.0
  0
ARC
  5
ED
100
AcDbEntity
  8
Walls
 62
256
370
-1
  6
ByLayer
100
AcDbCircle
 10
13547.6854600320839381
 20
5590.0000012230029824
 30
0.0
 40
750.0
100
AcDbArc
 50
270.0
 51
360.0
  0
LINE
  5
EE
100
AcDbEntity
100
AcDbLine
  8
Walls
 62
256
370
-1
  6
ByLayer
 10
13380.0
 20
2280.0
 30
0.0
 11
14130.0
 21
2280.0
 31
0.0
  0
LINE
  5
EF
100
AcDbEntity
100
AcDbLine
  8
Walls
 62
256
370
-1
  6
ByLayer
 10
13729.3344270349552971
 20
3130.0980675099667678
 30
0.0
 11
13729.3344270349552971
 21
3880.0980675099667678
 31
0.0
  0
ARC
  5
F0
100
AcDbEntity
  8
Walls
 62
256
370
-1
  6
ByLayer
100
AcDbCircle
 10
13729.3344270349552971
 20
3130.0980675099667678
 30
0.0
 40
750.0
100
AcDbArc
 50
0.0
 51
90.0
  0
ARC
  5
F1
100
AcDbEntity
  8
Walls
 62
256
370
-1
  6
ByLayer
100
AcDbCircle
 10
13380.0
 20
2280.0
 30
0.0
 40
750.0
100
AcDbArc
 50
0.0
 51
88.4088597288054245
  0
LINE
  5
F2
100
AcDbEntity
100
AcDbLine
  8
Walls
 62
256
370
-1
  6
ByLayer
 10
14550.0
 20
1590.0
 30
0.0
 11
15450.0
 21
1590.0
 31
0.0
  0
LINE
  5
F3
100
AcDbEntity
100
AcDbLine
  8
Walls
 62
256
370
-1
  6
ByLayer
 10
14550.0
 20
199.9999999999999716
 30
0.0
 11
15050.0
 21
199.9999999999999716
 31
0.0
  0
ARC
  5
F4
100
AcDbEntity
  8
Walls
 62
256
370
-1
  6
ByLayer
100
AcDbCircle
 10
14550.0
 20
1590.0
 30
0.0
 40
900.0
100
AcDbArc
 50
269.8346174571748293
 51
0.1009430635144023
  0
ARC
  5
F5
100
AcDbEntity
  8
Walls
 62
256
370
-1
  6
ByLayer
100
AcDbCircle
 10
14550.0
 20
199.9999999999999432
 30
0.0
 40
500.0
100
AcDbArc
 50
0.0
 51
90.3037582621896178
  0
LINE
  5
F6
100
AcDbEntity
100
AcDbLine
  8
Walls
 62
256
370
-1
  6
ByLayer
 10
-1150.0
 20
6490.0
 30
0.0
 11
-1980.0
 21
6490.0
 31
0.0
  0
ARC
  5
F7
100
AcDbEntity
  8
Walls
 62
256
370
-1
  6
ByLayer
100
AcDbCircle
 10
-1150.0
 20
6490.0
 30
0.0
 40
830.0
100
AcDbArc
 50
90.0
 51
180.0
  0
LINE
  5
F8
100
AcDbEntity
100
AcDbLine
  8
Walls
 62
256
370
-1
  6
ByLayer
 10
-850.0
 20
3570.0
 30
0.0
 11
6310.0
 21
3570.0
 31
0.0
  0
LINE
  5
F9
100
AcDbEntity
100
AcDbLine
  8
Walls
 62
256
370
-1
  6
ByLayer
 10
6310.0
 20
3570.0
 30
0.0
 11
6310.0
 21
2370.0
 31
0.0
  0
LINE
  5
FA
100
AcDbEntity
100
AcDbLine
  8
Walls
 62
256
370
-1
  6
ByLayer
 10
6310.0
 20
880.0
 30
0.0
 11
6309.7104430205135941
 21
0.0
 31
0.0
  0
LINE
  5
FB
100
AcDbEntity
100
AcDbLine
  8
Walls
 62
256
370
-1
  6
ByLayer
 10
6410.0
 20
3570.0
 30
0.0
 11
6410.0
 21
2370.0
 31
0.0
  0
LINE
  5
FC
100
AcDbEntity
100
AcDbLine
  8
Walls
 62
256
370
-1
  6
ByLayer
 10
6409.9999945865674817
 20
879.9670957995668914
 30
0.0
 11
6409.7104376070810758
 21
-0.0329042004331599
 31
0.0
  0
LINE
  5
FD
100
AcDbEntity
100
AcDbLine
  8
Walls
 62
256
370
-1
  6
ByLayer
 10
6310.0
 20
2370.0
 30
0.0
 11
6410.0
 21
2370.0
 31
0.0
  0
LINE
  5
FE
100
AcDbEntity
100
AcDbLine
  8
Walls
 62
256
370
-1
  6
ByLayer
 10
6310.0
 20
880.0
 30
0.0
 11
6409.9999945865674817
 21
879.9670957995668914
 31
0.0
  0
LINE
  5
FF
100
AcDbEntity
100
AcDbLine
  8
Walls
 62
256
370
-1
  6
ByLayer
 10
6410.0
 20
3570.0
 30
0.0
 11
6910.0
 21
3570.0
 31
0.0
  0
LINE
  5
100
100
AcDbEntity
100
AcDbLine
  8
Walls
 62
256
370
-1
  6
ByLayer
 10
6910.0
 20
3570.0
 30
0.0
 11
8040.0
 21
3570.0
 31
0.0
  0
LINE
  5
101
100
AcDbEntity
100
AcDbLine
  8
Walls
 62
256
370
-1
  6
ByLayer
 10
8040.0
 20
3570.0
 30
0.0
 11
8700.0
 21
3570.0
 31
0.0
  0
LINE
  5
102
100
AcDbEntity
100
AcDbLine
  8
Walls
 62
256
370
-1
  6
ByLayer
 10
8700.0
 20
3570.0
 30
0.0
 11
8700.0
 21
3674.3585951630298041
 31
0.0
  0
LINE
  5
103
100
AcDbEntity
100
AcDbLine
  8
Walls
 62
256
370
-1
  6
ByLayer
 10
10650.0
 20
3570.0
 30
0.0
 11
13280.0
 21
3570.0
 31
0.0
  0
LINE
  5
104
100
AcDbEntity
100
AcDbLine
  8
Walls
 62
256
370
-1
  6
ByLayer
 10
10650.0
 20
3670.0
 30
0.0
 11
13280.0
 21
3670.0
 31
0.0
  0
LINE
  5
105
100
AcDbEntity
100
AcDbLine
  8
Walls
 62
256
370
-1
  6
ByLayer
 10
10650.0
 20
3570.0
 30
0.0
 11
10650.0
 21
3670.0
 31
0.0
  0
LINE
  5
106
100
AcDbEntity
100
AcDbLine
  8
Walls
 62
256
370
-1
  6
ByLayer
 10
1740.0
 20
7450.0
 30
0.0
 11
1840.0
 21
7450.0
 31
0.0
  0
LINE
  5
107
100
AcDbEntity
100
AcDbLine
  8
Walls
 62
256
370
-1
  6
ByLayer
 10
1739.9999999999997726
 20
6700.0
 30
0.0
 11
1839.9999999999997726
 21
6700.0
 31
0.0
  0
LINE
  5
108
100
AcDbEntity
100
AcDbLine
  8
Walls
 62
256
370
-1
  6
ByLayer
 10
1740.0
 20
7450.0
 30
0.0
 11
1740.0
 21
7610.0
 31
0.0
  0
LINE
  5
109
100
AcDbEntity
100
AcDbLine
  8
Walls
 62
256
370
-1
  6
ByLayer
 10
1840.0
 20
7450.0
 30
0.0
 11
1840.0
 21
7610.0
 31
0.0
  0
LINE
  5
10A
100
AcDbEntity
100
AcDbLine
  8
Walls
 62
256
370
-1
  6
ByLayer
 10
1840.0
 20
3670.0
 30
0.0
 11
1840.0
 21
6700.0
 31
0.0
  0
LINE
  5
10B
100
AcDbEntity
100
AcDbLine
  8
Walls
 62
256
370
-1
  6
ByLayer
 10
1740.0
 20
3670.0
 30
0.0
 11
1740.0
 21
6700.0
 31
0.0
  0
LINE
  5
10C
100
AcDbEntity
100
AcDbLine
  8
Walls
 62
256
370
-1
  6
ByLayer
 10
1840.0
 20
3671.2277090040365692
 30
0.0
 11
8700.0
 21
3674.3585951630298041
 31
0.0
  0
LINE
  5
10D
100
AcDbEntity
100
AcDbLine
  8
Walls
 62
256
370
-1
  6
ByLayer
 10
-850.0
 20
3670.0
 30
0.0
 11
1740.0
 21
3671.1820692641094865
 31
0.0
  0
LINE
  5
10E
100
AcDbEntity
100
AcDbLine
  8
Walls
 62
256
370
-1
  6
ByLayer
 10
6910.0
 20
3570.0
 30
0.0
 11
6910.0
 21
3673.5418297399360199
 31
0.0
  0
LINE
  5
10F
100
AcDbEntity
100
AcDbLine
  8
Walls
 62
256
370
-1
  6
ByLayer
 10
8040.0
 20
3569.9999999999995453
 30
0.0
 11
8040.0
 21
3673.5418297399355652
 31
0.0
  0
LINE
  5
110
100
AcDbEntity
100
AcDbLine
  8
Walls
 62
256
370
-1
  6
ByLayer
 10
6230.0
 20
3570.0
 30
0.0
 11
6230.0
 21
3673.2379206444343254
 31
0.0
  0
LINE
  5
111
100
AcDbEntity
100
AcDbLine
  8
Walls
 62
256
370
-1
  6
ByLayer
 10
5100.0
 20
3570.0
 30
0.0
 11
5100.0
 21
3673.2379206444343254
 31
0.0
  0
LINE
  5
112
100
AcDbEntity
100
AcDbLine
  8
Walls
 62
256
370
-1
  6
ByLayer
 10
4420.0
 20
3570.0
 30
0.0
 11
4420.0
 21
3672.4058743270866216
 31
0.0
  0
LINE
  5
113
100
AcDbEntity
100
AcDbLine
  8
Walls
 62
256
370
-1
  6
ByLayer
 10
3290.0
 20
3570.0
 30
0.0
 11
3290.0
 21
3672.4058743270866216
 31
0.0
  0
LINE
  5
114
100
AcDbEntity
100
AcDbLine
  8
Walls
 62
256
370
-1
  6
ByLayer
 10
1840.0
 20
4610.0
 30
0.0
 11
1740.0
 21
4610.0
 31
0.0
  0
LINE
  5
115
100
AcDbEntity
100
AcDbLine
  8
Walls
 62
256
370
-1
  6
ByLayer
 10
1840.0000000000004547
 20
5740.0
 30
0.0
 11
1740.0000000000004547
 21
5740.0
 31
0.0
  0
LINE
  5
116
100
AcDbEntity
100
AcDbLine
  8
Walls
 62
256
370
-1
  6
ByLayer
 10
-850.0
 20
4770.0
 30
0.0
 11
-1150.0
 21
4770.0
 31
0.0
  0
LINE
  5
117
100
AcDbEntity
100
AcDbLine
  8
Walls
 62
256
370
-1
  6
ByLayer
 10
-850.0
 20
3900.0
 30
0.0
 11
-1150.0
 21
3900.0
 31
0.0
  0
LINE
  5
118
100
AcDbEntity
100
AcDbLine
  8
Walls
 62
256
370
-1
  6
ByLayer
 10
-850.0
 20
5990.0
 30
0.0
 11
-1150.0
 21
5990.0
 31
0.0
  0
LINE
  5
119
100
AcDbEntity
100
AcDbLine
  8
Walls
 62
256
370
-1
  6
ByLayer
 10
-1150.0
 20
6490.0
 30
0.0
 11
-1150.0
 21
5990.0
 31
0.0
  0
LINE
  5
11A
100
AcDbEntity
100
AcDbLine
  8
Walls
 62
256
370
-1
  6
ByLayer
 10
-1150.0
 20
5990.0
 30
0.0
 11
-1150.0
 21
5120.4551709818097152
 31
0.0
  0
LINE
  5
11B
100
AcDbEntity
100
AcDbLine
  8
Walls
 62
256
370
-1
  6
ByLayer
 10
-1150.0
 20
5120.4551709818097152
 30
0.0
 11
-1150.0
 21
4770.0
 31
0.0
  0
LINE
  5
11C
100
AcDbEntity
100
AcDbLine
  8
Walls
 62
256
370
-1
  6
ByLayer
 10
-1150.0
 20
4770.0
 30
0.0
 11
-1150.0
 21
3900.0
 31
0.0
  0
LINE
  5
11D
100
AcDbEntity
100
AcDbLine
  8
Walls
 62
256
370
-1
  6
ByLayer
 10
-1150.0
 20
3900.0
 30
0.0
 11
-1150.0
 21
3552.713678800650996
 31
0.0
  0
LINE
  5
11E
100
AcDbEntity
100
AcDbLine
  8
Walls
 62
256
370
-1
  6
ByLayer
 10
-1150.0
 20
3552.713678800650996
 30
0.0
 11
-1150.0
 21
2683.373168110955703
 31
0.0
  0
LINE
  5
11F
100
AcDbEntity
100
AcDbLine
  8
Walls
 62
256
370
-1
  6
ByLayer
 10
-1150.0
 20
2683.373168110955703
 30
0.0
 11
-1150.0
 21
2331.944415345879861
 31
0.0
  0
LINE
  5
120
100
AcDbEntity
100
AcDbLine
  8
Walls
 62
256
370
-1
  6
ByLayer
 10
-1150.0
 20
2331.944415345879861
 30
0.0
 11
-1150.0
 21
1462.4674804509249952
 31
0.0
  0
LINE
  5
121
100
AcDbEntity
100
AcDbLine
  8
Walls
 62
256
370
-1
  6
ByLayer
 10
-850.0
 20
2330.0
 30
0.0
 11
-850.0
 21
1460.0
 31
0.0
  0
LINE
  5
122
100
AcDbEntity
100
AcDbLine
  8
Walls
 62
256
370
-1
  6
ByLayer
 10
-1150.0
 20
1110.0
 30
0.0
 11
-850.0
 21
1110.0
 31
0.0
  0
LINE
  5
123
100
AcDbEntity
100
AcDbLine
  8
Walls
 62
256
370
-1
  6
ByLayer
 10
-850.0
 20
1460.0
 30
0.0
 11
-850.0
 21
1110.0
 31
0.0
  0
LINE
  5
124
100
AcDbEntity
100
AcDbLine
  8
Walls
 62
256
370
-1
  6
ByLayer
 10
-1150.0
 20
1460.0
 30
0.0
 11
-850.0
 21
1460.0
 31
0.0
  0
LINE
  5
125
100
AcDbEntity
100
AcDbLine
  8
Walls
 62
256
370
-1
  6
ByLayer
 10
-1150.0
 20
1460.0
 30
0.0
 11
-1150.0
 21
1110.0
 31
0.0
  0
LINE
  5
126
100
AcDbEntity
100
AcDbLine
  8
Walls
 62
256
370
-1
  6
ByLayer
 10
-1150.0
 20
240.0
 30
0.0
 11
-850.0
 21
240.0
 31
0.0
  0
LINE
  5
127
100
AcDbEntity
100
AcDbLine
  8
Walls
 62
256
370
-1
  6
ByLayer
 10
-850.0
 20
240.0
 30
0.0
 11
-850.0
 21
155.0
 31
0.0
  0
LINE
  5
128
100
AcDbEntity
100
AcDbLine
  8
Walls
 62
256
370
-1
  6
ByLayer
 10
-850.0
 20
240.0
 30
0.0
 11
-1150.0
 21
240.0
 31
0.0
  0
LINE
  5
129
100
AcDbEntity
100
AcDbLine
  8
Walls
 62
256
370
-1
  6
ByLayer
 10
-850.0
 20
155.0
 30
0.0
 11
-350.0
 21
155.0
 31
0.0
  0
LINE
  5
12A
100
AcDbEntity
100
AcDbLine
  8
Walls
 62
256
370
-1
  6
ByLayer
 10
-350.0
 20
155.0
 30
0.0
 11
-351.5742719173479145
 21
0.0
 31
0.0
  0
LINE
  5
12B
100
AcDbEntity
100
AcDbLine
  8
Walls
 62
256
370
-1
  6
ByLayer
 10
-1150.0
 20
240.0
 30
0.0
 11
-1150.0
 21
-100.0
 31
0.0
  0
LINE
  5
12C
100
AcDbEntity
100
AcDbLine
  8
Walls
 62
256
370
-1
  6
ByLayer
 10
-351.5742719173479145
 20
0.0
 30
0.0
 11
4100.0
 21
0.0
 31
0.0
  0
LINE
  5
12D
100
AcDbEntity
100
AcDbLine
  8
Walls
 62
256
370
-1
  6
ByLayer
 10
4100.0
 20
0.0
 30
0.0
 11
4100.0
 21
110.0
 31
0.0
  0
LINE
  5
12E
100
AcDbEntity
100
AcDbLine
  8
Walls
 62
256
370
-1
  6
ByLayer
 10
4100.0
 20
110.0
 30
0.0
 11
4690.0
 21
110.0
 31
0.0
  0
LINE
  5
12F
100
AcDbEntity
100
AcDbLine
  8
Walls
 62
256
370
-1
  6
ByLayer
 10
4690.0
 20
0.0
 30
0.0
 11
5490.0
 21
0.0
 31
0.0
  0
LINE
  5
130
100
AcDbEntity
100
AcDbLine
  8
Walls
 62
256
370
-1
  6
ByLayer
 10
4690.0
 20
110.0
 30
0.0
 11
4690.0
 21
0.0
 31
0.0
  0
LINE
  5
131
100
AcDbEntity
100
AcDbLine
  8
Walls
 62
256
370
-1
  6
ByLayer
 10
7280.0
 20
0.0
 30
0.0
 11
9015.0
 21
0.0
 31
0.0
  0
LINE
  5
132
100
AcDbEntity
100
AcDbLine
  8
Walls
 62
256
370
-1
  6
ByLayer
 10
9015.0
 20
0.0
 30
0.0
 11
9015.0
 21
115.0
 31
0.0
  0
LINE
  5
133
100
AcDbEntity
100
AcDbLine
  8
Walls
 62
256
370
-1
  6
ByLayer
 10
9015.0
 20
115.0
 30
0.0
 11
9610.0
 21
115.0
 31
0.0
  0
LINE
  5
134
100
AcDbEntity
100
AcDbLine
  8
Walls
 62
256
370
-1
  6
ByLayer
 10
9610.0
 20
115.0
 30
0.0
 11
9610.0
 21
0.0
 31
0.0
  0
LINE
  5
135
100
AcDbEntity
100
AcDbLine
  8
Walls
 62
256
370
-1
  6
ByLayer
 10
9610.0
 20
0.0
 30
0.0
 11
12450.0
 21
0.0
 31
0.0
  0
LINE
  5
136
100
AcDbEntity
100
AcDbLine
  8
Walls
 62
256
370
-1
  6
ByLayer
 10
12450.0
 20
0.0
 30
0.0
 11
12450.0
 21
500.0
 31
0.0
  0
LINE
  5
137
100
AcDbEntity
100
AcDbLine
  8
Walls
 62
256
370
-1
  6
ByLayer
 10
12450.0
 20
500.0
 30
0.0
 11
13450.0
 21
500.0
 31
0.0
  0
LINE
  5
138
100
AcDbEntity
100
AcDbLine
  8
Walls
 62
256
370
-1
  6
ByLayer
 10
13450.0
 20
500.0
 30
0.0
 11
13450.0
 21
220.0
 31
0.0
  0
LINE
  5
139
100
AcDbEntity
100
AcDbLine
  8
Walls
 62
256
370
-1
  6
ByLayer
 10
13450.0
 20
220.0
 30
0.0
 11
14000.0
 21
220.0
 31
0.0
  0
LINE
  5
13A
100
AcDbEntity
100
AcDbLine
  8
Walls
 62
256
370
-1
  6
ByLayer
 10
14000.0
 20
0.0
 30
0.0
 11
14450.0
 21
0.0
 31
0.0
  0
LINE
  5
13B
100
AcDbEntity
100
AcDbLine
  8
Walls
 62
256
370
-1
  6
ByLayer
 10
14000.0
 20
220.0
 30
0.0
 11
14000.0
 21
0.0
 31
0.0
  0
LINE
  5
13C
100
AcDbEntity
100
AcDbLine
  8
Walls
 62
256
370
-1
  6
ByLayer
 10
14450.0
 20
0.0
 30
0.0
 11
14450.0
 21
200.0
 31
0.0
  0
LINE
  5
13D
100
AcDbEntity
100
AcDbLine
  8
Walls
 62
256
370
-1
  6
ByLayer
 10
14450.0
 20
200.0
 30
0.0
 11
14550.0
 21
199.9999999999999716
 31
0.0
  0
LINE
  5
13E
100
AcDbEntity
100
AcDbLine
  8
Walls
 62
256
370
-1
  6
ByLayer
 10
14549.999999999998181
 20
-100.0
 30
0.0
 11
14550.0
 21
199.9999999999999716
 31
0.0
  0
LINE
  5
13F
100
AcDbEntity
100
AcDbLine
  8
Walls
 62
256
370
-1
  6
ByLayer
 10
-1150.0
 20
-100.0
 30
0.0
 11
14549.999999999998181
 21
-100.0
 31
0.0
  0
INSERT
  5
140
100
AcDbEntity
100
AcDbBlockReference
  8
Bathrooms
 62
256
370
-1
  6
ByLayer
  2
wc_ll-1
 10
15278.1717643828378641
 20
5001.0612251574284528
 30
0.0
 41
10.0
 42
10.0
 43
1.0
 50
90.0
  0
INSERT
  5
141
100
AcDbEntity
100
AcDbBlockReference
  8
0
 62
256
370
-1
  6
ByLayer
  2
wc_ll-1
 10
15277.9392196028038597
 20
3697.6266149924845195
 30
0.0
 41
10.0
 42
10.0
 43
1.0
 50
90.0
  0
INSERT
  5
142
100
AcDbEntity
100
AcDbBlockReference
  8
Bathrooms
 62
256
370
-1
  6
ByLayer
  2
wb46x26-0
 10
15277.4283052877872251
 20
6294.6520936176766554
 30
0.0
 50
90.0
  0
LINE
  5
143
100
AcDbEntity
100
AcDbLine
  8
Walls
 62
256
370
-1
  6
ByLayer
 10
15279.9425274935692869
 20
1843.1569598231362761
 30
0.0
 11
15276.6688188424268446
 21
7539.2869087518456581
 31
0.0
  0
INSERT
  5
144
100
AcDbEntity
100
AcDbBlockReference
  8
0
 62
256
370
-1
  6
ByLayer
  2
wb46x26-0
 10
15279.4630689444711606
 20
2493.1297479608138019
 30
0.0
 50
90.0
  0
LINE
  5
145
100
AcDbEntity
100
AcDbLine
  8
Kitchen
 62
256
370
-1
  6
ByLayer
 10
13280.0
 20
4220.0
 30
0.0
 11
12680.0
 21
4220.0
 31
0.0
  0
LINE
  5
146
100
AcDbEntity
100
AcDbLine
  8
Kitchen
 62
256
370
-1
  6
ByLayer
 10
12680.0
 20
4220.0
 30
0.0
 11
12680.0
 21
5220.0
 31
0.0
  0
LINE
  5
147
100
AcDbEntity
100
AcDbLine
  8
Kitchen
 62
256
370
-1
  6
ByLayer
 10
12680.0
 20
5220.0
 30
0.0
 11
13280.0
 21
5220.0
 31
0.0
  0
INSERT
  5
148
100
AcDbEntity
100
AcDbBlockReference
  8
Desks
 62
256
370
-1
  6
ByLayer
  2
Desk
 10
7100.0
 20
3700.0
 30
0.0
 44
1.0
 45
1.0
  0
INSERT
  5
149
100
AcDbEntity
100
AcDbBlockReference
  8
Desks
 62
256
370
-1
  6
ByLayer
  2
Desk
 10
6273.5679433064551631
 20
3700.5324819320467213
 30
0.0
 44
1.0
 45
1.0
  0
INSERT
  5
14A
100
AcDbEntity
100
AcDbBlockReference
  8
Desks
 62
256
370
-1
  6
ByLayer
  2
Desk
 10
4000.0
 20
6800.0
 30
0.0
 50
90.0
 44
1.0
 45
1.0
  0
INSERT
  5
14B
100
AcDbEntity
100
AcDbBlockReference
  8
Desks
 62
256
370
-1
  6
ByLayer
  2
Desk
 10
8737.7533682138418953
 20
6789.3838777821611075
 30
0.0
 50
90.0
 44
1.0
 45
1.0
  0
CIRCLE
  5
14C
100
AcDbEntity
100
AcDbCircle
  8
Pipes
 62
256
370
-1
  6
ByLayer
 10
9047.1732985491416912
 20
7389.5115638952838708
 30
0.0
 40
60.0
  0
CIRCLE
  5
14D
100
AcDbEntity
100
AcDbCircle
  8
Pipes
 62
256
370
-1
  6
ByLayer
 10
8890.0
 20
7390.0
 30
0.0
 40
60.0
  0
CIRCLE
  5
14E
100
AcDbEntity
100
AcDbCircle
  8
Pipes
 62
256
370
-1
  6
ByLayer
 10
4300.0
 20
200.0
 30
0.0
 40
60.0
  0
CIRCLE
  5
14F
100
AcDbEntity
100
AcDbCircle
  8
Pipes
 62
256
370
-1
  6
ByLayer
 10
4100.0
 20
200.0
 30
0.0
 40
60.0
  0
LINE
  5
150
100
AcDbEntity
100
AcDbLine
  8
Desks
 62
256
370
-1
  6
ByLayer
 10
4000.0
 20
3500.0
 30
0.0
 11
5220.0
 21
3500.0
 31
0.0
  0
LINE
  5
151
100
AcDbEntity
100
AcDbLine
  8
Desks
 62
256
370
-1
  6
ByLayer
 10
5220.0
 20
3500.0
 30
0.0
 11
5220.0
 21
2890.0
 31
0.0
  0
LINE
  5
152
100
AcDbEntity
100
AcDbLine
  8
Desks
 62
256
370
-1
  6
ByLayer
 10
5220.0
 20
2890.0
 30
0.0
 11
4000.0
 21
2890.0
 31
0.0
  0
LINE
  5
153
100
AcDbEntity
100
AcDbLine
  8
Desks
 62
256
370
-1
  6
ByLayer
 10
4000.0
 20
2890.0
 30
0.0
 11
4000.0
 21
3500.0
 31
0.0
  0
LINE
  5
154
100
AcDbEntity
100
AcDbLine
  8
Desks
 62
256
370
-1
  6
ByLayer
 10
0.0
 20
3500.0
 30
0.0
 11
2260.0
 21
3500.0
 31
0.0
  0
LINE
  5
155
100
AcDbEntity
100
AcDbLine
  8
Desks
 62
256
370
-1
  6
ByLayer
 10
2260.0
 20
3500.0
 30
0.0
 11
2260.0
 21
2880.0
 31
0.0
  0
LINE
  5
156
100
AcDbEntity
100
AcDbLine
  8
Desks
 62
256
370
-1
  6
ByLayer
 10
2260.0
 20
2880.0
 30
0.0
 11
0.0
 21
2880.0
 31
0.0
  0
LINE
  5
157
100
AcDbEntity
100
AcDbLine
  8
Desks
 62
256
370
-1
  6
ByLayer
 10
0.0
 20
2880.0
 30
0.0
 11
0.0
 21
3500.0
 31
0.0
  0
LINE
  5
158
100
AcDbEntity
100
AcDbLine
  8
Desks
 62
256
370
-1
  6
ByLayer
 10
-800.0
 20
2600.0
 30
0.0
 11
-400.0
 21
2600.0
 31
0.0
  0
LINE
  5
159
100
AcDbEntity
100
AcDbLine
  8
Desks
 62
256
370
-1
  6
ByLayer
 10
-400.0
 20
2600.0
 30
0.0
 11
-400.0
 21
1420.0
 31
0.0
  0
LINE
  5
15A
100
AcDbEntity
100
AcDbLine
  8
Desks
 62
256
370
-1
  6
ByLayer
 10
-400.0
 20
1420.0
 30
0.0
 11
-800.0
 21
1420.0
 31
0.0
  0
LINE
  5
15B
100
AcDbEntity
100
AcDbLine
  8
Desks
 62
256
370
-1
  6
ByLayer
 10
-800.0
 20
1420.0
 30
0.0
 11
-800.0
 21
2600.0
 31
0.0
  0
LINE
  5
15C
100
AcDbEntity
100
AcDbLine
  8
Desks
 62
256
370
-1
  6
ByLayer
 10
6200.0
 20
500.0
 30
0.0
 11
6200.0
 21
20.0
 31
0.0
  0
LINE
  5
15D
100
AcDbEntity
100
AcDbLine
  8
Desks
 62
256
370
-1
  6
ByLayer
 10
6200.0
 20
20.0
 30
0.0
 11
5560.0
 21
20.0
 31
0.0
  0
LINE
  5
15E
100
AcDbEntity
100
AcDbLine
  8
Desks
 62
256
370
-1
  6
ByLayer
 10
5560.0
 20
20.0
 30
0.0
 11
5560.0
 21
500.0
 31
0.0
  0
LINE
  5
15F
100
AcDbEntity
100
AcDbLine
  8
Desks
 62
256
370
-1
  6
ByLayer
 10
5560.0
 20
500.0
 30
0.0
 11
6200.0
 21
500.0
 31
0.0
  0
INSERT
  5
160
100
AcDbEntity
100
AcDbBlockReference
  8
Desks
 62
256
370
-1
  6
ByLayer
  2
Desk
 10
4500.0
 20
3700.0
 30
0.0
 44
1.0
 45
1.0
  0
INSERT
  5
161
100
AcDbEntity
100
AcDbBlockReference
  8
Desks
 62
256
370
-1
  6
ByLayer
  2
Desk
 10
3700.0
 20
3700.0
 30
0.0
 44
1.0
 45
1.0
  0
LINE
  5
162
100
AcDbEntity
100
AcDbLine
  8
Desks
 62
256
370
-1
  6
ByLayer
 10
6767.9858133880507012
 20
3510.4614977709252344
 30
0.0
 11
7867.9858133880507012
 21
3510.4614977709252344
 31
0.0
  0
LINE
  5
163
100
AcDbEntity
100
AcDbLine
  8
Desks
 62
256
370
-1
  6
ByLayer
 10
7867.9858133880507012
 20
3510.4614977709252344
 30
0.0
 11
7867.9858133880507012
 21
2410.4614977709252344
 31
0.0
  0
LINE
  5
164
100
AcDbEntity
100
AcDbLine
  8
Desks
 62
256
370
-1
  6
ByLayer
 10
7867.9858133880507012
 20
2410.4614977709252344
 30
0.0
 11
6767.9858133880507012
 21
2410.4614977709252344
 31
0.0
  0
LINE
  5
165
100
AcDbEntity
100
AcDbLine
  8
Desks
 62
256
370
-1
  6
ByLayer
 10
6767.9858133880507012
 20
2410.4614977709252344
 30
0.0
 11
6767.9858133880507012
 21
3510.4614977709252344
 31
0.0
  0
ENDSEC
  0
SECTION
  2
OBJECTS
  0
DICTIONARY
  5
C
100
AcDbDictionary
280
0
281
1
  3
ACAD_GROUP
350
D
  3
ACAD_LAYOUT
350
1A
  3
ACAD_MLINESTYLE
350
17
  3
ACAD_PLOTSETTINGS
350
19
  3
ACAD_PLOTSTYLENAME
350
E
  3
AcDbVariableDictionary
350
166
  0
DICTIONARY
  5
D
100
AcDbDictionary
280
0
281
1
  0
ACDBDICTIONARYWDFLT
  5
E
100
AcDbDictionary
281
1
  3
Normal
350
F
100
AcDbDictionaryWithDefault
340
F
  0
ACDBPLACEHOLDER
  5
F
  0
DICTIONARY
  5
17
100
AcDbDictionary
280
0
281
1
  3
Standard
350
18
  0
MLINESTYLE
  5
18
100
AcDbMlineStyle
  2
STANDARD
 70
0
  3

 62
256
 51
90.0
 52
90.0
 71
2
 49
0.5
 62
256
  6
BYLAYER
 49
-0.5
 62
256
  6
BYLAYER
  0
DICTIONARY
  5
19
100
AcDbDictionary
280
0
281
1
  0
DICTIONARY
  5
1A
100
AcDbDictionary
281
1
  3
Layout1
350
1E
  3
Layout2
350
26
  3
Model
350
22
  0
LAYOUT
  5
1E
100
AcDbPlotSettings
  1

  2
C:\Program Files\AutoCAD 2002\plotters\DWF ePlot (optimized for plotting).pc3
  4

  6

 40
0.0
 41
0.0
 42
0.0
 43
0.0
 44
0.0
 45
0.0
 46
0.0
 47
0.0
 48
0.0
 49
0.0
140
0.0
141
0.0
142
1.0
143
1.0
 70
688
 72
0
 73
0
 74
5
  7

 75
16
147
1.0
148
0.0
149
0.0
100
AcDbLayout
  1
Layout1
 70
1
 71
1
 10
0.0
 20
0.0
 11
420.0
 21
297.0
 12
0.0
 22
0.0
 32
0.0
 14
100000000000000000000.0
 24
100000000000000000000.0
 34
100000000000000000000.0
 15
-100000000000000000000.0
 25
-100000000000000000000.0
 35
-100000000000000000000.0
146
0.0
 13
0.0
 23
0.0
 33
0.0
 16
1.0
 26
0.0
 36
0.0
 17
0.0
 27
1.0
 37
0.0
 76
0
330
1B
  0
LAYOUT
  5
22
100
AcDbPlotSettings
  1

  2
C:\Program Files\AutoCAD 2002\plotters\DWF ePlot (optimized for plotting).pc3
  4

  6

 40
0.0
 41
0.0
 42
0.0
 43
0.0
 44
0.0
 45
0.0
 46
0.0
 47
0.0
 48
0.0
 49
0.0
140
0.0
141
0.0
142
1.0
143
1.0
 70
1712
 72
0
 73
0
 74
0
  7

 75
0
147
1.0
148
0.0
149
0.0
100
AcDbLayout
  1
Model
 70
1
 71
0
 10
0.0
 20
0.0
 11
12.0
 21
9.0
 12
0.0
 22
0.0
 32
0.0
 14
0.0
 24
0.0
 34
0.0
 15
0.0
 25
0.0
 35
0.0
146
0.0
 13
0.0
 23
0.0
 33
0.0
 16
1.0
 26
0.0
 36
0.0
 17
0.0
 27
1.0
 37
0.0
 76
0
330
1F
  0
LAYOUT
  5
26
100
AcDbPlotSettings
  1

  2
C:\Program Files\AutoCAD 2002\plotters\DWF ePlot (optimized for plotting).pc3
  4

  6

 40
0.0
 41
0.0
 42
0.0
 43
0.0
 44
0.0
 45
0.0
 46
0.0
 47
0.0
 48
0.0
 49
0.0
140
0.0
141
0.0
142
1.0
143
1.0
 70
688
 72
0
 73
0
 74
5
  7

 75
16
147
1.0
148
0.0
149
0.0
100
AcDbLayout
  1
Layout2
 70
1
 71
2
 10
0.0
 20
0.0
 11
12.0
 21
9.0
 12
0.0
 22
0.0
 32
0.0
 14
0.0
 24
0.0
 34
0.0
 15
0.0
 25
0.0
 35
0.0
146
0.0
 13
0.0
 23
0.0
 33
0.0
 16
1.0
 26
0.0
 36
0.0
 17
0.0
 27
1.0
 37
0.0
 76
0
330
23
  0
DICTIONARY
  5
166
100
AcDbDictionary
281
1
  3
DIMASSOC
350
168
  3
HIDETEXT
350
167
  0
DICTIONARYVAR
  5
167
100
DictionaryVariables
280
0
  1
2
  0
DICTIONARYVAR
  5
168
100
DictionaryVariables
280
0
  1
1
  0
ENDSEC
  0
EOF
