<?xml version="1.0" encoding="UTF-8" standalone="no"?>
<!-- Created with Inkscape (http://www.inkscape.org/) -->

<svg
   xmlns:dc="http://purl.org/dc/elements/1.1/"
   xmlns:cc="http://creativecommons.org/ns#"
   xmlns:rdf="http://www.w3.org/1999/02/22-rdf-syntax-ns#"
   xmlns:svg="http://www.w3.org/2000/svg"
   xmlns="http://www.w3.org/2000/svg"
   xmlns:sodipodi="http://sodipodi.sourceforge.net/DTD/sodipodi-0.dtd"
   xmlns:inkscape="http://www.inkscape.org/namespaces/inkscape"
   width="226.77165"
   height="226.77165"
   id="svg2"
   version="1.1"
   inkscape:version="0.48.3.1 r9886"
   sodipodi:docname="london_sticker.svg"
   inkscape:export-filename="/home/russ/hackspacesticker.png"
   inkscape:export-xdpi="300"
   inkscape:export-ydpi="300">
  <defs
     id="defs4">
    <inkscape:perspective
       sodipodi:type="inkscape:persp3d"
       inkscape:vp_x="0 : 526.18109 : 1"
       inkscape:vp_y="0 : 1000 : 0"
       inkscape:vp_z="744.09448 : 526.18109 : 1"
       inkscape:persp3d-origin="372.04724 : 350.78739 : 1"
       id="perspective10" />
    <inkscape:perspective
       id="perspective247"
       inkscape:persp3d-origin="57 : 38 : 1"
       inkscape:vp_z="114 : 57 : 1"
       inkscape:vp_y="0 : 1000 : 0"
       inkscape:vp_x="0 : 57 : 1"
       sodipodi:type="inkscape:persp3d" />
  </defs>
  <sodipodi:namedview
     id="base"
     pagecolor="#000000"
     bordercolor="#666666"
     borderopacity="1.0"
     inkscape:pageopacity="0"
     inkscape:pageshadow="2"
     inkscape:zoom="2.7539454"
     inkscape:cx="85.649088"
     inkscape:cy="96.260004"
     inkscape:document-units="px"
     inkscape:current-layer="layer1"
     showgrid="false"
     units="mm"
     inkscape:showpageshadow="false"
     inkscape:window-width="1280"
     inkscape:window-height="1203"
     inkscape:window-x="13"
     inkscape:window-y="25"
     inkscape:window-maximized="0"
     showborder="false"
     showguides="false"
     inkscape:guide-bbox="true"
     fit-margin-top="0"
     fit-margin-left="0"
     fit-margin-right="0"
     fit-margin-bottom="0">
    <inkscape:grid
       type="xygrid"
       id="grid3774"
       empspacing="5"
       visible="true"
       enabled="true"
       snapvisiblegridlinesonly="true"
       originx="7.0866142px"
       originy="7.0866193px" />
  </sodipodi:namedview>
  <metadata
     id="metadata7">
    <rdf:RDF>
      <cc:Work
         rdf:about="">
        <dc:format>image/svg+xml</dc:format>
        <dc:type
           rdf:resource="http://purl.org/dc/dcmitype/StillImage" />
        <dc:title></dc:title>
      </cc:Work>
    </rdf:RDF>
  </metadata>
  <g
     inkscape:groupmode="layer"
     id="layer2"
     inkscape:label="Logo"
     style="display:inline"
     sodipodi:insensitive="true"
     transform="translate(7.0866142,-46.062977)">
    <circle
       d="M 114,57 C 114,88.480231 88.480231,114 57,114 25.519769,114 0,88.480231 0,57 0,25.519769 25.519769,0 57,0 c 31.480231,0 57,25.519769 57,57 z"
       sodipodi:ry="57"
       sodipodi:rx="57"
       sodipodi:cy="57"
       sodipodi:cx="57"
       cx="57"
       cy="57"
       r="57"
       id="circle236"
       style="fill:#3528a8;fill-opacity:1"
       transform="matrix(1.989225,0,0,1.989225,-7.0866142,46.062977)" />
    <g
       id="g238"
       transform="matrix(1.8648985,0,0,1.8648985,0,53.149587)">
      <path
         inkscape:connector-curvature="0"
         style="fill:#ffffff"
         d="M 57,98.501 43.999,85.5 46.217,83.282 30.717,67.781 28.499,70 15.498,57 34.987,37.51 l 13.002,13 -4.234,4.235 2.66,2.661 10.992,-10.993 -2.66,-2.66 -4.089,4.089 L 37.656,34.841 57,15.497 70.001,28.498 67.784,30.716 83.282,46.216 85.501,43.998 98.503,57 79.159,76.343 66.157,63.342 70.246,59.253 68.083,57.09 57.091,68.083 59.253,70.245 63.487,66.011 76.49,79.014 57,98.501 z"
         id="path240" />
    </g>
  </g>
  <g
     inkscape:groupmode="layer"
     id="layer3"
     inkscape:label="Text"
     style="display:inline"
     transform="translate(7.0866142,-46.062977)"
     sodipodi:insensitive="true">
    <path
       style="fill:#ffffff;fill-opacity:0;fill-rule:evenodd;stroke:#b2b2b2;stroke-width:0.26742539;stroke-linecap:butt;stroke-linejoin:miter;stroke-miterlimit:4;stroke-opacity:0;display:inline"
       d="M 6.4357992,150.26707 C 1.1089083,205.41577 41.140973,254.40651 95.849919,259.69095"
       id="path2896"
       sodipodi:nodetypes="sc"
       inkscape:transform-center-x="54.735993"
       inkscape:transform-center-y="45.263912"
       inkscape:connector-curvature="0" />
    <path
       style="fill:#ffffff;fill-opacity:0;fill-rule:evenodd;stroke:#b2b2b2;stroke-width:0.22728859;stroke-linecap:butt;stroke-linejoin:miter;stroke-miterlimit:4;stroke-opacity:0;display:inline"
       d="M 39.456697,108.6013 C 65.382277,70.193179 117.58278,61.643348 156.04978,89.504737 194.51676,117.36612 204.68356,171.0882 178.75798,209.4963 152.8324,247.90445 100.6319,256.45427 62.16491,228.59291 23.697919,200.73149 13.531106,147.00945 39.456697,108.6013 z"
       id="path3675"
       inkscape:connector-curvature="0" />
    <g
       transform="matrix(0.00551369,-0.9999848,0.9999848,0.00551369,-53.423195,264.24787)"
       style="font-size:40px;font-style:normal;font-variant:normal;font-weight:normal;font-stretch:normal;line-height:125%;letter-spacing:0.17px;word-spacing:0px;fill:#ffffff;fill-opacity:1;stroke:none;font-family:Helvetica;-inkscape-font-specification:Helvetica"
       id="text3798">
      <path
         d="m 104.81155,65.301687 -0.086,-2.891721 c -0.46394,0.681421 -1.08075,1.033579 -1.85041,1.056476 -0.89426,0.02659 -1.47445,-0.363334 -1.74054,-1.169774 l -0.08,-0.470829 -0.0338,-0.395171 -0.11053,-3.716357 0.95658,-0.02845 0.15594,4.133191 c 0.0856,0.657742 0.46558,0.976586 1.13994,0.956535 l 0.31788,-0.04247 c 0.37275,-0.04777 0.69185,-0.295703 0.95731,-0.743787 0.17454,-0.298658 0.25297,-0.744854 0.23531,-1.338587 l -0.0906,-3.045654 0.94558,-0.02812 0.22891,7.696597 -0.94558,0.02812"
         style="font-size:11px"
         id="path3811"
         inkscape:connector-curvature="0" />
      <path
         d="m 99.293456,63.43673 0.130231,1.66692 -0.954093,0.07454 -0.13023,-1.66692 -1.162458,0.09082 -0.05312,-0.679928 1.162458,-0.09082 -0.284452,-3.640906 c -0.01885,-0.241266 -0.06883,-0.410219 -0.149934,-0.506861 -0.0811,-0.09664 -0.238636,-0.135826 -0.472592,-0.117547 l -0.0987,0.0077 -0.108809,0.01953 -0.194828,0.04832 -0.182148,0.0694 -0.05312,-0.679928 0.129029,-0.04318 0.116349,-0.06426 0.387942,-0.118576 0.348361,-0.06032 c 0.387487,-0.03027 0.671876,0.0321 0.853166,0.187116 0.176266,0.184832 0.279135,0.37172 0.308607,0.560666 l 0.04164,0.250518 0.313583,4.013769 0.976022,-0.07625 0.0531,0.679928 -0.976022,0.07625"
         style="font-size:11px"
         id="path3813"
         inkscape:connector-curvature="0" />
      <path
         d="m 95.655289,63.767034 0.19306,1.660817 -0.950599,0.110501 -0.19306,-1.660816 -1.158201,0.134633 -0.07875,-0.677438 1.158201,-0.134634 -0.421683,-3.627573 c -0.02794,-0.240383 -0.08426,-0.407329 -0.16896,-0.500841 -0.0847,-0.09351 -0.243593,-0.126721 -0.476692,-0.09962 l -0.09834,0.01143 -0.107994,0.02363 -0.192865,0.05564 -0.179399,0.07623 -0.07875,-0.677439 0.127307,-0.04802 0.11384,-0.0686 0.38319,-0.133136 0.345835,-0.07342 c 0.386069,-0.04488 0.672609,0.0067 0.859622,0.154778 0.183117,0.178047 0.292968,0.360919 0.329551,0.548618 l 0.05107,0.248767 0.464867,3.999072 0.972452,-0.113042 0.07875,0.677439 -0.972452,0.113041"
         style="font-size:11px"
         id="path3815"
         inkscape:connector-curvature="0" />
      <path
         d="m 91.798411,64.25893 -0.114515,-0.750393 c -0.384015,0.726062 -0.934037,1.149052 -1.650067,1.268972 -0.817282,0.136864 -1.489552,-0.05912 -2.016814,-0.587958 -0.465723,-0.472234 -0.769445,-1.131455 -0.911166,-1.977666 -0.1405,-0.838985 -0.07053,-1.553353 0.209905,-2.143105 0.324984,-0.679004 0.892499,-1.086335 1.702547,-1.221994 l 0.06509,-0.0109 c 0.781125,-0.130815 1.408218,0.106197 1.881281,0.711035 l -0.468753,-2.799021 0.933006,-0.156251 1.259094,7.518299 -0.889612,0.148984 m -1.24402,-4.43139 c -0.407725,-0.303492 -0.824951,-0.419505 -1.251678,-0.34804 -0.571372,0.09569 -0.952086,0.419686 -1.142142,0.971998 -0.149144,0.441361 -0.171634,0.973045 -0.06747,1.595052 0.130819,0.781118 0.379604,1.33429 0.746354,1.659518 0.366758,0.325218 0.796044,0.446647 1.287858,0.364287 0.173585,-0.02908 0.345333,-0.0913 0.515245,-0.186667 0.679657,-0.381503 0.917135,-1.183408 0.712433,-2.405715 -0.132025,-0.788356 -0.398891,-1.3385 -0.800599,-1.650433"
         style="font-size:11px"
         id="path3817"
         inkscape:connector-curvature="0" />
      <path
         d="m 85.157258,61.020248 -1.04223,0.228575 -0.256852,-1.171165 1.04223,-0.228575 0.256852,1.171165 m 0.94022,4.287109 -1.042229,0.228575 -0.256852,-1.171165 1.042229,-0.228575 0.256852,1.171165"
         style="font-size:11px"
         id="path3819"
         inkscape:connector-curvature="0" />
      <path
         d="m 81.898263,69.296506 -0.522308,0.20473 0.02154,-10.464591 0.522309,-0.204731 -0.02155,10.464592"
         style="font-size:11px"
         id="path3821"
         inkscape:connector-curvature="0" />
      <path
         d="m 78.592572,70.185958 -0.519457,0.211861 -0.121692,-10.463907 0.519457,-0.211861 0.121692,10.463907"
         style="font-size:11px"
         id="path3823"
         inkscape:connector-curvature="0" />
      <path
         d="m 75.486927,70.451106 -2.480853,-7.289401 0.895555,-0.30479 2.480853,7.289401 -0.895555,0.30479"
         style="font-size:11px"
         id="path3825"
         inkscape:connector-curvature="0" />
      <path
         d="m 71.284063,69.985372 c -0.819436,0.320808 -1.55535,0.301785 -2.207744,-0.05707 -0.604877,-0.33809 -1.070398,-0.923678 -1.396564,-1.756768 -0.326156,-0.833099 -0.378544,-1.580431 -0.157164,-2.242 0.232664,-0.71324 0.755297,-1.228928 1.567902,-1.547068 0.81944,-0.320816 1.553276,-0.297042 2.201511,0.07132 0.604881,0.338082 1.070402,0.923671 1.396564,1.756768 0.331507,0.846749 0.392061,1.594822 0.18166,2.244223 -0.231178,0.696901 -0.759899,1.207098 -1.586165,1.530592 m 0.37615,-3.65572 -0.126973,-0.2338 c -0.584521,-1.070586 -1.317228,-1.43344 -2.198126,-1.088563 -0.532631,0.208528 -0.843447,0.531034 -0.93245,0.967522 -0.09196,0.469143 -0.07614,0.911845 0.04744,1.328105 l 0.07576,0.253852 0.086,0.249842 0.200944,0.452913 c 0.166047,0.383881 0.455007,0.719644 0.86688,1.007291 0.371195,0.264186 0.823109,0.292018 1.355742,0.08349 0.894553,-0.350228 1.184208,-1.129094 0.868967,-2.336599 -0.03208,-0.08195 -0.05466,-0.159736 -0.06774,-0.233366 l -0.176448,-0.450691"
         style="font-size:11px"
         id="path3827"
         inkscape:connector-curvature="0" />
      <path
         d="m 66.994405,71.534781 -0.329188,-0.708235 c -0.131028,0.796792 -0.558972,1.363648 -1.283832,1.70057 -0.618457,0.287452 -1.117778,0.30928 -1.497963,0.06548 -0.209337,-0.137222 -0.382569,-0.275046 -0.519696,-0.413473 -0.09244,-0.09451 -0.213553,-0.276781 -0.363327,-0.546806 l -0.07025,-0.12504 -1.622755,-3.491299 0.857862,-0.398734 1.637367,3.496638 c 0.08084,0.156505 0.161059,0.276909 0.240672,0.361211 0.08271,0.09094 0.201053,0.19767 0.355035,0.320186 0.230978,0.18376 0.555944,0.178278 0.974898,-0.01645 0.07315,-0.03401 0.144757,-0.07133 0.214817,-0.111977 0.06341,-0.03757 0.118859,-0.08356 0.166345,-0.137968 0.325573,-0.25646 0.483627,-0.621047 0.474163,-1.093762 -0.0056,-0.377469 -0.107346,-0.779004 -0.305168,-1.204606 l -1.284294,-2.763114 0.857862,-0.398734 2.355313,5.067371 -0.857862,0.398734"
         style="font-size:11px"
         id="path3829"
         inkscape:connector-curvature="0" />
      <path
         d="m 59.251483,77.834252 -3.676196,-6.765765 0.831222,-0.451647 0.319293,0.702835 0.02481,-0.138668 0.0099,-0.143081 c 0.039,-0.588715 0.409674,-1.073883 1.112021,-1.455506 0.747458,-0.406133 1.443681,-0.438071 2.088672,-0.09582 0.644992,0.342253 1.156548,0.861334 1.534672,1.557243 l 0.105034,0.193307 c 0.03851,0.07088 0.06883,0.142036 0.09096,0.213477 0.273088,0.502596 0.37423,1.111142 0.303426,1.825639 -0.06015,0.641932 -0.470401,1.169468 -1.230743,1.582608 -0.386615,0.210062 -0.724195,0.318374 -1.012742,0.324936 -0.324264,0.01761 -0.665606,-0.08068 -1.024027,-0.294878 l 1.354941,2.493668 -0.831223,0.451647 m -0.926871,-7.696268 -0.315382,0.133807 -0.12565,0.06827 -0.11956,0.10252 c -0.267834,0.228987 -0.440432,0.556455 -0.517796,0.982405 -0.07736,0.425944 0.07653,0.993314 0.461648,1.702112 0.511168,0.940758 1.139269,1.413207 1.884302,1.417347 0.200161,-2.67e-4 0.38723,-0.04766 0.561206,-0.142187 l 0.07291,-0.0271 0.05799,-0.03151 c 0.52193,-0.283598 0.784534,-0.714219 0.787812,-1.291865 7.44e-4,-0.459435 -0.151183,-0.969446 -0.455781,-1.530035 -0.647711,-1.192065 -1.41161,-1.653321 -2.291701,-1.383769"
         style="font-size:11px"
         id="path3831"
         inkscape:connector-curvature="0" />
      <path
         d="m 55.26913,78.062242 c -0.745199,0.468049 -1.471742,0.586652 -2.17963,0.35581 -0.657332,-0.219308 -1.223927,-0.707769 -1.699788,-1.465383 -0.475853,-0.757624 -0.666744,-1.482063 -0.572672,-2.173318 0.09552,-0.744123 0.512767,-1.348261 1.251754,-1.812415 0.745202,-0.468057 1.47059,-0.581606 2.176166,-0.340645 0.657334,0.219301 1.22393,0.707761 1.699788,1.465383 0.483656,0.770037 0.682707,1.49368 0.597153,2.170932 -0.09711,0.727794 -0.521362,1.327672 -1.272771,1.799636 M 54.956666,74.400528 54.788304,74.19452 c -0.773987,-0.942742 -1.561525,-1.162531 -2.362617,-0.659369 -0.484377,0.304235 -0.72957,0.679065 -0.735579,1.124494 -0.0028,0.478063 0.09531,0.910042 0.294381,1.295938 l 0.121786,0.235261 0.131102,0.229411 0.281912,0.407474 c 0.234749,0.346163 0.581276,0.622123 1.039581,0.827882 0.413965,0.190297 0.863137,0.133331 1.347517,-0.1709 0.813509,-0.510967 0.952774,-1.330196 0.417795,-2.457691 -0.04681,-0.07452 -0.0835,-0.146734 -0.110085,-0.216632 l -0.257431,-0.40986"
         style="font-size:11px"
         id="path3833"
         inkscape:connector-curvature="0" />
      <path
         d="m 51.24164,80.45502 -0.456034,-0.634031 c 0.02055,0.807232 -0.293624,1.44422 -0.942537,1.910965 -0.55366,0.398219 -1.040052,0.513198 -1.459177,0.344938 -0.231337,-0.09558 -0.427321,-0.198511 -0.587952,-0.308799 -0.108513,-0.07552 -0.261622,-0.231876 -0.459328,-0.469063 l -0.09243,-0.109667 -2.248052,-3.125502 0.767981,-0.552379 2.263405,3.128009 c 0.108722,0.138592 0.210081,0.241836 0.304077,0.309732 0.09828,0.07384 0.234523,0.156507 0.40873,0.248009 0.261313,0.137238 0.579499,0.07098 0.954559,-0.198783 0.06549,-0.04711 0.128832,-0.09719 0.190037,-0.150236 0.05525,-0.04878 0.101102,-0.104342 0.137555,-0.166687 0.271767,-0.312909 0.358724,-0.70065 0.260874,-1.163224 -0.07624,-0.369733 -0.251376,-0.745104 -0.525423,-1.126114 l -1.779173,-2.473611 0.76798,-0.552379 3.262887,4.536443 -0.76798,0.552379"
         style="font-size:11px"
         id="path3835"
         inkscape:connector-curvature="0" />
      <path
         d="m 44.109678,80.290805 -0.835185,0.664045 -0.746195,-0.938506 0.835185,-0.664045 0.746195,0.938506"
         style="font-size:11px"
         id="path3837"
         inkscape:connector-curvature="0" />
      <path
         d="m 45.260346,87.737489 -1.907327,-2.175214 c 0.07605,0.820851 -0.1754,1.485106 -0.754353,1.992765 -0.67269,0.589838 -1.368344,0.658516 -2.086963,0.206034 l -0.361469,-0.31213 -0.27762,-0.283244 -2.451241,-2.795521 0.719557,-0.630941 2.751637,3.088055 c 0.484756,0.452726 0.980771,0.456693 1.488045,0.0119 l 0.218096,-0.235126 c 0.257031,-0.274149 0.345266,-0.668497 0.264707,-1.183045 -0.05555,-0.341428 -0.279129,-0.735451 -0.670746,-1.182069 l -2.008857,-2.291004 0.711286,-0.623689 5.076534,5.789542 -0.711286,0.623689"
         style="font-size:11px"
         id="path3839"
         inkscape:connector-curvature="0" />
      <path
         d="m 39.071592,88.209413 0.07741,0.07815 0.0696,0.08589 c 0.2632,0.265705 0.393523,0.668198 0.390971,1.207483 -0.0023,0.487422 -0.295224,1.020141 -0.878736,1.598159 -0.797125,0.7896 -1.555248,1.008985 -2.274371,0.658156 -0.113832,-0.0524 -0.227542,-0.130722 -0.34113,-0.234964 l -0.255608,-0.22678 -1.780117,-1.875216 c -0.175416,-0.187514 -0.320116,-0.29191 -0.434099,-0.313187 -0.114026,-0.01092 -0.25961,0.07136 -0.436752,0.246835 l -0.479957,-0.484526 0.03126,-0.03097 0.02352,-0.03878 0.101667,-0.116192 0.125113,-0.139416 c 0.208549,-0.237549 0.406208,-0.36625 0.592977,-0.386104 0.186726,-0.0095 0.40928,0.07972 0.667663,0.267624 -0.06635,-0.223295 -0.08872,-0.428228 -0.06709,-0.614801 0.0054,-0.04665 0.02136,-0.129539 0.04785,-0.248677 0.08464,-0.352216 0.2156,-0.631613 0.392884,-0.838191 l 0.273743,-0.317612 c 0.318055,-0.366666 0.666532,-0.587992 1.045433,-0.663978 0.32179,-0.0607 0.599146,-0.04642 0.832071,0.04283 0.150106,0.05775 0.287163,0.13359 0.41117,0.227517 l 0.255608,0.226781 c 0.309846,0.271113 0.466219,0.647802 0.469121,1.13007 0.0082,0.456361 -0.368334,1.128693 -1.129625,2.016997 l -0.164261,0.193678 c -0.161509,0.159981 -0.273842,0.338349 -0.337001,0.535104 -0.04733,0.139779 0.0477,0.3295 0.2851,0.569164 0.371579,0.37511 0.765226,0.470314 1.180943,0.285612 0.119533,-0.05648 0.21835,-0.118239 0.296451,-0.185274 l 0.1953,-0.177975 0.195447,-0.209087 c 0.03647,-0.03613 0.08338,-0.08776 0.140742,-0.154899 0.01042,-0.01033 0.03664,-0.07243 0.07867,-0.186305 0.235477,-0.450029 0.151945,-0.878228 -0.250597,-1.284601 l 0.648639,-0.642523 m -3.29068,1.742298 0.008,-0.05441 0.008,-0.03885 0.102258,-0.240642 0.195742,-0.271312 0.04689,-0.04645 c 0.312598,-0.309654 0.597154,-0.720553 0.853671,-1.232699 0.183232,-0.367306 0.114863,-0.712466 -0.205108,-1.035481 l -0.162713,-0.133001 c -0.0723,-0.06257 -0.157651,-0.107052 -0.256051,-0.133444 -0.37787,-0.1418 -0.730918,-0.05013 -1.059146,0.275 -0.536624,0.531563 -0.653577,1.137712 -0.350859,1.818451 0.01543,0.026 0.04883,0.09097 0.100194,0.194931 0.03603,0.05721 0.09009,0.137839 0.162198,0.241895 l 0.239683,0.304488 0.317244,0.351524"
         style="font-size:11px"
         id="path3841"
         inkscape:connector-curvature="0" />
      <path
         d="m 30.173719,94.747443 -0.225456,-0.27586 -0.212478,-0.323311 c -0.198538,-0.305904 -0.295905,-0.708233 -0.292102,-1.206989 0.0061,-0.457342 0.231781,-0.934515 0.677106,-1.431521 0.880868,-0.983095 1.883872,-1.206884 3.009016,-0.671368 0.250448,0.116094 0.44639,0.232582 0.587826,0.349465 l 0.456221,0.364472 c -10e-7,-3e-6 0.05735,0.05138 0.172042,0.154151 0.07646,0.06851 0.139837,0.135143 0.19013,0.199899 l 0.35175,0.448101 c 0.262373,0.333554 0.423117,0.802516 0.482233,1.406887 0.05081,0.547692 -0.190494,1.119199 -0.723905,1.714522 -0.499159,0.55708 -0.999712,0.851985 -1.501661,0.884714 -0.533016,0.03442 -0.984826,-0.06025 -1.355432,-0.283996 l -0.209596,-0.128723 0.601925,-0.671781 0.120331,0.06351 c 0.02731,0.02446 0.06497,0.04836 0.112991,0.0717 0.649849,0.296721 1.219458,0.172003 1.708829,-0.374154 0.420857,-0.469706 0.529635,-0.948256 0.326336,-1.435653 -0.203303,-0.487405 -0.517957,-0.92196 -0.943963,-1.303665 l -0.139272,-0.12479 -0.138419,-0.109256 c -0.380044,-0.301141 -0.819269,-0.497764 -1.317679,-0.589872 -0.492947,-0.08722 -0.927828,0.07945 -1.304645,0.499995 -0.411069,0.458774 -0.478033,0.98956 -0.200893,1.59236 l 0.178856,0.278416 0.191834,0.230965 -0.601925,0.671781"
         style="font-size:11px"
         id="path3843"
         inkscape:connector-curvature="0" />
      <path
         d="m 29.995708,100.7112 -0.705889,0.88623 -0.343179,-3.029666 -4.164824,-0.279719 0.685329,-0.860421 3.419212,0.262414 -0.148828,-1.313888 -1.488527,-1.18562 0.589383,-0.739961 6.022945,4.797305 -0.589384,0.739962 -3.734225,-2.97433 0.457987,3.697694"
         style="font-size:11px"
         id="path3845"
         inkscape:connector-curvature="0" />
      <path
         d="m 25.295208,100.43636 c -0.514447,-0.36481 -1.039345,-0.29652 -1.574695,0.20487 -0.03818,0.0538 -0.08446,0.10642 -0.138842,0.15776 l -0.123506,0.15515 -0.0509,0.0718 c -0.19937,0.28115 -0.287911,0.56448 -0.265623,0.84999 0.02229,0.2855 0.171021,0.52582 0.446189,0.72096 0.161514,0.11452 0.343258,0.16249 0.545233,0.1439 0.242872,-0.0255 0.535941,-0.2043 0.879209,-0.53624 l 0.08794,-0.086 0.103274,-0.0886 0.251088,-0.23998 0.272787,-0.25157 c 0.231999,-0.21307 0.537902,-0.37822 0.917712,-0.49545 0.344892,-0.10604 0.723715,-0.0127 1.136472,0.27998 0.352931,0.25028 0.562458,0.56967 0.628581,0.95818 0.05665,0.36381 -0.01536,0.74427 -0.216033,1.14137 l -0.14227,0.27669 -0.162826,0.24863 c -0.383303,0.59123 -0.787044,0.93872 -1.211225,1.04248 -0.424185,0.10374 -0.789089,0.0922 -1.094713,-0.0346 l -0.186964,-0.0786 -0.165265,-0.0902 0.52176,-0.73578 0.129374,0.0648 0.144709,0.0622 c 0.471924,0.14586 0.900895,-0.0534 1.286914,-0.59774 0.182402,-0.25723 0.277032,-0.50478 0.283893,-0.74264 0.01012,-0.28051 -0.10745,-0.50772 -0.352707,-0.68163 -0.263207,-0.18665 -0.526743,-0.2207 -0.790606,-0.10215 -0.156624,0.0687 -0.38748,0.24215 -0.692569,0.52026 l -0.116,0.10653 -0.122363,0.1155 -0.03442,0.0295 c -0.523603,0.44679 -0.898628,0.71575 -1.125078,0.8069 -0.422227,0.17705 -0.851681,0.11075 -1.288364,-0.19891 l -0.05384,-0.0382 c -0.472572,-0.33512 -0.694494,-0.78917 -0.665769,-1.36213 0.01796,-0.48172 0.2051,-0.97382 0.561422,-1.4763 0.4751,-0.66998 0.964385,-1.055701 1.467857,-1.157166 0.442129,-0.09103 0.886919,-0.02733 1.334371,0.191076 l 0.0602,0.0292 0.06281,0.04454 -0.547212,0.77167"
         style="font-size:11px"
         id="path3847"
         inkscape:connector-curvature="0" />
      <path
         d="m 25.318032,107.33133 -0.638491,-0.41053 c 0.290455,0.76829 0.243813,1.46058 -0.139927,2.07688 -0.438013,0.70344 -1.029711,1.07794 -1.775094,1.12351 -0.662227,0.0369 -1.357512,-0.17146 -2.085858,-0.62497 -0.722119,-0.44964 -1.211555,-0.97468 -1.468309,-1.57513 -0.294216,-0.69289 -0.224259,-1.38794 0.209873,-2.08516 l 0.03489,-0.056 c 0.418631,-0.67232 1.011208,-0.98581 1.777734,-0.94045 l -2.409144,-1.50009 0.500029,-0.80305 6.471074,4.02931 -0.476773,0.7657 m -4.146155,-1.99855 c -0.497316,0.10499 -0.860321,0.34113 -1.089018,0.70842 -0.306218,0.49179 -0.315095,0.99163 -0.02663,1.49952 0.232326,0.40382 0.61617,0.77241 1.151535,1.10577 0.672318,0.41862 1.251732,0.59799 1.738243,0.5381 0.486508,-0.0599 0.861553,-0.30151 1.125137,-0.72481 0.09303,-0.14941 0.15998,-0.31937 0.200861,-0.50988 0.16351,-0.76207 -0.28076,-1.47064 -1.332813,-2.12571 -0.678545,-0.42251 -1.26765,-0.58631 -1.767315,-0.49141"
         style="font-size:11px"
         id="path3849"
         inkscape:connector-curvature="0" />
      <path
         d="m 21.16168,110.96376 0.09683,0.0522 0.09161,0.0619 c 0.329226,0.17744 0.571224,0.52446 0.725995,1.04106 0.139882,0.46693 0.01499,1.0619 -0.374672,1.78491 -0.532317,0.98768 -1.193555,1.41855 -1.983716,1.2926 -0.124165,-0.0169 -0.255768,-0.0587 -0.39481,-0.12531 L 19.0123,114.9287 16.762839,113.65388 c -0.222461,-0.12824 -0.391308,-0.18591 -0.506544,-0.17304 -0.112255,0.0228 -0.22753,0.14395 -0.345824,0.36344 l -0.600359,-0.32357 0.02088,-0.0387 0.01119,-0.0439 0.06338,-0.14078 0.07903,-0.16984 c 0.130241,-0.28802 0.281795,-0.46876 0.454664,-0.5422 0.175849,-0.0635 0.414742,-0.0431 0.71668,0.0614 -0.128564,-0.19426 -0.209699,-0.38377 -0.243404,-0.56854 -0.0084,-0.0462 -0.01733,-0.13014 -0.02672,-0.25183 -0.02172,-0.36159 0.02211,-0.66703 0.131469,-0.91631 l 0.169263,-0.38362 c 0.197349,-0.44346 0.466169,-0.75676 0.806461,-0.9399 0.290116,-0.15188 0.559588,-0.21908 0.808416,-0.2016 0.160422,0.0115 0.313634,0.0441 0.459637,0.0978 l 0.310617,0.14242 c 0.375421,0.16901 0.634815,0.48375 0.778182,0.94423 0.14089,0.43414 -0.0233,1.18704 -0.492563,2.25869 l -0.100665,0.23315 c -0.107856,0.20012 -0.163312,0.40349 -0.166369,0.61011 -0.0045,0.1475 0.141686,0.30128 0.438639,0.46133 0.464792,0.25049 0.869094,0.2268 1.212909,-0.0711 0.09788,-0.0889 0.174398,-0.17675 0.229564,-0.26364 l 0.134934,-0.22718 0.126004,-0.25699 c 0.02435,-0.0452 0.05418,-0.10825 0.08947,-0.18919 0.007,-0.0129 0.01393,-0.08 0.02094,-0.20115 0.09406,-0.49913 -0.110676,-0.88438 -0.614199,-1.15575 l 0.433157,-0.80371 m -2.639833,2.62592 -0.0082,-0.0544 -0.0037,-0.0395 0.02766,-0.26 0.108147,-0.31659 0.03131,-0.0581 c 0.20875,-0.38733 0.361161,-0.86334 0.457234,-1.42802 0.0682,-0.40477 -0.09782,-0.715 -0.498062,-0.93071 l -0.194419,-0.0798 c -0.0874,-0.0388 -0.18201,-0.0564 -0.28383,-0.053 -0.402795,-0.0255 -0.713785,0.16512 -0.932974,0.57181 -0.358354,0.66492 -0.293522,1.27883 0.194497,1.84175 0.02234,0.0204 0.07323,0.0728 0.152668,0.15726 0.05114,0.0442 0.126365,0.10559 0.22567,0.1841 l 0.318037,0.22139 0.405941,0.24377"
         style="font-size:11px"
         id="path3851"
         inkscape:connector-curvature="0" />
      <path
         d="m 14.559681,119.81205 -0.2962,-0.19798 -0.297648,-0.24715 c -0.279231,-0.23457 -0.489869,-0.59091 -0.631914,-1.06903 -0.12777,-0.43917 -0.05129,-0.96146 0.229444,-1.56687 0.555302,-1.19752 1.449199,-1.70451 2.681695,-1.52099 0.273437,0.0379 0.494859,0.0921 0.664267,0.16252 l 0.542785,0.21532 c -3e-6,0 0.06985,0.0324 0.209565,0.0972 0.09314,0.0432 0.173213,0.0884 0.240227,0.13565 l 0.467296,0.32581 c 0.34836,0.24237 0.639073,0.64393 0.872141,1.20468 0.208568,0.50897 0.144722,1.12603 -0.191539,1.8512 -0.314674,0.67858 -0.707259,1.10683 -1.177758,1.28475 -0.499719,0.18861 -0.959477,0.23004 -1.379276,0.1243 l -0.238054,-0.0619 0.379455,-0.8183 0.133634,0.0256 c 0.03326,0.0154 0.07627,0.0273 0.129007,0.0356 0.708178,0.094 1.216518,-0.19169 1.525021,-0.85697 0.265307,-0.57215 0.229561,-1.0616 -0.107236,-1.46836 -0.336804,-0.40677 -0.764665,-0.73047 -1.283586,-0.97109 l -0.169648,-0.0787 -0.164296,-0.0641 c -0.45143,-0.177 -0.928933,-0.23676 -1.432511,-0.17927 -0.496926,0.0606 -0.864161,0.34699 -1.101707,0.85927 -0.259139,0.55883 -0.168145,1.08603 0.272981,1.58159 l 0.25238,0.21404 0.25093,0.16486 -0.379455,0.8183"
         style="font-size:11px"
         id="path3853"
         inkscape:connector-curvature="0" />
      <path
         d="m 11.973006,125.31518 -0.275244,-0.2022 c -0.105406,-0.0727 -0.195224,-0.15514 -0.269455,-0.24718 -0.212891,-0.24081 -0.368479,-0.55762 -0.466764,-0.95043 -0.124707,-0.46617 -0.06444,-0.96232 0.180811,-1.48845 l 0.227138,-0.48992 c 0.03088,-0.0588 0.09887,-0.16212 0.20398,-0.30998 0.105109,-0.14787 0.202942,-0.26709 0.293501,-0.35765 0.52168,-0.52822 1.187368,-0.74022 1.997065,-0.63601 0.293056,0.0359 0.647874,0.13539 1.064453,0.29839 0.867297,0.33937 1.467223,0.79855 1.79978,1.37754 0.366992,0.63183 0.384813,1.37116 0.05346,2.21798 -0.355407,0.90827 -0.8759,1.41333 -1.561479,1.51518 -0.367289,0.0532 -0.742445,0.056 -1.125468,0.008 -0.376196,-0.0448 -0.79307,-0.15677 -1.250621,-0.3358 l 1.535182,-3.92334 -0.380799,-0.11357 -0.445823,-0.0681 c -0.283557,-0.0401 -0.614769,0.0114 -0.993634,0.15456 -0.343533,0.13331 -0.603482,0.42534 -0.779848,0.87606 -0.138954,0.35511 -0.16701,0.6985 -0.08417,1.03016 0.08967,0.33432 0.291876,0.60244 0.606611,0.80434 L 11.973,125.31475 m 1.871027,-0.28372 0.339823,0.0975 c 0.04097,0.016 0.111937,0.0359 0.212891,0.0597 0.04632,0.002 0.107631,0.007 0.183941,0.0129 0.272568,0.0279 0.560281,-0.0131 0.863139,-0.12294 0.302852,-0.10986 0.534446,-0.36967 0.694782,-0.77941 0.168345,-0.43024 0.183039,-0.83004 0.04408,-1.1994 -0.141636,-0.36254 -0.414209,-0.66213 -0.81772,-0.89877 -0.06829,-0.0267 -0.127084,-0.0576 -0.17637,-0.0926 l -0.174143,-0.0681 -1.170425,2.99116"
         style="font-size:11px"
         id="path3855"
         inkscape:connector-curvature="0" />
      <path
         d="m 11.025348,126.84178 -0.340018,1.01137 -1.1364917,-0.38208 0.3400181,-1.01137 1.1364916,0.38208"
         style="font-size:11px"
         id="path3857"
         inkscape:connector-curvature="0" />
      <path
         d="m 13.832607,133.31969 c -0.238882,0.84696 -0.698278,1.42218 -1.378189,1.72569 -0.634674,0.27815 -1.382546,0.2958 -2.243618,0.053 -0.8610736,-0.24287 -1.4885113,-0.65222 -1.8823146,-1.22807 -0.4281871,-0.61603 -0.5238375,-1.344 -0.2869515,-2.18389 0.2388787,-0.84696 0.7008082,-1.41767 1.3857899,-1.71212 0.6346702,-0.27816 1.3825422,-0.29581 2.2436182,-0.053 0.875186,0.24684 1.508143,0.65013 1.898874,1.20988 0.416058,0.60499 0.503655,1.33449 0.262791,2.18851 m -2.687476,-2.50664 -0.263046,-0.0399 c -1.2063706,-0.18024 -1.937952,0.18488 -2.1947459,1.09536 -0.1552701,0.55052 -0.085773,0.993 0.2084924,1.32744 0.3185161,0.35651 0.6810077,0.61113 1.0874758,0.76388 l 0.2481157,0.0928 0.251101,0.0822 0.482386,0.11319 c 0.406284,0.0994 0.848401,0.0717 1.326353,-0.0831 0.434694,-0.13646 0.729677,-0.47995 0.884952,-1.03047 0.260771,-0.9246 -0.185334,-1.62568 -1.338316,-2.10326 -0.0847,-0.0239 -0.160346,-0.0528 -0.226942,-0.0869 l -0.465826,-0.13139"
         style="font-size:11px"
         id="path3859"
         inkscape:connector-curvature="0" />
      <path
         d="m 11.530602,139.81159 c 0.142356,-0.62944 0.09385,-1.16295 -0.145508,-1.60053 -0.18172,-0.32681 -0.468341,-0.57208 -0.859862,-0.73581 -0.123898,-0.0506 -0.270869,-0.0989 -0.440912,-0.14484 l -0.2872567,-0.0762 -2.8002708,-0.63335 0.208688,-0.92269 5.4503355,1.23271 -0.208688,0.9227 -1.051443,-0.23781 c 0.346733,0.22879 0.594568,0.5292 0.743508,0.90122 0.148929,0.37202 0.184444,0.7635 0.106543,1.17444 l -0.04994,0.27065 -0.665198,-0.15045"
         style="font-size:11px"
         id="path3861"
         inkscape:connector-curvature="0" />
      <path
         d="m 5.5146466,140.63622 c -0.3376358,0.0167 -0.6121805,0.23018 -0.8236348,0.64043 l -0.1299034,0.36838 -0.07171,0.28905 -0.026486,0.28562 c -0.013767,0.12412 0.0049,0.2761 0.056004,0.45595 0.1508474,0.55398 0.6238408,0.89891 1.4189816,1.03478 l 0.5963565,0.10191 -0.077479,-0.069 -0.068489,-0.0563 c -0.2799487,-0.23383 -0.4825801,-0.50652 -0.6078946,-0.81808 -0.1180846,-0.31032 -0.1360228,-0.64073 -0.053815,-0.99122 l 0.077268,-0.32158 c 0.111671,-0.47938 0.4540376,-0.91561 1.0271009,-1.3087 0.5307438,-0.36313 1.3021149,-0.45823 2.3141156,-0.28531 1.3300516,0.22727 2.1397696,0.77853 2.4291556,1.65378 0.08212,0.25953 0.126958,0.49782 0.134515,0.71487 l -0.0363,0.47365 -0.08838,0.38664 c -0.08221,0.35049 -0.291541,0.68298 -0.62798,0.99748 -0.133136,0.12603 -0.32524,0.22712 -0.576312,0.30326 l 0.757146,0.14053 -0.153778,0.89996 -5.3672091,-0.91711 C 4.632836,144.44722 4.0382133,143.92156 3.832049,143.03822 3.763331,142.74376 3.739652,142.49049 3.761012,142.2784 l 0.054551,-0.51518 0.090511,-0.46438 c 0.086282,-0.4614 0.3489519,-0.86661 0.788011,-1.21565 0.2419267,-0.19673 0.569703,-0.30811 0.9833301,-0.33415 l -0.1627685,0.88726 m 0.8140564,1.70143 -0.0024,0.14466 c -0.00727,0.30378 0.1487192,0.63174 0.4679693,0.98388 0.2940406,0.3255 0.8458603,0.55742 1.6554607,0.69577 1.4890806,0.25444 2.326877,-0.1641 2.513392,-1.2556 0.09757,-0.57106 -0.07294,-1.0317 -0.511552,-1.38191 -0.340069,-0.27386 -0.8209293,-0.4639 -1.4425826,-0.57012 -1.1782573,-0.20134 -1.9850834,0.0142 -2.4204806,0.64655 l -0.164011,0.30676 -0.073563,0.29989 -0.022233,0.13012"
         style="font-size:11px"
         id="path3863"
         inkscape:connector-curvature="0" />
      <path
         d="m 6.4132831,146.80217 -0.1269955,1.05941 -1.1904772,-0.1427 0.1269956,-1.05942 1.1904771,0.14271"
         style="font-size:11px"
         id="path3865"
         inkscape:connector-curvature="0" />
      <path
         d="m 4.5930517,153.46193 0.7899963,0.0563 c -0.2722438,-0.2032 -0.4791838,-0.44586 -0.6208205,-0.72797 -0.1672463,-0.33541 -0.2490614,-0.63164 -0.2454454,-0.8887 l 7.326e-4,-0.31975 c 0.00148,-0.53659 0.1547661,-0.9337 0.4598521,-1.19133 0.2732202,-0.22314 0.5702258,-0.36739 0.8910178,-0.43275 l 0.4663049,-0.044 0.3957801,0.0172 3.6976214,0.26353 -0.06725,0.9436 -3.412345,-0.24319 c -0.5266657,-0.0375 -0.9187799,-0.003 -1.1763436,0.10364 -0.3714575,0.15732 -0.573607,0.4664 -0.6064493,0.92723 -0.055781,0.78268 0.2933173,1.30014 1.0472944,1.55238 0.1577959,0.0554 0.3242111,0.093 0.4992461,0.11278 l 0.4153786,0.0517 3.0392908,0.2166 -0.06725,0.94361 -5.5738624,-0.39724 0.067249,-0.94361"
         style="font-size:11px"
         id="path3867"
         inkscape:connector-curvature="0" />
      <path
         d="m 10.005973,159.74355 -0.013996,1.13291 -2.1292037,-2.18247 -3.4610875,2.33343 0.013588,-1.09992 2.8615619,-1.88979 -0.9233791,-0.94648 -1.9028549,-0.0235 0.011685,-0.94593 7.6994133,0.0951 -0.01169,0.94593 -4.7736359,-0.059 2.6295949,2.63969"
         style="font-size:11px"
         id="path3869"
         inkscape:connector-curvature="0" />
    </g>
  </g>
  <g
     inkscape:groupmode="layer"
     id="layer4"
     inkscape:label="Text Paths"
     style="display:none"
     transform="translate(7.0866142,-46.062977)"
     sodipodi:insensitive="true">
    <path
       style="font-size:medium;font-style:normal;font-variant:normal;font-weight:normal;font-stretch:normal;text-indent:0;text-align:start;text-decoration:none;line-height:normal;letter-spacing:normal;word-spacing:normal;text-transform:none;direction:ltr;block-progression:tb;writing-mode:lr-tb;text-anchor:start;baseline-shift:baseline;opacity:0.3;color:#000000;fill:#ffffff;fill-opacity:1;fill-rule:evenodd;stroke:none;stroke-width:0.36633512;marker:none;visibility:visible;display:inline;overflow:visible;enable-background:accumulate;font-family:Sans;-inkscape-font-specification:Sans"
       d="m 106.29922,57.599984 c -56.258181,0 -101.8700861,45.589126 -101.8700861,101.847836 0,56.25872 45.6119051,101.87106 101.8700861,101.87106 56.25818,0 101.87007,-45.61234 101.87007,-101.87106 0,-56.25871 -45.61189,-101.847836 -101.87007,-101.847836 z m 0,0.255491 c 56.11102,0 101.59137,45.480775 101.59137,101.592345 0,56.11157 -45.48035,101.61557 -101.59137,101.61557 -56.111033,0 -101.5913717,-45.504 -101.5913717,-101.61557 0,-56.11157 45.4803387,-101.592345 101.5913717,-101.592345 z"
       id="path2949-3"
       inkscape:connector-curvature="0" />
  </g>
  <g
     inkscape:label="Template"
     inkscape:groupmode="layer"
     id="layer1"
     transform="translate(7.0866142,-832.67584)"
     style="display:none">
    <path
       sodipodi:type="arc"
       style="fill:#ffffff;fill-opacity:0;fill-rule:evenodd;stroke:#b2b2b2;stroke-width:0.36633512;stroke-linecap:butt;stroke-linejoin:miter;stroke-miterlimit:4;stroke-opacity:1;stroke-dasharray:none"
       id="path2949"
       sodipodi:cx="121.72338"
       sodipodi:cy="183.42058"
       sodipodi:rx="136.87567"
       sodipodi:ry="136.87567"
       d="m 258.59905,183.42058 a 136.87567,136.87567 0 1 1 -273.75134,0 136.87567,136.87567 0 1 1 273.75134,0 z"
       transform="matrix(0.77557357,0,0,0.77557357,11.893775,803.80551)" />
  </g>
</svg>
