<?xml version="1.0" standalone="no"?>
<!DOCTYPE svg PUBLIC "-//W3C//DTD SVG 1.1//EN" "http://www.w3.org/Graphics/SVG/1.1/DTD/svg11.dtd" >
<svg xmlns="http://www.w3.org/2000/svg" xmlns:xlink="http://www.w3.org/1999/xlink" version="1.1">
<metadata>
Created by FontForge 20230101 at Tue Feb 18 21:41:29 2025
 By Simon Hewison
</metadata>
<defs>
<font id="icomoon" horiz-adv-x="1024" >
  <font-face 
    font-family="icomoon"
    font-weight="400"
    font-stretch="normal"
    units-per-em="1024"
    panose-1="0 0 0 0 0 0 0 0 0 0"
    ascent="960"
    descent="-64"
    x-height="816"
    bbox="0 -64 1024 960.024"
    underline-thickness="0"
    underline-position="0"
    unicode-range="U+0001-FFFD"
  />
<missing-glyph 
 />
    <glyph glyph-name=".notdef" unicode="&#xfffd;" 
 />
    <glyph glyph-name="uni0000" horiz-adv-x="0" 
d="M0 0v0v0v0z" />
    <glyph glyph-name="uni0001" horiz-adv-x="0" 
d="M0 0v0v0v0z" />
    <glyph glyph-name="space" unicode=" " horiz-adv-x="512" 
d="M0 0v0v0v0z" />
    <glyph glyph-name="a" unicode="a" 
d="M276 -6v6t1 6q22 61 43 122q22 61 43.5 122t42.5 122q22 61 43 122q6 18 3 32.5t-15 28.5q-22 24 -27.5 52t6.5 58q13 30 36.5 46t56.5 16q32 1 55.5 -13.5t37.5 -44.5q14 -29 10.5 -57t-25.5 -53q-13 -15 -16 -31t4 -35q21 -61 43 -121q21 -61 42.5 -122t42.5 -122
q22 -61 43 -122q1 -3 1 -6t1 -6h-46h-46q-1 2 -2 3.5t-2 3.5q-14 37 -46 59q-31 22 -68 28t-74 -5t-64 -39q-10 -10 -17.5 -23.5t-15.5 -26.5h-45.5h-45.5zM593 168q-4 13 -8.5 25.5t-9.5 25.5q0 2 -3 3.5t-6 1.5h-54.5h-54.5q-2 0 -5 -1t-3 -2q-5 -13 -9.5 -26t-9.5 -27
h81.5h81.5zM478 303h34h34q-9 24 -17 48t-17 50q-9 -26 -17.5 -49.5t-16.5 -48.5zM945 601q-2 -15 -4 -29.5t-5 -28.5q-12 -59 -39 -110t-68 -94q-1 -1 -2.5 -2t-1.5 -2q-16 15 -30.5 30t-29.5 30q48 48 71 109t22.5 124.5t-24.5 122.5q-24 60 -70 105l30 30l32 32
q12 -16 24.5 -31t23.5 -32q31 -44 48 -93t21 -103q0 -2 0.5 -3.5t1.5 -3.5v-25.5v-25.5v0zM710 448l-31 31l-30 30q47 58 47.5 116.5t-46.5 115.5q14 15 29 30l31 31q27 -27 44.5 -60t24.5 -72q10 -64 -7.5 -119.5t-61.5 -102.5v0zM79 600q2 -14 4 -29t5 -29
q12 -59 39 -109.5t68 -94.5q1 -1 2.5 -2l1.5 -1q16 15 30.5 30t29.5 30q-48 48 -71 109t-22.5 124t24.5 123t70 104q-15 15 -30 30.5t-32 31.5q-12 -15 -24.5 -30.5t-23.5 -31.5q-31 -45 -48 -94t-21 -102q0 -2 -0.5 -4t-1.5 -3v-26v-26v0zM314 448q16 16 31 30.5t30 29.5
q-47 58 -47.5 116.5t46.5 116.5q-14 15 -29 29.5t-31 30.5q-27 -26 -44.5 -59.5t-24.5 -72.5q-10 -63 7.5 -118.5t61.5 -102.5z" />
    <glyph glyph-name="d" unicode="d" 
d="M808 723q-38 18 -81.5 32t-90.5 23h-4q-6 -10 -12 -23t-10 -24q-22 4 -47 6t-51 2t-51 -2t-50 -6h3q-6 15 -11.5 27t-12.5 23l2 -3q-50 -8 -94.5 -22.5t-86.5 -34.5l4 2q-41 -63 -68 -126q-28 -62 -42.5 -124t-17.5 -123q-4 -61 2 -122q46 -35 99.5 -62.5t111.5 -46.5
l5 -1q12 16 23.5 34.5t21.5 38.5l1 3q-21 8 -39.5 17t-35.5 20l2 -2q5 4 9.5 7.5t8.5 7.5q53 -25 107 -37q55 -13 109.5 -13t109.5 13q54 12 106 37q4 -4 8.5 -7.5t9.5 -7.5q-18 -10 -36 -19t-37 -16q11 -22 22.5 -41t24.5 -37l-1 2q62 19 116 47.5t102 64.5l-2 -2
q7 71 1 137q-5 65 -21.5 127t-43.5 119q-27 58 -63 112v0zM370 328q-31 0 -53.5 25.5t-22.5 61.5t22 62t54 26t55 -26t22 -62q0 -36 -22.5 -61.5t-54.5 -25.5v0zM654 328q-32 0 -54.5 25.5t-22.5 61.5t22.5 62t54.5 26t54.5 -26t21.5 -62q0 -36 -22 -61.5t-54 -25.5z" />
    <glyph glyph-name="f" unicode="f" 
d="M272 462h59h58v-108v-108v-108v-107h97h97v108v108v108v108h66.5h65.5v73v73h-66h-67q1 14 1 27t2 26q5 23 20 39t44 16h28.5h29.5q7 0 9.5 2.5t2.5 8.5q-1 26 -1 51v51v16v16q-11 1 -21.5 2t-20.5 1q-38 1 -76 -0.5t-76 -8.5q-39 -8 -67 -30.5t-45 -58.5
q-14 -28 -19 -57t-4 -59v-21.5v-21.5h-59h-58v-72.5v-73.5v0z" />
    <glyph glyph-name="g" unicode="g" 
d="M512 -60q-105 0 -197 40q-93 40 -162 109.5t-109 162.5q-40 92 -40 198q0 105 40 198q40 92 109 161t162 109q92 40 198 40q105 0 197 -40q93 -40 161.5 -109t108.5 -162t40 -198t-40 -198t-109 -162t-162 -109q-92 -40 -197 -40zM639 36h0.5h0.5h1.5t1.5 1
q37 13 70.5 32t63.5 43q36 30 64 64q29 34 49 72.5t33 80.5q12 43 16 90q3 37 -0.5 74t-14.5 73q-19 66 -56 122q-37 55 -87.5 96t-112.5 65t-130 29q-50 2 -97.5 -6t-92.5 -27q-65 -26 -116 -71q-52 -45 -87 -103t-51 -125q-15 -68 -8 -140q4 -36 13.5 -70.5t24.5 -67.5
q21 -42 48 -78t60 -64.5t71 -50.5q39 -23 83 -39h2t2 -1v3v2v37v37q0 6 0.5 13t1.5 13q3 20 11.5 35.5t24.5 27.5q0 1 0.5 1.5t1.5 0.5q-3 1 -5 1h-5q-21 3 -42.5 7.5t-42.5 12.5q-41 15 -70.5 42.5t-45.5 69.5q-10 28 -13.5 57t-3.5 59q1 35 13 65.5t35 56.5l1.5 3t-0.5 3
q-2 8 -4 16.5t-3 16.5q-3 23 0.5 45.5t10.5 43.5q1 3 2.5 4t4.5 1q11 1 22 -1t22 -5q22 -7 42.5 -18t39.5 -24q2 -2 4 -2h4q24 7 48.5 10.5t48.5 4.5q36 2 71.5 -2t69.5 -13h2.5t3.5 1q5 3 10.5 7t11.5 7q17 10 35.5 18.5t38.5 13.5q7 2 15 3t15 0q3 0 4.5 -1t2.5 -3l2 -6
l2 -6q8 -28 9 -56t-9 -56q-1 -2 0 -3l2 -2q21 -24 32.5 -52t14.5 -59q2 -28 -1 -55.5t-10 -54.5q-10 -35 -30 -62.5t-51 -47.5q-24 -14 -49.5 -22.5t-53.5 -12.5q-8 -2 -16 -3l-16 -2v0v0l1.5 -1.5l1.5 -1.5q9 -7 16.5 -16.5t11.5 -20.5q5 -11 7 -23t2 -24v-39v-39v-2v-2v0z
" />
    <glyph glyph-name="h" unicode="h" 
d="M927 690v109q0 26 -19 45t-45 19h-702q-26 0 -45 -19t-19 -45v-109q0 -24 16 -42t39 -21v-61q-23 -4 -39 -21.5t-16 -41.5v-109q0 -25 16 -42.5t39 -20.5v-62q-23 -3 -39 -21t-16 -42v-108q0 -27 19 -45.5t45 -18.5h702q26 0 45 18.5t19 45.5v108q0 24 -16 42t-39 21v62
q23 3 39 20.5t16 42.5v109q0 24 -16 41.5t-39 21.5v61q23 3 39 21t16 42v0zM186 742h59q12 0 20 -8t8 -20q0 -11 -8 -19t-20 -8h-59q-12 0 -20 8t-8 19q0 12 8 20t20 8v0zM186 448h59q12 0 20 -8t8 -19q0 -12 -8 -20t-20 -8h-59q-12 0 -20 8t-8 20q0 11 8 19t20 8v0zM245 97
h-59q-12 0 -20 8t-8 20q0 11 8 19t20 8h59q12 0 20 -8t8 -19q0 -12 -8 -20t-20 -8v0zM808 270h-592v60h592v-60zM808 567h-592v59h592v-59z" />
    <glyph glyph-name="i" unicode="i" 
d="M60 390h-13h-11q-15 1 -22.5 9t-7.5 23q0 13 7.5 20.5t22.5 8.5h9.5h9.5q8 -1 11.5 2t4.5 11q1 15 3 31t5 33h-13.5h-12.5q-13 1 -20.5 8.5t-7.5 20.5q-1 13 6 21.5t20 9.5q4 1 8.5 1h9.5h8.5h10.5q3 17 5 34t5 34q1 10 2.5 20.5t3.5 20.5q3 14 14.5 19.5t25.5 2.5
q12 -2 17 -10.5t3 -23.5q-3 -23 -6.5 -47t-6.5 -50h26.5h25.5q2 0 4.5 4t2.5 6q3 22 6 43.5t6 43.5q2 18 10.5 26.5t24.5 8.5q14 0 21.5 -8.5t6.5 -22.5l-6 -44l-6 -44q0 -2 -0.5 -5.5t-0.5 -8.5q7 0 13.5 0.5t13.5 -0.5q13 -1 20 -9t7 -22q-1 -14 -8.5 -21t-20.5 -8h-16
h-17q-2 -10 -3.5 -19.5t-2.5 -18.5q-1 -10 -2.5 -19t-2.5 -20h13h13q14 -1 21 -8.5t7 -21.5t-7.5 -22t-21.5 -9h-2h-2q-24 0 -28 -4t-7 -27q-2 -18 -4.5 -35.5t-4.5 -34.5q-3 -16 -12.5 -23.5t-24.5 -6.5q-14 1 -20.5 8.5t-4.5 21.5q2 21 5 42.5t6 42.5q0 3 0.5 7t1.5 8h-29
h-29q-3 -20 -5.5 -40.5t-5.5 -40.5q-1 -6 -1.5 -12t-2.5 -12q-3 -13 -12 -19.5t-23 -5.5t-20.5 8.5t-5.5 20.5q2 20 5 40.5t6 41.5q0 4 0.5 9t1.5 11v0zM132 451h26.5h24.5q2 0 5 2t3 4q3 17 5 34.5t4 35.5h-29h-29q-2 -18 -4.5 -37t-5.5 -39zM902 612q23 -1 44 -5t40 -15
q16 -10 22.5 -23t3.5 -30q-3 -23 -18.5 -32.5t-37.5 -2.5q-11 3 -22 7t-23 5q-34 3 -55 -13t-26 -51q-2 -13 -1 -26.5t4 -26.5q9 -32 32 -44.5t56 -5.5q9 2 18 5t17 6q16 6 27 3.5t19 -13.5q10 -13 11 -28.5t-9 -26.5q-8 -9 -17.5 -16.5t-20.5 -11.5q-42 -18 -82 -14
q-41 3 -74 23.5t-54 55.5q-22 35 -25 80q-2 37 5.5 71.5t30.5 64.5q25 35 59.5 50t75.5 14v0zM619 575q13 14 27 24t33 12q27 3 44.5 -15t13.5 -45q-2 -9 -7.5 -16.5t-14.5 -11.5q-12 -5 -24 -9.5t-24 -8.5q-27 -9 -37.5 -22t-10.5 -42q-1 -32 -0.5 -64.5t-0.5 -64.5
q0 -28 -17.5 -42.5t-43.5 -9.5q-17 4 -27 18t-10 35v84v84v31.5v30.5q0 26 7.5 40t24.5 20q19 6 35 -0.5t32 -27.5v0zM378 432v60v60q0 25 13 39t36 14q22 0 35 -14t13 -39v-121.5v-121.5q0 -17 -9 -30t-23 -18q-16 -5 -31.5 -0.5t-23.5 18.5q-5 7 -7 15.5t-3 17.5
q-1 30 -0.5 60t0.5 60v0zM369 696q0 24 17 41t40 18q24 0 41.5 -17.5t17.5 -41.5q0 -25 -16.5 -42t-41.5 -17t-42 17t-16 42z" />
    <glyph glyph-name="l" unicode="l" 
d="M390 98v118t0.5 117.5t0.5 117.5q-1 59 -1 118q1 1 77.5 1h79.5v-33v-33v0v0l1.5 1.5l0.5 0.5q7 11 15 20t17 18q15 13 32.5 21.5t36.5 11.5q15 3 30.5 3.5t31.5 -0.5q16 -2 31 -6t29 -11q23 -11 40.5 -28.5t29.5 -40.5q8 -14 13 -29t8 -31t4.5 -32t1.5 -33v-134v-134v-2
v-2h-78h-79v2v2v56.5v56.5v69.5v69.5q0 10 -1 20t-3 19q-2 8 -4 14.5t-6 13.5q-8 16 -21.5 25t-31.5 11q-10 1 -20.5 0.5t-20.5 -4.5q-13 -4 -23.5 -13t-18.5 -21q-5 -6 -8 -13.5t-5 -15.5q-1 -6 -1.5 -12.5t-0.5 -13.5v-130.5v-131.5v-1.5v-1.5q-2 -1 -78.5 -1t-78.5 1v0z
M302 97h-78h-78v74t-0.5 161t0.5 162v75q1 1 76.5 1h79.5v0v0l0.5 -0.5l0.5 -0.5v-0.5v-0.5v-117v-117.5v-117.5v-117v-1zM226 798q9 0 19 -2t19 -6q19 -8 31 -22t16 -34q3 -14 1.5 -27.5t-7.5 -26.5q-7 -15 -19 -25t-27 -15q-11 -4 -22 -5t-22 0q-9 0 -18 2.5t-17 6.5
q-19 10 -29.5 25.5t-13.5 36.5q-2 12 0 24t8 23q7 15 18.5 24.5t26.5 14.5q9 3 17.5 4.5t18.5 1.5v0z" />
    <glyph glyph-name="o" unicode="o" 
d="M619 909q-24 -30 -49.5 -51.5t-70.5 -9.5q26 -22 42 -47.5t22 -56.5q12 -55 -5 -99.5t-59 -80.5q-9 -8 -18.5 -15.5t-18.5 -16.5q-24 -25 -24 -46.5t24 -45.5q12 -12 25.5 -22.5t26.5 -21.5q16 -13 32.5 -26.5t30.5 -29.5q56 -61 49.5 -139.5t-72.5 -130.5
q-35 -28 -75 -41.5t-83 -18.5q-61 -7 -120.5 -1.5t-116.5 31.5q-38 17 -66.5 43.5t-38.5 69.5q-12 50 7.5 97.5t63.5 77.5q36 25 77 35.5t83 15.5q17 1 34 2.5t36 2.5q-26 26 -31 55t10 62q-16 2 -30.5 3.5t-28.5 3.5q-68 12 -111.5 55.5t-51.5 105.5q-9 72 21 130t95 85
q27 11 57.5 17.5t60.5 7.5q66 3 131.5 2.5t130.5 -0.5q2 0 4.5 -0.5t6.5 -1.5v0zM337 52q25 5 51 9.5t51 12.5q39 13 64 40t30 70q5 44 -13.5 77t-54.5 57q-57 38 -135.5 32t-130.5 -50q-50 -43 -49 -101.5t53 -99.5q29 -23 62.5 -33.5t71.5 -13.5v0zM463 664
q-1 10 -1.5 17.5t-1.5 14.5q-7 46 -26.5 85t-59.5 66q-43 29 -87 16.5t-64 -60.5q-6 -14 -9.5 -29.5t-4.5 -30.5q-6 -63 26.5 -117.5t84.5 -74.5q50 -19 90 2.5t50 74.5q1 9 2 19t1 17v0zM787 897h31.5h30.5v-59.5v-60.5h60.5h60.5v-31v-31h-59.5h-60.5v-60.5v-60.5h-30.5
h-30.5v59v61h-61.5h-60.5v30.5v30.5h59.5h60.5v61v61z" />
    <glyph glyph-name="p" unicode="p" 
d="M940 154q-5 -20 -17 -34.5t-27 -28.5q-27 -24 -56 -45.5t-65 -32.5q-50 -16 -99.5 -15t-98.5 17q-75 25 -136.5 70t-115.5 100q-50 51 -94.5 107t-78.5 119q-32 57 -51.5 118.5t-15.5 128.5q4 59 27.5 108.5t68.5 88.5q13 11 25.5 22t25.5 21q23 16 43 16t40 -19
q36 -37 63.5 -80t41.5 -93q6 -22 0.5 -42t-20.5 -35q-13 -13 -27 -25t-28 -23q-30 -23 -37.5 -47t6.5 -59q15 -40 40 -74t53 -66q25 -29 52.5 -55.5t61.5 -45.5q36 -20 61 -16t54 33q10 10 21 19.5t22 19.5q25 20 51.5 22t53.5 -13q39 -21 72 -49.5t61 -61.5q7 -9 12 -20.5
t11 -22.5v-3.5v-3.5v0z" />
    <glyph glyph-name="r" unicode="r" 
d="M512 960q-106 0 -199 -40t-162.5 -109t-109.5 -162q-41 -92 -41 -198t39 -198q40 -93 108 -162.5t160 -110.5q91 -40 194 -43q107 -2 201 37t165 107.5t113 160.5q41 93 43 198q2 109 -38 204q-41 95 -111 165.5t-163 110.5q-94 41 -199 40v0zM503 37q-82 1 -156 34
q-73 34 -128 90t-87 130q-32 75 -32 159q0 88 34 164q35 76 93 131.5t134 86.5q77 31 161 29q80 -3 153 -35q72 -32 127.5 -87t88.5 -129q32 -75 32 -162q0 -88 -34 -164q-35 -76 -92.5 -131t-133.5 -86t-160 -30zM699 594q-39 14 -94 2.5t-94 -75.5q-40 70 -110 79.5
t-120 -29.5q-52 -41 -59 -106t36 -116q20 -23 46 -36.5t57 -16.5q50 -3 87.5 18t63.5 63q35 -58 86 -73t95 -2q47 14 77.5 54t31.5 88q1 51 -27 92t-76 58zM649 337q-46 -1 -79 32t-34 79q0 46 32.5 79.5t79.5 33.5q45 1 78.5 -32t33.5 -79t-32.5 -79.5t-78.5 -33.5z" />
    <glyph glyph-name="s" unicode="s" 
d="M938 461q-2 -18 -3.5 -33.5t-2.5 -30.5q0 -6 1 -12.5t4 -12.5q31 -59 30 -120q-2 -61 -28.5 -111.5t-76.5 -85.5t-116 -43q-36 -4 -69.5 3.5t-65.5 22.5q-6 3 -13.5 5t-14.5 0q-102 -15 -194 17q-93 31 -160 96t-102 156q-34 91 -22 194q2 10 0 21.5t-7 20.5
q-34 71 -21.5 149t68.5 134q55 55 132.5 67t147.5 -22q8 -4 17 -6t18 -1q84 10 162 -9q77 -20 139.5 -63.5t105.5 -109.5q44 -66 61 -148q4 -20 6 -40t4 -38zM532 164q47 1 90.5 12.5t80.5 44.5q34 29 47 67q14 37 9 73.5t-28 68.5q-23 31 -63 50q-27 13 -57 21t-60 17
q-25 8 -50.5 14.5t-49.5 17.5q-25 10 -27.5 34t18.5 41q8 7 18.5 11.5t20.5 6.5q36 8 69 -0.5t61 -33.5q10 -8 19 -16.5t19 -15.5q19 -13 42 -11t38 17q14 14 16.5 35t-11.5 39q-12 15 -26.5 29t-31.5 25q-33 21 -71 29.5t-77 11.5q-45 2 -87 -5.5t-79 -34.5
q-38 -27 -54.5 -65.5t-13.5 -84.5q4 -45 29.5 -73t64.5 -44q23 -10 47.5 -17t49.5 -14q28 -9 57.5 -17t57.5 -20q29 -13 32 -40t-21 -49q-8 -7 -17.5 -12.5t-19.5 -8.5q-43 -11 -81 -3t-69 43q-9 11 -19 22t-21 21q-13 11 -28 14t-30 -5q-16 -8 -22.5 -21.5t-6.5 -30.5
q2 -34 19.5 -57.5t44.5 -40.5q39 -24 82 -33.5t89 -11.5v0z" />
    <glyph glyph-name="t" unicode="t" 
d="M74 169q74 -6 140.5 13t126.5 64q-69 12 -113.5 46t-54.5 82q19 -2 38 -2t39 5q-73 29 -109.5 75.5t-32.5 106.5q18 -9 37.5 -15t42.5 -6q-30 22 -49 49.5t-26 62.5t-2 67.5t23 64.5q37 -44 79 -78t89 -58t99 -38t110 -18q-1 5 -1.5 9.5t-1.5 9.5q-7 58 20.5 109.5
t79.5 77.5q53 26 110.5 17.5t99.5 -49.5q4 -4 8 -4.5t8 0.5q28 6 54.5 16.5t52.5 26.5q-10 -33 -29 -57t-44 -43q25 2 48.5 9t46.5 16q1 0 1.5 -0.5t0.5 -1.5q-10 -12 -20 -25t-22 -24q-9 -10 -20 -19t-21 -19q-3 -2 -5 -6t-2 -7q0 -54 -8 -105q-9 -51 -27 -98.5t-45 -90.5
q-27 -44 -64 -83q-37 -41 -80 -71q-42 -29 -88.5 -49t-97.5 -30t-105 -10q-73 -2 -141 16.5t-131 55.5q-4 2 -7 4t-7 4v0z" />
    <glyph glyph-name="w" unicode="w" 
d="M1004 467v-13.5v-13.5q-1 -2 -1.5 -4.5t-0.5 -5.5q-1 -14 -2 -27.5t-4 -27.5q-13 -78 -47.5 -145.5t-91.5 -122.5q-56 -55 -123.5 -88.5t-145.5 -45.5q-14 -2 -28.5 -3t-28.5 -3h-13.5h-13.5q-2 0 -4.5 0.5t-4.5 0.5q-14 2 -28 3t-28 3q-78 13 -145.5 48t-122.5 91
q-55 57 -88.5 124t-45.5 145q-2 15 -3.5 29.5t-2.5 28.5v13.5v13.5q0 2 0.5 4.5t0.5 5.5q2 13 3 27t3 27q13 79 48 146t91 123q57 55 124 88.5t145 44.5q15 2 29.5 3.5t28.5 3.5h13.5h13.5q2 -1 4 -1.5t5 -0.5l28 -2t27 -3q79 -14 146 -48.5t123 -91.5q55 -56 88.5 -123.5
t44.5 -145.5q2 -14 3.5 -28.5t3.5 -28.5v0zM518 545l-46.5 -46.5l-45.5 -45.5q-4 5 -9.5 10t-11.5 11q9 9 18 17t16 15q-28 29 -55 57t-53 55l-83.5 -83.5l-81.5 -81.5q26 -27 53.5 -54.5l55.5 -55.5q4 3 8.5 7.5t8.5 7.5q33 -32 65.5 -64.5t64.5 -65.5q-4 -4 -8 -8.5
t-7 -7.5q29 -28 56.5 -56t55.5 -55q40 41 81 82l82 82l-55 55l-57 57q-8 -8 -16 -17t-16 -17q-5 4 -9 7.5t-7 6.5l46 46l45 45l7 -7l10 -10q-9 -8 -17.5 -16t-15.5 -15q27 -28 54.5 -55.5t54.5 -53.5q40 40 81.5 81t81.5 82l-54.5 54.5l-55.5 55.5l-8 -8l-8 -8l-65.5 65.5
l-65.5 65.5l8 8t7 8l-55.5 55.5l-54.5 54.5q-41 -40 -81.5 -81t-81.5 -81q28 -27 56 -55t57 -58q7 8 15 17t15 18l11 -11t10 -9v0z" />
    <glyph glyph-name="x" unicode="x" 
d="M858 759l-153 -46q0 -6 0.5 -11.5t0.5 -11.5q0 -82 -32 -174q-31 -93 -88.5 -175t-136.5 -146q-80 -63 -177 -87v-9h0.5h0.5v-3q128 12 258 78q129 67 233.5 167.5t171.5 223.5q67 124 70 251l-148 -57v0zM763 103q-96 24 -176 87t-137 145.5t-89 174.5q-31 92 -31 175
v11.5v11.5v0l-142 42l-171 66q3 -107 53 -213q50 -107 131 -199.5t185 -164.5q104 -73 214 -112q16 -6 31.5 -10.5t32.5 -8.5v0v0l6 -2t6 -1q21 -5 42.5 -9t42.5 -6v3h1.5h0.5v10v0z" />
    <glyph glyph-name="y" unicode="y" 
d="M503 -29h-148.5h-148.5q-56 1 -90 34.5t-34 90.5v142.5v142.5q0 57 34.5 91t91.5 34h148h148h148h148q55 0 89.5 -32t35.5 -87q2 -74 2 -148.5t-1 -148.5q-2 -55 -36 -86.5t-90 -32.5h-148.5h-148.5v0zM578 75q15 -13 31 -17.5t34 4.5q18 10 20.5 27t2.5 34q1 22 1 44.5
t-1 44.5v36t-3 35q-4 31 -26.5 40.5t-47.5 -8.5q-3 -2 -6.5 -4t-9.5 -6v56v54h-23h-23v-88v-89.5v-88.5v-90q13 4 27.5 0t23.5 16v0zM847 185v30v27v12v12q-3 30 -21 47t-47 17q-30 0 -51 -18t-22 -47q-2 -37 -2 -74t2 -74q1 -32 22 -49t53 -15q37 2 54.5 29t8.5 70h-21.5
h-23.5q-1 -8 -0.5 -16t-2.5 -15q-3 -6 -8 -12.5t-11 -8.5q-10 -4 -16 3t-7 17v31v34h46h47v0zM476 61v131.5v128.5h-23.5h-24.5v-47v-46q0 -24 1 -48t-2 -48q-1 -8 -9.5 -16.5t-16.5 -10.5q-13 -3 -14 7t-1 18v38v38v57v58h-24.5h-23.5v-106.5v-104.5v-12t1 -12
q5 -19 18 -26.5t32 0.5q10 4 19 10.5t19 12.5q1 -6 1.5 -11t1.5 -11h23h23v0zM337 415h-83.5h-82.5v-25v-26h27.5h28.5v-151.5v-151.5h27h27v151.5v153.5h28.5h27.5v24.5v24.5zM400 942q-12 -41 -24 -81.5t-25 -79.5q-11 -31 -15.5 -62.5t-2.5 -64.5q1 -21 0.5 -41.5
t-0.5 -42.5h-28.5h-27.5q-7 47 -2 94.5t-12 94.5q-16 45 -29.5 91t-27.5 94q13 0 25 0.5t23 -0.5q5 -1 9 -6.5t6 -10.5q9 -30 17 -60t20 -61q4 16 8.5 32t8.5 32q2 7 3.5 14t2.5 14q10 38 18.5 43.5t52.5 0.5v0zM685 592q-11 -6 -19.5 -12.5t-18.5 -10.5q-23 -10 -38.5 -0.5
t-16.5 35.5q-1 34 -1 69v70v50.5v51.5h25.5h26.5v-28v-28v-72v-72q0 -8 -0.5 -18t14.5 -11q10 -2 19.5 9.5t9.5 23.5v78v77v20v21h26h25v-136.5v-138.5h-23h-25q-1 5 -2 10.5t-2 11.5v0zM398 704q0 19 -0.5 38t0.5 38q1 30 20 48t50 20q31 1 53.5 -16t24.5 -47
q2 -39 2 -79.5t-2 -79.5q-2 -31 -24.5 -48t-55.5 -15q-32 2 -49.5 19t-18.5 49v37v36v0v0v0zM494 704v31.5v31.5q0 11 -4 19t-18 8q-12 0 -16.5 -7.5t-4.5 -18.5q0 -32 -0.5 -63.5t1.5 -63.5q0 -7 7 -15.5t14 -9.5q12 -3 16.5 6t4.5 20v31v31zM616 187v-34v-34
q0 -10 -4.5 -16.5t-14.5 -3.5q-7 2 -14.5 8.5t-7.5 12.5q-1 36 -1 71.5t1 71.5q0 6 6.5 12.5t12.5 8.5q11 2 16 -5t6 -17v-37v-38v0v0v0zM801 227h-25.5h-25.5q3 15 6 28t8 25q1 2 11.5 2t10.5 -2q5 -12 8.5 -25t6.5 -28z" />
    <glyph glyph-name="z" unicode="z" 
d="M801 876h-527q-35 0 -59.5 -24.5t-24.5 -59.5v-25h69q33 0 56 -23.5t23 -56.5t-23 -56t-56 -23h-69v-83h69q33 0 56 -23.5t23 -56.5t-23 -56t-56 -23h-69v-83h69q33 0 56 -23.5t23 -56.5t-23 -56t-56 -23h-69v-20q0 -35 24.5 -59.5t59.5 -24.5h527q35 0 59.5 24.5
t24.5 59.5v688q0 35 -24.5 59.5t-59.5 24.5zM576 613q36 0 62 -25.5t26 -62.5q0 -36 -26 -62t-62 -26q-37 0 -62.5 26t-25.5 62q0 37 25.5 62.5t62.5 25.5zM756 277h-352v59q0 35 24.5 59.5t59.5 24.5h21l71 -71l71 71h21q35 0 59.5 -24.5t24.5 -59.5v-59v0zM146 643
q-18 0 -31 13t-13 31t13 31t31 13h113q18 0 31 -13t13 -31t-13 -31t-31 -13h-113zM146 401q-18 0 -31 13t-13 31q0 19 13 31.5t31 12.5h113q18 0 31 -12.5t13 -31.5q0 -18 -13 -31t-31 -13h-113zM146 159q-18 0 -31 13t-13 31q0 19 13 32t31 13h113q18 0 31 -13t13 -32
q0 -18 -13 -31t-31 -13h-113z" />
    <glyph glyph-name="braceleft" unicode="{" 
d="M136 209q-56 0 -96 -40t-40 -96t40 -96t96 -40q57 0 97 40t40 96t-40 96t-97 40v0zM0 612v-196q48 0 94 -9q46 -10 89 -27.5t83 -44.5q39 -26 73 -60t60 -73t43.5 -82t27.5 -90q9 -46 9 -94h197q0 140 -53 263t-145 215t-215 145t-263 53v0zM0 960v-196q171 0 322 -66
q150 -65 262.5 -177t177.5 -263t65 -322h197q0 212 -81 398q-80 187 -219 326t-326 219q-186 81 -398 81v0z" />
    <glyph glyph-name="bar" unicode="|" 
d="M512 960q-106 0 -199 -40q-94 -40 -163.5 -109.5t-109.5 -163.5q-40 -93 -40 -199t40 -199q40 -94 109.5 -163.5t163.5 -109.5q93 -40 199 -40t199 40q94 40 163.5 109.5t109.5 163.5q40 93 40 199t-40 199q-40 94 -109.5 163.5t-163.5 109.5q-93 40 -199 40zM825 370
q-14 -53 -44 -98q-30 -44 -71.5 -76t-91.5 -50q-51 -18 -106 -18t-106 18q-50 18 -91.5 50t-71.5 76q-30 45 -44 98q-4 19 5.5 35t27.5 21q3 0 5.5 0.5t5.5 0.5q16 0 28 -9.5t16 -24.5q20 -77 83 -125.5t142 -48.5t142 48.5t83 125.5q4 15 16 24.5t28 9.5q3 0 5.5 -0.5
t5.5 -0.5q9 -3 16 -8t12 -13q4 -8 5.5 -17t-0.5 -18v0z" />
    <glyph glyph-name="asciitilde" unicode="~" 
d="M0 14v79h79v79h78v78h79v79h80v79h79v80h77v77h80v79h79v80h-315v79h-80v78h80v-78l314 -1l1 -39v-39h77l1 -79l79 -1v-77l-79 -1l-1 -78h-77v-80h-79v-79h-80v-77l-78 -1l-1 -79h-77v-79h-80v-80h-79v-77h-157v78v0zM867 211v39h80v-78h-80v39v0zM788 408v157h79v-313
h-79v156zM947 448v196h-80v80h-77l-1 78l-79 1v78h237v-237h77v-392h-77v196v0zM316 921v39h392v-77h-392v38v0z" />
    <glyph glyph-name="m" unicode="m" 
d="M955.319 734.042q2.7696 -27.8 3.51541 -67.8251t0.070473 -70.8226q-0.675332 -30.7974 -1.61533 -61.0042q-0.940002 -30.2067 -0.948086 -33.9233q0 -48.9845 -1.30078 -70.3535q-3.58682 -55.9945 -22.1839 -99.1719t-48.7548 -70.1956
q-30.1576 -27.0182 -64.3282 -42.9434q-34.1705 -15.9252 -75.3484 -23.7467q-0.943484 -0.279477 -4.64648 -1.01074q-73.7555 -14.2468 -201.275 -17.7842q-15.8457 -0.413086 -47.4854 -0.413086q-99.1638 -0.0264602 -195.562 22.9766
q-0.519389 0.133215 -1.03613 0.0195312q-0.520587 -0.11272 -0.93457 -0.446289q-0.844191 -1.29796 -0.817383 -1.8252q2.72876 -31.0637 13.4746 -60.3809q4.4901 -11.3923 12.4441 -21.9603q7.95399 -10.568 24.55 -24.2942t47.1727 -22.0376
q30.5767 -8.31141 70.926 -8.31141q100.789 -0.182285 198.814 22.9766q0.50354 0.114712 1.00586 0.00390625q0.503891 -0.11181 0.908203 -0.425781q0.404761 -0.310562 0.636719 -0.771484q0.227398 -0.454796 0.236328 -0.966797v-76.1885
q-0.0177832 -0.545352 -0.275391 -1.0293q-0.254312 -0.482011 -0.700195 -0.808594q-20.2207 -14.4979 -74.8984 -31.708q-16.4208 -5.10592 -33.1729 -8.95996q-155.487 -35.0286 -306.376 15.9912q-73.0738 25.3664 -132.901 81.1573q-59.8272 55.7909 -76.5061 123.423
q-18.6318 76.601 -26.1592 155.043q-3.26448 35.4123 -5.12265 72.5843q-1.85817 37.172 -3.47605 90.9964q-1.61787 53.8244 -2.36614 72.7992q-4.00256 100.909 10.8262 169.197q17.8565 80.3101 84.0379 135.407t151.435 67.5633q1.25753 0.184119 11.3654 1.88484
q10.1079 1.70072 17.8254 2.78411q7.71753 1.08339 26.4455 2.83286q18.728 1.74947 39.4473 2.80592q20.7193 1.05646 54.461 1.8768q33.7417 0.820347 73.7083 0.820347h1.25488q170.857 0 259.68 -13.0049q86.1048 -12.5891 149.548 -71.4233
q63.4436 -58.8342 74.4018 -139.407zM797.067 346.71l0.09375 269.878q0 82.7607 -42.7002 131.425q-44.5829 49.0303 -115.737 49.0303q-83.1091 0 -124.938 -63.0928l-26.9482 -44.666l-26.9023 44.666q-41.8308 63.0928 -125.031 63.0928q-71.2499 0 -115.692 -49.0303
q-42.6987 -48.7104 -42.6992 -131.425v-269.878h108.025v261.929q0.0707815 83.2656 70.4854 83.2656q78.0107 0 78.0107 -98.9814v-143.371h107.468v143.371q0 98.9814 77.9639 98.9814q70.4854 0 70.4854 -83.2656v-261.929h108.117z" />
    <glyph glyph-name="b" unicode="b" 
d="M0 -64h1024v1024h-1024zM318 708q54 -41 111.5 -114.5t82.5 -127.5q25 54 82.5 127.5t111.5 114.5q23 18 47 29t47.5 13t38.5 -15.5t15 -54.5q0 -19 -7 -101.5t-11 -100.5q-18 -60 -72.5 -83t-121.5 -13q102 -16 129 -68t-31 -110q-30 -31 -57 -44.5t-47.5 -13t-39.5 13
t-30.5 27.5t-23 38t-16.5 35t-10 28l-4 10l-4 -10q-5 -16 -10 -28t-16.5 -35t-23 -38t-30.5 -27.5t-39.5 -13t-47.5 13t-57 44.5q-58 58 -31 110t129 68q-67 -10 -121.5 13t-72.5 83q-4 18 -11 100.5t-7 101.5q0 37 15 54.5t38.5 15.5t47.5 -13t47 -29z" />
  </font>
</defs>
</svg>
