<?xml version="1.0" encoding="utf-8"?>
<!-- Generator: Adobe Illustrator 16.0.4, SVG Export Plug-In . SVG Version: 6.00 Build 0)  -->
<!DOCTYPE svg PUBLIC "-//W3C//DTD SVG 1.1//EN" "http://www.w3.org/Graphics/SVG/1.1/DTD/svg11.dtd">
<svg version="1.1" id="Layer_1" xmlns="http://www.w3.org/2000/svg" xmlns:xlink="http://www.w3.org/1999/xlink" x="0px" y="0px"
	 width="64px" height="64px" viewBox="0 0 64 64" enable-background="new 0 0 64 64" xml:space="preserve">
<path fill-rule="evenodd" clip-rule="evenodd" d="M4.642,49.438c6.147,0.462,11.667-1.061,16.656-4.79
	c-5.743-0.994-9.676-4.001-10.512-8.021c1.593,0.176,3.172,0.269,4.812-0.197c-6.042-2.373-9.168-6.396-8.862-11.394
	c1.543,0.751,3.121,1.307,5.015,1.368c-2.483-1.858-4.078-4.14-4.689-7.042c-0.605-2.87-0.211-5.594,1.282-8.229
	c6.205,7.289,14.001,11.303,23.573,11.986c-0.054-0.433-0.1-0.802-0.147-1.173c-0.619-4.826,1.896-9.55,6.241-11.716
	c4.374-2.18,9.641-1.379,13.114,2.021c0.327,0.319,0.622,0.364,1.028,0.268c2.297-0.548,4.478-1.388,6.679-2.68
	c-0.884,2.697-2.463,4.652-4.606,6.219c2.098-0.174,4.054-0.795,5.967-1.585c0.049,0.047,0.096,0.096,0.144,0.143
	c-0.87,1.033-1.694,2.114-2.629,3.087c-0.81,0.844-1.761,1.552-2.614,2.356c-0.213,0.2-0.414,0.548-0.412,0.826
	c0.087,9.04-2.862,16.952-8.995,23.579c-6.23,6.732-14.101,9.863-23.21,10.002c-6.083,0.093-11.745-1.444-16.997-4.507
	C5.194,49.793,4.92,49.611,4.642,49.438z"/>
</svg>
