<?xml version="1.0" encoding="utf-8"?>
<!-- Generator: Adobe Illustrator 16.0.4, SVG Export Plug-In . SVG Version: 6.00 Build 0)  -->
<!DOCTYPE svg PUBLIC "-//W3C//DTD SVG 1.1//EN" "http://www.w3.org/Graphics/SVG/1.1/DTD/svg11.dtd">
<svg version="1.1" id="Layer_1" xmlns="http://www.w3.org/2000/svg" xmlns:xlink="http://www.w3.org/1999/xlink" x="0px" y="0px"
	 width="64px" height="64px" viewBox="0 0 64 64" enable-background="new 0 0 64 64" xml:space="preserve">
<path fill-rule="evenodd" clip-rule="evenodd" d="M3.753,35.602c-0.605,0-1.063,0.02-1.519-0.005
	c-1.215-0.062-1.863-0.754-1.848-1.946c0.015-1.137,0.648-1.767,1.859-1.832c0.397-0.021,0.803-0.045,1.196,0.004
	c0.658,0.083,0.934-0.163,0.993-0.83c0.116-1.278,0.301-2.551,0.481-4.012c-0.594,0-1.095,0.015-1.597-0.003
	c-1.107-0.038-1.737-0.683-1.786-1.806c-0.046-1.082,0.571-1.814,1.656-1.934c0.364-0.04,0.735-0.027,1.104-0.032
	c0.365-0.005,0.733-0.001,1.218-0.001c0.2-1.453,0.395-2.868,0.595-4.282c0.123-0.849,0.198-1.712,0.401-2.541
	c0.283-1.154,1.281-1.669,2.513-1.392c0.976,0.221,1.388,0.92,1.228,2.122c-0.26,1.974-0.53,3.944-0.818,6.08
	c1.137,0,2.198,0.027,3.256-0.028c0.161-0.009,0.4-0.394,0.436-0.63c0.27-1.789,0.499-3.585,0.739-5.379
	c0.209-1.558,0.873-2.24,2.177-2.231c1.19,0.007,1.902,0.777,1.755,1.957c-0.229,1.825-0.49,3.646-0.735,5.471
	c-0.032,0.235-0.045,0.474-0.083,0.869c0.603,0,1.146-0.035,1.683,0.007c1.149,0.093,1.763,0.818,1.708,1.97
	c-0.053,1.123-0.679,1.751-1.802,1.78c-0.669,0.018-1.338,0.003-2.083,0.003c-0.126,0.861-0.244,1.64-0.353,2.421
	c-0.105,0.757-0.201,1.515-0.32,2.415c0.585,0,1.096-0.021,1.605,0.004c1.192,0.057,1.793,0.699,1.783,1.88
	c-0.009,1.166-0.636,1.827-1.8,1.9c-0.092,0.005-0.185,0.002-0.275,0.003c-1.979,0.03-1.965,0.032-2.19,1.968
	c-0.172,1.461-0.358,2.922-0.577,4.378c-0.202,1.34-1.012,1.979-2.275,1.87c-1.157-0.101-1.734-0.735-1.602-1.899
	c0.201-1.767,0.469-3.525,0.706-5.289c0.04-0.298,0.071-0.6,0.114-0.966c-1.218,0-2.369,0-3.602,0
	c-0.233,1.707-0.463,3.405-0.698,5.102c-0.066,0.486-0.113,0.979-0.229,1.454c-0.276,1.149-1.062,1.698-2.229,1.602
	c-1.112-0.093-1.702-0.704-1.586-1.815c0.178-1.706,0.441-3.405,0.664-5.108C3.668,36.51,3.699,36.12,3.753,35.602z M8.241,31.811
	c1.171,0,2.179,0.019,3.185-0.016c0.185-0.007,0.497-0.209,0.519-0.356c0.215-1.442,0.38-2.892,0.568-4.404c-1.25,0-2.398,0-3.625,0
	C8.676,28.608,8.467,30.145,8.241,31.811z"/>
<path fill-rule="evenodd" clip-rule="evenodd" d="M56.383,21.734c1.894,0.13,3.658,0.343,5.235,1.282
	c1.305,0.776,1.848,1.892,1.643,3.317c-0.266,1.849-1.699,2.735-3.48,2.174c-0.931-0.294-1.861-0.704-2.815-0.781
	c-2.87-0.231-4.649,1.147-5.079,3.998c-0.165,1.089-0.089,2.291,0.198,3.354c0.707,2.616,2.759,3.708,5.497,3.084
	c0.743-0.17,1.466-0.438,2.193-0.679c1.321-0.438,2.164-0.25,2.876,0.664c0.804,1.031,0.958,2.472,0.12,3.403
	c-0.654,0.727-1.505,1.389-2.4,1.771c-6.942,2.96-14.127-1.528-14.668-9.07c-0.223-3.111,0.349-5.989,2.234-8.52
	C50.062,22.876,52.98,21.657,56.383,21.734z"/>
<path fill-rule="evenodd" clip-rule="evenodd" d="M38.698,24.032c1.097-1.118,2.188-2.079,3.763-2.249
	c2.23-0.243,3.963,1.559,3.576,3.759c-0.144,0.812-0.573,1.437-1.332,1.756c-0.987,0.411-1.991,0.787-3.006,1.125
	c-2.27,0.754-2.986,1.629-3.027,4.007c-0.047,2.698,0.01,5.399-0.029,8.098c-0.032,2.282-1.706,3.668-3.805,3.218
	c-1.429-0.309-2.314-1.541-2.322-3.327c-0.018-3.496-0.006-6.994-0.006-10.491c0-1.287,0-2.576,0-3.865
	c0.001-2.148,0.591-3.238,2.019-3.728C36.078,21.804,37.377,22.314,38.698,24.032z"/>
<path fill-rule="evenodd" clip-rule="evenodd" d="M23.616,32.974c0-2.486-0.006-4.973,0.001-7.459
	c0.007-2.088,1.179-3.351,3.078-3.339c1.833,0.011,2.999,1.276,3.004,3.323c0.01,5.062,0.012,10.126-0.007,15.19
	c-0.006,1.442-0.835,2.607-2.026,2.996c-1.286,0.418-2.722,0.037-3.425-1.098c-0.366-0.591-0.579-1.366-0.598-2.066
	C23.574,38.008,23.616,35.49,23.616,32.974z"/>
<path fill-rule="evenodd" clip-rule="evenodd" d="M23.034,16.511c0.007-1.995,1.637-3.661,3.598-3.676
	c2.024-0.017,3.68,1.636,3.69,3.687c0.011,2.075-1.581,3.678-3.657,3.684C24.598,20.212,23.026,18.612,23.034,16.511z"/>
</svg>
