<?xml version="1.0" encoding="utf-8"?>
<!-- Generator: Adobe Illustrator 16.0.4, SVG Export Plug-In . SVG Version: 6.00 Build 0)  -->
<!DOCTYPE svg PUBLIC "-//W3C//DTD SVG 1.1//EN" "http://www.w3.org/Graphics/SVG/1.1/DTD/svg11.dtd">
<svg version="1.1" id="Layer_1" xmlns="http://www.w3.org/2000/svg" xmlns:xlink="http://www.w3.org/1999/xlink" x="0px" y="0px"
	 width="64px" height="64px" viewBox="0 0 64 64" enable-background="new 0 0 64 64" xml:space="preserve">
<g>
	<path fill-rule="evenodd" clip-rule="evenodd" d="M24.354,53.902c0.021-9.829,0.108-19.66,0.016-29.495
		c0.115-0.035,9.568-0.045,9.805-0.005c0,1.358,0,2.721,0,4.083c0.011,0.004,0.021,0.009,0.033,0.013
		c0.037-0.051,0.074-0.099,0.11-0.151c0.565-0.852,1.21-1.641,1.979-2.32c1.252-1.102,2.705-1.792,4.336-2.114
		c1.279-0.253,2.569-0.279,3.865-0.146c1.316,0.135,2.579,0.468,3.769,1.054c1.921,0.945,3.351,2.395,4.358,4.273
		c0.637,1.186,1.052,2.45,1.319,3.766c0.271,1.343,0.386,2.701,0.386,4.07c0.002,5.584,0,11.166,0,16.748c0,0.076,0,0.151,0,0.238
		c-3.279,0-6.539,0-9.826,0c0-0.082,0-0.156,0-0.232c0-2.361,0-4.725,0-7.084c0-2.881,0.002-5.762,0-8.643
		c0-0.838-0.076-1.668-0.258-2.487c-0.133-0.596-0.324-1.171-0.612-1.712c-0.706-1.322-1.81-2.073-3.294-2.263
		c-0.869-0.112-1.726-0.056-2.559,0.234c-1.135,0.397-2.004,1.135-2.662,2.128c-0.373,0.564-0.679,1.162-0.809,1.838
		c-0.104,0.527-0.133,1.064-0.133,1.601c0,5.458,0,10.915,0,16.372c0,0.078,0,0.153,0,0.226
		C34.034,53.936,24.559,53.942,24.354,53.902z"/>
	<path fill-rule="evenodd" clip-rule="evenodd" d="M18.906,53.918c-3.266,0-6.521,0-9.773,0c-0.039-0.13-0.057-29.158-0.02-29.511
		c0.129-0.035,9.439-0.051,9.775-0.016c0.004,0.004,0.011,0.006,0.014,0.011c0.002,0.004,0.007,0.01,0.008,0.015
		c0.006,0.023,0.01,0.047,0.01,0.07c0,9.782,0,19.56,0,29.34C18.92,53.852,18.914,53.875,18.906,53.918z"/>
	<path fill-rule="evenodd" clip-rule="evenodd" d="M14.1,10.14c0.824,0.006,1.641,0.129,2.414,0.459
		c1.584,0.678,2.555,1.871,2.928,3.545c0.256,1.154,0.146,2.278-0.371,3.347c-0.604,1.246-1.593,2.06-2.887,2.515
		c-0.886,0.312-1.802,0.392-2.733,0.329c-0.781-0.053-1.53-0.234-2.228-0.599c-1.553-0.817-2.443-2.107-2.662-3.846
		c-0.129-1.035,0.02-2.035,0.497-2.971c0.61-1.196,1.582-1.978,2.835-2.425C12.602,10.242,13.336,10.142,14.1,10.14z"/>
</g>
</svg>
