<?xml version="1.0" encoding="utf-8"?>
<!-- Generator: Adobe Illustrator 16.0.4, SVG Export Plug-In . SVG Version: 6.00 Build 0)  -->
<!DOCTYPE svg PUBLIC "-//W3C//DTD SVG 1.1//EN" "http://www.w3.org/Graphics/SVG/1.1/DTD/svg11.dtd">
<svg version="1.1" id="Layer_1" xmlns="http://www.w3.org/2000/svg" xmlns:xlink="http://www.w3.org/1999/xlink" x="0px" y="0px"
	 width="64px" height="64px" viewBox="0 0 64 64" enable-background="new 0 0 64 64" xml:space="preserve">
<g>
	<path fill-rule="evenodd" clip-rule="evenodd" d="M31.439,63.052c-6.451,0-12.903,0.005-19.355-0.001
		c-4.883-0.007-8.048-3.163-8.066-8.084C3.995,48.771,3.993,42.574,4.02,36.379c0.019-4.942,3.246-8.122,8.221-8.125
		c12.853-0.009,25.706-0.01,38.559,0.001c4.736,0.003,8.035,3.007,8.14,7.746c0.144,6.448,0.146,12.905,0.001,19.354
		c-0.105,4.767-3.36,7.692-8.143,7.696C44.344,63.055,37.892,63.052,31.439,63.052z M36.324,56.295
		c1.256,1.124,2.678,1.682,4.222,0.848c1.55-0.836,1.495-2.447,1.522-3.935c0.035-1.947,0.03-3.895,0.001-5.842
		c-0.022-1.534,0.026-3.087-0.196-4.596c-0.398-2.714-2.628-3.62-4.859-2.089c-0.266,0.183-0.541,0.348-0.999,0.639
		c0-2.52,0-4.811,0-7.169c-1.058,0-2.001,0-2.992,0c0,7.729,0,15.378,0,23.17C34.157,57.001,35.509,58.044,36.324,56.295z
		 M53.852,49.174c0-1.412,0.004-2.58-0.001-3.75c-0.002-0.512,0.014-1.026-0.038-1.533c-0.273-2.645-1.877-4.149-4.413-4.17
		c-2.575-0.021-4.674,1.687-4.782,4.215c-0.141,3.215-0.148,6.448,0.017,9.661c0.14,2.735,2.156,4.312,4.879,4.164
		c3.214-0.176,4.86-2.714,4.146-6.465c-0.943,0-1.896,0-2.979,0c-0.048,0.717,0.054,1.427-0.176,2.007
		c-0.22,0.554-0.701,1.232-1.214,1.395c-0.923,0.293-1.438-0.439-1.486-1.291c-0.076-1.363-0.021-2.733-0.021-4.232
		C49.794,49.174,51.717,49.174,53.852,49.174z M29.678,57.219c0-5.768,0-11.329,0-16.933c-1.048,0-1.996,0-3.105,0
		c0,2.075,0.001,4.061,0,6.046c0,2.099,0.137,4.214-0.086,6.289c-0.07,0.656-1.025,1.585-1.713,1.729
		c-1.144,0.24-0.934-0.929-0.951-1.634c-0.043-1.639-0.014-3.277-0.014-4.916c-0.001-2.489,0-4.98,0-7.504c-1.142,0-2.081,0-3.146,0
		c0,4.648-0.004,9.194,0.006,13.741c0.001,0.509,0.01,1.03,0.117,1.524c0.371,1.724,1.568,2.42,3.198,1.753
		c0.87-0.355,1.631-0.976,2.487-1.505c0.076,0.465,0.146,0.904,0.228,1.408C27.7,57.219,28.646,57.219,29.678,57.219z
		 M20.604,34.197c-3.587,0-7.179,0-10.806,0c0,1.079,0,2.112,0,3.282c1.246,0,2.354,0,3.649,0c0,6.66,0,13.183,0,19.752
		c1.248,0,2.303,0,3.511,0c0-6.609,0-13.137,0-19.838c1.297,0,2.445,0,3.646,0C20.604,36.253,20.604,35.289,20.604,34.197z"/>
	<path fill-rule="evenodd" clip-rule="evenodd" d="M24.731-0.165c-1.086,3.602-2.04,7.097-3.203,10.521
		c-0.919,2.708-1.337,5.432-1.19,8.28c0.092,1.78,0.017,3.569,0.017,5.459c-1.26,0-2.405,0-3.623,0
		c-0.606-4.094,0.529-8.266-0.913-12.307c-1.388-3.886-2.462-7.886-3.747-12.078c1.186,0,2.199-0.104,3.173,0.052
		c0.373,0.059,0.822,0.656,0.948,1.09c0.749,2.591,1.413,5.206,2.429,7.851c0.361-1.386,0.725-2.771,1.08-4.157
		c0.151-0.595,0.279-1.195,0.426-1.792C20.947-0.576,20.948-0.576,24.731-0.165z"/>
	<path fill-rule="evenodd" clip-rule="evenodd" d="M43.257,22.64c-0.896,0.57-1.618,1.181-2.448,1.528
		c-2.018,0.844-3.513-0.072-3.591-2.267c-0.106-3.016-0.053-6.037-0.061-9.056c-0.006-2.188-0.001-4.376-0.001-6.648
		c1.146,0,2.149,0,3.38,0c0,1.209,0,2.417,0,3.627c0,3.121-0.024,6.241,0.019,9.362c0.01,0.728-0.378,1.789,0.882,1.933
		c0.866,0.099,1.928-1.126,1.932-2.17c0.015-3.376,0.006-6.753,0.006-10.131c0-0.856,0-1.712,0-2.635c1.16,0,2.164,0,3.275,0
		c0,5.93,0,11.84,0,17.886c-0.957,0-1.949,0-3.113,0C43.461,23.684,43.362,23.181,43.257,22.64z"/>
	<path fill-rule="evenodd" clip-rule="evenodd" d="M24.599,15.341c0-1.636-0.051-3.274,0.013-4.907
		c0.099-2.601,1.877-4.296,4.542-4.421c2.709-0.128,4.917,1.472,5.049,4.042c0.178,3.463,0.179,6.951,0.004,10.415
		c-0.133,2.641-2.328,4.207-5.173,4.063c-2.806-0.143-4.347-1.661-4.431-4.439c-0.048-1.582-0.009-3.168-0.009-4.752
		C24.595,15.341,24.598,15.341,24.599,15.341z M30.837,15.384c0-1.381,0.002-2.765,0-4.146c-0.003-0.969-0.248-1.776-1.427-1.751
		c-1.077,0.021-1.351,0.798-1.357,1.687c-0.02,2.765-0.087,5.533,0.057,8.291c0.03,0.595,0.789,1.537,1.341,1.639
		c1.104,0.207,1.387-0.76,1.388-1.725C30.838,18.047,30.838,16.716,30.837,15.384z"/>
	<path fill-rule="evenodd" clip-rule="evenodd" d="M38.78,49.009c0,1.479,0.002,2.959,0,4.438c-0.001,0.829-0.347,1.556-1.226,1.309
		c-0.576-0.163-1.398-0.87-1.419-1.361c-0.13-3.105-0.121-6.222-0.01-9.329c0.019-0.478,0.731-1.201,1.244-1.331
		c0.929-0.234,1.373,0.512,1.394,1.378c0.038,1.632,0.012,3.266,0.012,4.896C38.777,49.009,38.778,49.009,38.78,49.009z"/>
	<path fill-rule="evenodd" clip-rule="evenodd" d="M50.866,46.396c-1.272,0-2.108,0-3.382,0c0.317-1.246,0.528-2.379,0.943-3.43
		c0.073-0.188,1.382-0.203,1.45-0.029C50.3,43.987,50.526,45.115,50.866,46.396z"/>
</g>
</svg>
