<?xml version="1.0" encoding="utf-8"?>
<!-- Generator: Adobe Illustrator 16.0.4, SVG Export Plug-In . SVG Version: 6.00 Build 0)  -->
<!DOCTYPE svg PUBLIC "-//W3C//DTD SVG 1.1//EN" "http://www.w3.org/Graphics/SVG/1.1/DTD/svg11.dtd">
<svg version="1.1" id="Layer_1" xmlns="http://www.w3.org/2000/svg" xmlns:xlink="http://www.w3.org/1999/xlink" x="0px" y="0px"
	 width="64px" height="64px" viewBox="0 0 64 64" enable-background="new 0 0 64 64" xml:space="preserve">
<path fill-rule="evenodd" clip-rule="evenodd" d="M32.001-0.013C14.34-0.013,0.058,14.223,0,31.793
	C-0.059,49.459,14.124,63.57,31.32,63.907c17.782,0.349,32.348-13.864,32.624-31.433C64.227,14.354,49.523-0.101,32.001-0.013z
	 M31.45,57.683C17.693,57.464,6.214,45.928,6.245,31.881C6.277,17.185,18.544,5.847,32.655,6.215
	C45.94,6.561,57.698,17.473,57.708,32C57.646,46.725,45.391,57.904,31.45,57.683z"/>
<path fill-rule="evenodd" clip-rule="evenodd" d="M43.718,22.887c-3.325-1.162-8.535-0.748-11.759,4.549
	c-3.347-5.798-10.232-6.342-14.388-3.103c-4.357,3.397-5.013,9.637-1.433,13.836c1.685,1.978,3.841,3.122,6.437,3.31
	c4.156,0.3,7.242-1.511,9.397-5.048c2.916,4.874,7.688,5.773,11.323,4.694c3.952-1.173,6.751-4.854,6.812-8.848
	C50.174,27.961,47.65,24.261,43.718,22.887z M40.553,38.955c-3.797,0.043-7.014-3.148-7.033-6.979
	c-0.021-3.834,3.111-7.006,6.962-7.05c3.797-0.043,7.014,3.147,7.034,6.979C47.535,35.739,44.403,38.91,40.553,38.955z"/>
</svg>
