<?xml version="1.0" encoding="utf-8"?>
<!-- Generator: Adobe Illustrator 16.0.4, SVG Export Plug-In . SVG Version: 6.00 Build 0)  -->
<!DOCTYPE svg PUBLIC "-//W3C//DTD SVG 1.1//EN" "http://www.w3.org/Graphics/SVG/1.1/DTD/svg11.dtd">
<svg version="1.1" id="Layer_1" xmlns="http://www.w3.org/2000/svg" xmlns:xlink="http://www.w3.org/1999/xlink" x="0px" y="0px"
	 width="64px" height="64px" viewBox="0 0 64 64" enable-background="new 0 0 64 64" xml:space="preserve">
<path d="M50.073,5.225H17.137c-2.899,0-5.25,2.351-5.25,5.25v1.614h4.303c2.737,0,4.965,2.228,4.965,4.966
	c0,2.737-2.228,4.965-4.965,4.965h-4.303v5.19h4.303c2.737,0,4.965,2.227,4.965,4.964s-2.228,4.965-4.965,4.965h-4.303v5.191h4.303
	c2.737,0,4.965,2.228,4.965,4.965s-2.228,4.965-4.965,4.965h-4.303v1.266c0,2.899,2.351,5.25,5.25,5.25h32.937
	c2.899,0,5.25-2.351,5.25-5.25V10.475C55.323,7.575,52.973,5.225,50.073,5.225z M35.979,21.674c3.04,0,5.505,2.466,5.505,5.507
	c0,3.04-2.465,5.505-5.505,5.505c-3.042,0-5.507-2.465-5.507-5.505C30.473,24.14,32.938,21.674,35.979,21.674z M47.272,42.674
	h-22.05v-3.688c0-2.9,2.351-5.25,5.25-5.25h1.33l4.445,4.444l4.446-4.444h1.328c2.9,0,5.25,2.35,5.25,5.25V42.674z"/>
<path d="M9.153,19.819c-1.524,0-2.765-1.24-2.765-2.765c0-1.525,1.24-2.766,2.765-2.766h7.036c1.524,0,2.765,1.24,2.765,2.766
	c0,1.524-1.24,2.765-2.765,2.765H9.153z"/>
<path d="M9.153,34.938c-1.524,0-2.765-1.24-2.765-2.765s1.24-2.764,2.765-2.764h7.036c1.524,0,2.765,1.239,2.765,2.764
	s-1.24,2.765-2.765,2.765H9.153z"/>
<path d="M9.153,50.06c-1.524,0-2.765-1.24-2.765-2.765s1.24-2.765,2.765-2.765h7.036c1.524,0,2.765,1.24,2.765,2.765
	s-1.24,2.765-2.765,2.765H9.153z"/>
</svg>
