<?xml version="1.0" encoding="utf-8"?>
<!-- Generator: Adobe Illustrator 16.0.4, SVG Export Plug-In . SVG Version: 6.00 Build 0)  -->
<!DOCTYPE svg PUBLIC "-//W3C//DTD SVG 1.1//EN" "http://www.w3.org/Graphics/SVG/1.1/DTD/svg11.dtd">
<svg version="1.1" id="Layer_1" xmlns="http://www.w3.org/2000/svg" xmlns:xlink="http://www.w3.org/1999/xlink" x="0px" y="0px"
	 width="64px" height="64px" viewBox="0 0 64 64" enable-background="new 0 0 64 64" xml:space="preserve">
<path d="M64,30.8c0,0.578,0,1.156,0,1.734c-0.035,0.216-0.08,0.433-0.103,0.65c-0.122,1.191-0.17,2.394-0.367,3.571
	c-1.143,6.792-4.136,12.646-9.063,17.47c-4.889,4.787-10.729,7.701-17.51,8.688c-1.246,0.183-2.505,0.282-3.757,0.421
	c-0.578,0-1.156,0-1.733,0c-0.194-0.034-0.387-0.08-0.583-0.101c-1.213-0.122-2.438-0.169-3.637-0.37
	c-6.793-1.141-12.646-4.136-17.471-9.062c-4.787-4.888-7.701-10.729-8.689-17.51c-0.182-1.246-0.282-2.505-0.42-3.757
	c0-0.578,0-1.156,0-1.734c0.035-0.216,0.08-0.433,0.103-0.65c0.122-1.19,0.169-2.393,0.368-3.57
	C2.279,19.787,5.273,13.933,10.2,9.108c4.888-4.787,10.729-7.701,17.51-8.688c1.246-0.182,2.504-0.282,3.757-0.42
	c0.578,0,1.155,0,1.733,0c0.194,0.034,0.387,0.08,0.583,0.1c1.213,0.123,2.438,0.169,3.637,0.371
	c6.793,1.141,12.646,4.135,17.471,9.062c4.787,4.888,7.7,10.73,8.689,17.51C63.762,28.289,63.861,29.547,64,30.8z M32.355,25.719
	c-2.011,2.013-3.983,3.986-5.951,5.956c-0.398-0.391-0.834-0.819-1.387-1.363c0.802-0.754,1.586-1.493,2.214-2.083
	c-2.421-2.499-4.792-4.946-7.042-7.269c-3.621,3.619-7.224,7.222-10.759,10.757c2.323,2.323,4.72,4.719,7.156,7.156
	c0.341-0.326,0.735-0.702,1.072-1.025c2.851,2.851,5.656,5.656,8.49,8.491c-0.332,0.354-0.705,0.753-0.965,1.03
	c2.452,2.451,4.86,4.86,7.233,7.232c3.518-3.519,7.112-7.113,10.644-10.646c-2.375-2.383-4.783-4.801-7.294-7.32
	c-0.671,0.717-1.408,1.505-2.056,2.198c-0.447-0.368-0.818-0.673-1.073-0.882c2.024-2.022,3.996-3.993,5.919-5.915
	c0.271,0.266,0.61,0.599,1.117,1.097c-0.754,0.693-1.515,1.392-2.178,2.001c2.42,2.429,4.811,4.83,7.098,7.126
	c3.546-3.532,7.139-7.11,10.666-10.624c-2.343-2.342-4.74-4.739-7.178-7.176c-0.342,0.327-0.735,0.703-1.076,1.028
	c-2.849-2.85-5.654-5.655-8.49-8.491c0.333-0.354,0.707-0.753,0.969-1.034c-2.45-2.451-4.858-4.86-7.19-7.192
	c-3.505,3.499-7.084,7.071-10.566,10.546c2.363,2.361,4.772,4.768,7.332,7.326c0.613-0.696,1.296-1.472,1.971-2.24
	C31.542,24.911,31.964,25.331,32.355,25.719z"/>
</svg>
