<?xml version="1.0" encoding="utf-8"?>
<!-- Generator: Adobe Illustrator 16.0.4, SVG Export Plug-In . SVG Version: 6.00 Build 0)  -->
<!DOCTYPE svg PUBLIC "-//W3C//DTD SVG 1.1//EN" "http://www.w3.org/Graphics/SVG/1.1/DTD/svg11.dtd">
<svg version="1.1" id="Layer_1" xmlns="http://www.w3.org/2000/svg" xmlns:xlink="http://www.w3.org/1999/xlink" x="0px" y="0px"
	 width="64px" height="64px" viewBox="0 0 64 64" enable-background="new 0 0 64 64" xml:space="preserve">
<path d="M57.921,16.889v-6.811c0-2.209-1.791-4-4-4H10.08c-2.209,0-4,1.791-4,4v6.811c0,2.01,1.488,3.658,3.42,3.941v3.82
	c-1.932,0.283-3.42,1.932-3.42,3.941v6.811c0,2.01,1.488,3.658,3.42,3.941v3.821c-1.932,0.283-3.42,1.931-3.42,3.941v6.79
	c0,2.209,1.791,4,4,4h43.841c2.209,0,4-1.791,4-4v-6.79c0-2.011-1.488-3.659-3.421-3.941v-3.821
	c1.933-0.282,3.421-1.931,3.421-3.941v-6.811c0-2.011-1.488-3.659-3.421-3.941v-3.82C56.433,20.548,57.921,18.899,57.921,16.889z
	 M11.596,13.643h3.738c0.945,0,1.711,0.766,1.711,1.711s-0.766,1.711-1.711,1.711h-3.738c-0.945,0-1.711-0.766-1.711-1.711
	S10.65,13.643,11.596,13.643z M11.596,32h3.738c0.945,0,1.711,0.766,1.711,1.711s-0.766,1.711-1.711,1.711h-3.738
	c-0.945,0-1.711-0.766-1.711-1.711S10.65,32,11.596,32z M15.334,53.924h-3.738c-0.945,0-1.711-0.766-1.711-1.711
	s0.766-1.711,1.711-1.711h3.738c0.945,0,1.711,0.766,1.711,1.711S16.279,53.924,15.334,53.924z M50.5,43.106h-37v-3.704h37V43.106z
	 M50.5,24.592h-37v-3.703h37V24.592z"/>
</svg>
