<?xml version="1.0" encoding="utf-8"?>
<!-- Generator: Adobe Illustrator 16.0.4, SVG Export Plug-In . SVG Version: 6.00 Build 0)  -->
<!DOCTYPE svg PUBLIC "-//W3C//DTD SVG 1.1//EN" "http://www.w3.org/Graphics/SVG/1.1/DTD/svg11.dtd">
<svg version="1.1" id="Layer_1" xmlns="http://www.w3.org/2000/svg" xmlns:xlink="http://www.w3.org/1999/xlink" x="0px" y="0px"
	 width="64px" height="64px" viewBox="0 0 64 64" enable-background="new 0 0 64 64" xml:space="preserve">
<g>
	<path d="M53.655,12.589l-9.598,2.84l-0.002,0.002c0.028,0.469,0.043,0.94,0.043,1.414c0,13.776-10.97,32.34-27.096,36.4v0.584
		c0.016-0.001,0.031-0.003,0.047-0.005v0.163c21.426-1.97,45.289-23.872,45.828-44.974L53.655,12.589z"/>
	<path d="M47.704,53.592c-16.127-4.061-27.098-22.624-27.098-36.399c0-0.475,0.017-0.946,0.043-1.414l-0.001-0.001l-8.905-2.636
		L1.093,9.013c0.457,17.838,18.046,36.498,36.419,43.036c1.292,0.481,2.612,0.891,3.959,1.218c0.012,0.003,0.022,0.006,0.033,0.009
		c0.248,0.06,0.497,0.117,0.746,0.172c1.785,0.423,3.565,0.734,5.324,0.896v-0.177c0.044,0.002,0.086,0.008,0.13,0.01V53.592z"/>
</g>
</svg>
