<?xml version="1.0" encoding="utf-8"?>
<!-- Generator: Adobe Illustrator 16.0.4, SVG Export Plug-In . SVG Version: 6.00 Build 0)  -->
<!DOCTYPE svg PUBLIC "-//W3C//DTD SVG 1.1//EN" "http://www.w3.org/Graphics/SVG/1.1/DTD/svg11.dtd">
<svg version="1.1" id="Layer_1" xmlns="http://www.w3.org/2000/svg" xmlns:xlink="http://www.w3.org/1999/xlink" x="0px" y="0px"
	 width="64px" height="64px" viewBox="0 0 64 64" enable-background="new 0 0 64 64" xml:space="preserve">
<path fill-rule="evenodd" clip-rule="evenodd" d="M38.669,3.164c-1.964,2.494-3.769,4.875-7.453,3.813
	c2.158,1.829,3.427,3.967,3.981,6.542c0.978,4.559-0.504,8.238-3.985,11.208c-0.779,0.665-1.599,1.29-2.316,2.016
	c-2.034,2.055-2.055,3.721,0.004,5.781c0.98,0.983,2.142,1.787,3.197,2.698c1.338,1.154,2.768,2.229,3.956,3.524
	c4.715,5.13,4.067,12.556-1.408,16.884c-2.904,2.297-6.302,3.363-9.917,3.759c-5.068,0.556-10.062,0.267-14.783-1.865
	c-3.162-1.429-5.761-3.495-6.601-7.088c-0.972-4.149,0.825-8.47,4.484-10.942c3.019-2.04,6.456-2.799,10.009-3.161
	c1.367-0.139,2.741-0.214,4.321-0.333c-2.092-2.193-2.562-4.552-1.289-7.287c-1.349-0.169-2.529-0.271-3.689-0.473
	c-5.622-0.983-9.546-4.855-10.195-10.025c-0.76-6.052,1.853-11.21,7.241-13.436c2.312-0.955,4.925-1.5,7.429-1.611
	c5.439-0.24,10.896-0.082,16.347-0.082C38.173,3.085,38.344,3.125,38.669,3.164z M21.06,56.76c2.126-0.443,4.317-0.689,6.364-1.372
	c3.271-1.087,5.49-3.29,5.88-6.905c0.396-3.684-1.266-6.4-4.245-8.353c-4.779-3.136-12.277-2.581-16.606,1.149
	c-4.146,3.572-4.057,9.098,0.223,12.531C15.104,55.757,17.93,56.516,21.06,56.76z M28.948,18.519
	c-0.071-0.846-0.084-1.455-0.182-2.05c-0.621-3.8-2.062-7.173-5.368-9.412c-3.59-2.433-7.771-1.221-9.485,2.767
	c-0.503,1.168-0.77,2.492-0.878,3.769c-0.433,5.169,2.61,10.326,6.96,11.979c4.21,1.6,7.953-0.443,8.736-4.792
	C28.878,19.958,28.896,19.114,28.948,18.519z"/>
<path fill-rule="evenodd" clip-rule="evenodd" d="M49.197,3.923c1.402,0,2.558,0,3.853,0c0,2.478,0,4.922,0,7.531
	c2.572,0,5.012,0,7.549,0c0,1.346,0,2.532,0,3.86c-2.425,0-4.871,0-7.458,0c0,2.578,0,5.021,0,7.553c-1.328,0-2.514,0-3.859,0
	c0-2.447,0-4.892,0-7.471c-2.597,0-5.043,0-7.573,0c0-1.322,0-2.51,0-3.852c2.445,0,4.89,0,7.489,0
	C49.197,8.955,49.197,6.512,49.197,3.923z"/>
</svg>
