<?xml version="1.0" encoding="utf-8"?>
<!-- Generator: Adobe Illustrator 16.0.4, SVG Export Plug-In . SVG Version: 6.00 Build 0)  -->
<!DOCTYPE svg PUBLIC "-//W3C//DTD SVG 1.1//EN" "http://www.w3.org/Graphics/SVG/1.1/DTD/svg11.dtd">
<svg version="1.1" id="Layer_1" xmlns="http://www.w3.org/2000/svg" xmlns:xlink="http://www.w3.org/1999/xlink" x="0px" y="0px"
	 width="64px" height="64px" viewBox="0 0 64 64" enable-background="new 0 0 64 64" xml:space="preserve">
<g>
	<path fill-rule="evenodd" clip-rule="evenodd" d="M31.443,61.783c-6.193,0-12.388,0.006-18.582,0
		c-4.688-0.007-7.726-3.037-7.743-7.762c-0.022-5.947-0.023-11.896,0.001-17.844c0.019-4.745,3.117-7.796,7.893-7.8
		c12.338-0.009,24.678-0.01,37.016,0.001c4.547,0.003,7.715,2.886,7.814,7.436c0.139,6.191,0.141,12.39,0.002,18.58
		c-0.102,4.576-3.227,7.385-7.818,7.389C43.831,61.787,37.637,61.783,31.443,61.783z M36.133,55.297
		c1.205,1.08,2.57,1.615,4.053,0.814c1.487-0.803,1.436-2.35,1.461-3.777c0.034-1.869,0.029-3.738,0.001-5.608
		c-0.021-1.473,0.025-2.964-0.188-4.411c-0.383-2.605-2.522-3.477-4.664-2.006c-0.256,0.176-0.52,0.334-0.96,0.613
		c0-2.419,0-4.619,0-6.883c-1.015,0-1.921,0-2.872,0c0,7.42,0,14.764,0,22.244C34.053,55.975,35.35,56.977,36.133,55.297z
		 M52.959,48.461c0-1.355,0.004-2.477-0.002-3.6c-0.002-0.492,0.014-0.986-0.036-1.473c-0.263-2.539-1.802-3.982-4.236-4.003
		c-2.472-0.02-4.487,1.619-4.591,4.046c-0.135,3.087-0.143,6.191,0.016,9.275c0.135,2.626,2.07,4.14,4.684,3.998
		c3.086-0.17,4.666-2.605,3.98-6.207c-0.905,0-1.82,0-2.859,0c-0.047,0.688,0.051,1.369-0.17,1.927
		c-0.211,0.531-0.672,1.183-1.164,1.339c-0.887,0.281-1.381-0.422-1.428-1.24c-0.072-1.309-0.021-2.623-0.021-4.062
		C49.063,48.461,50.909,48.461,52.959,48.461z M29.752,56.184c0-5.537,0-10.875,0-16.255c-1.006,0-1.916,0-2.981,0
		c0,1.992,0.001,3.897,0,5.804c0,2.016,0.132,4.046-0.083,6.038c-0.066,0.63-0.984,1.521-1.645,1.66
		c-1.098,0.23-0.896-0.892-0.912-1.568c-0.041-1.573-0.014-3.146-0.014-4.72c-0.001-2.39,0-4.781,0-7.203c-1.096,0-1.998,0-3.021,0
		c0,4.462-0.004,8.826,0.006,13.191c0.001,0.488,0.009,0.988,0.112,1.463c0.356,1.654,1.506,2.323,3.07,1.684
		c0.836-0.342,1.565-0.938,2.388-1.445c0.073,0.446,0.141,0.868,0.219,1.352C27.854,56.184,28.761,56.184,29.752,56.184z
		 M21.041,34.084c-3.443,0-6.891,0-10.373,0c0,1.035,0,2.027,0,3.15c1.196,0,2.26,0,3.504,0c0,6.394,0,12.655,0,18.962
		c1.197,0,2.21,0,3.369,0c0-6.345,0-12.611,0-19.044c1.246,0,2.348,0,3.5,0C21.041,36.057,21.041,35.131,21.041,34.084z"/>
	<path fill-rule="evenodd" clip-rule="evenodd" d="M25.004,1.096c-1.043,3.458-1.959,6.812-3.076,10.1
		c-0.882,2.6-1.283,5.214-1.143,7.949c0.088,1.708,0.016,3.426,0.016,5.241c-1.209,0-2.309,0-3.478,0
		c-0.582-3.93,0.509-7.935-0.876-11.814C15.115,8.84,14.084,5,12.85,0.976c1.139,0,2.111-0.099,3.046,0.05
		c0.358,0.056,0.79,0.629,0.91,1.047c0.72,2.487,1.356,4.998,2.331,7.536c0.348-1.33,0.696-2.661,1.037-3.991
		c0.146-0.571,0.269-1.147,0.409-1.72C21.371,0.701,21.371,0.701,25.004,1.096z"/>
	<path fill-rule="evenodd" clip-rule="evenodd" d="M42.787,22.988c-0.859,0.547-1.553,1.133-2.35,1.467
		c-1.938,0.81-3.373-0.07-3.447-2.176c-0.102-2.896-0.051-5.795-0.059-8.694c-0.006-2.101,0-4.201,0-6.382c1.1,0,2.062,0,3.244,0
		c0,1.161,0,2.32,0,3.482c0,2.996-0.023,5.991,0.018,8.988c0.01,0.698-0.363,1.717,0.847,1.855c0.831,0.095,1.851-1.081,1.854-2.083
		c0.014-3.241,0.006-6.483,0.006-9.726c0-0.822,0-1.644,0-2.53c1.113,0,2.077,0,3.145,0c0,5.692,0,11.367,0,17.17
		c-0.919,0-1.871,0-2.989,0C42.983,23.991,42.889,23.507,42.787,22.988z"/>
	<path fill-rule="evenodd" clip-rule="evenodd" d="M24.876,15.982c0-1.57-0.049-3.143,0.013-4.71
		c0.094-2.497,1.801-4.125,4.359-4.244c2.602-0.124,4.721,1.413,4.848,3.88c0.17,3.325,0.171,6.673,0.004,9.998
		c-0.129,2.536-2.236,4.039-4.967,3.901c-2.693-0.138-4.173-1.594-4.254-4.262c-0.045-1.519-0.008-3.042-0.008-4.562
		C24.872,15.982,24.875,15.982,24.876,15.982z M30.865,16.023c0-1.326,0.001-2.654,0-3.98c-0.004-0.931-0.238-1.705-1.371-1.681
		c-1.033,0.021-1.296,0.766-1.303,1.619c-0.019,2.654-0.083,5.312,0.055,7.959c0.029,0.571,0.758,1.475,1.287,1.574
		c1.06,0.198,1.332-0.73,1.332-1.656C30.865,18.58,30.865,17.301,30.865,16.023z"/>
	<path fill-rule="evenodd" clip-rule="evenodd" d="M38.49,48.303c0,1.42,0.002,2.84,0,4.261c-0.001,0.796-0.333,1.493-1.177,1.257
		c-0.554-0.157-1.343-0.836-1.362-1.308c-0.125-2.981-0.116-5.973-0.01-8.956c0.019-0.458,0.703-1.152,1.195-1.277
		c0.891-0.225,1.318,0.491,1.338,1.322c0.036,1.566,0.011,3.135,0.011,4.701C38.487,48.303,38.488,48.303,38.49,48.303z"/>
	<path fill-rule="evenodd" clip-rule="evenodd" d="M50.093,45.795c-1.222,0-2.024,0-3.247,0c0.305-1.196,0.508-2.284,0.906-3.293
		c0.07-0.181,1.326-0.195,1.393-0.027C49.549,43.482,49.767,44.564,50.093,45.795z"/>
</g>
</svg>
