<?xml version="1.0" encoding="utf-8"?>
<!-- Generator: Adobe Illustrator 16.0.4, SVG Export Plug-In . SVG Version: 6.00 Build 0)  -->
<!DOCTYPE svg PUBLIC "-//W3C//DTD SVG 1.1//EN" "http://www.w3.org/Graphics/SVG/1.1/DTD/svg11.dtd">
<svg version="1.1" id="Layer_1" xmlns="http://www.w3.org/2000/svg" xmlns:xlink="http://www.w3.org/1999/xlink" x="0px" y="0px"
	 width="64px" height="64px" viewBox="0 0 64 64" enable-background="new 0 0 64 64" xml:space="preserve">
<path fill-rule="evenodd" clip-rule="evenodd" d="M39.4,0.144c-2.173,2.76-4.171,5.397-8.252,4.222
	c2.39,2.025,3.796,4.393,4.408,7.244c1.083,5.048-0.557,9.121-4.412,12.41c-0.863,0.736-1.77,1.429-2.565,2.232
	c-2.251,2.275-2.273,4.119,0.004,6.401c1.087,1.089,2.372,1.979,3.541,2.988c1.481,1.277,3.064,2.468,4.381,3.901
	c5.221,5.68,4.503,13.902-1.559,18.693c-3.216,2.543-6.978,3.725-10.981,4.163c-5.611,0.614-11.14,0.295-16.367-2.066
	c-3.502-1.582-6.379-3.87-7.31-7.848c-1.075-4.594,0.914-9.377,4.966-12.115c3.342-2.258,7.148-3.099,11.082-3.5
	c1.514-0.154,3.034-0.236,4.785-0.369c-2.316-2.427-2.837-5.039-1.429-8.067c-1.493-0.188-2.8-0.3-4.085-0.525
	c-6.225-1.087-10.569-5.375-11.288-11.1C3.478,10.105,6.371,4.395,12.337,1.93c2.561-1.057,5.453-1.661,8.225-1.783
	c6.023-0.266,12.065-0.09,18.101-0.091C38.852,0.056,39.041,0.1,39.4,0.144z M19.904,59.484c2.354-0.489,4.78-0.763,7.047-1.518
	c3.62-1.204,6.079-3.644,6.509-7.646c0.438-4.08-1.4-7.087-4.7-9.25c-5.291-3.47-13.593-2.856-18.386,1.273
	C5.784,46.3,5.883,52.417,10.62,56.218C13.31,58.374,16.438,59.215,19.904,59.484z M28.639,17.144
	c-0.079-0.937-0.093-1.611-0.201-2.27c-0.688-4.208-2.283-7.942-5.943-10.421c-3.976-2.694-8.605-1.352-10.503,3.063
	c-0.557,1.294-0.853,2.76-0.972,4.172c-0.479,5.724,2.89,11.434,7.706,13.263c4.661,1.771,8.806-0.491,9.673-5.306
	C28.561,18.738,28.579,17.803,28.639,17.144z"/>
<path fill-rule="evenodd" clip-rule="evenodd" d="M51.059,0.984c1.553,0,2.832,0,4.266,0c0,2.743,0,5.451,0,8.338
	c2.848,0,5.549,0,8.357,0c0,1.491,0,2.804,0,4.273c-2.685,0-5.393,0-8.257,0c0,2.855,0,5.561,0,8.364c-1.471,0-2.784,0-4.273,0
	c0-2.709,0-5.417,0-8.272c-2.875,0-5.584,0-8.386,0c0-1.464,0-2.779,0-4.266c2.707,0,5.415,0,8.293,0
	C51.059,6.555,51.059,3.85,51.059,0.984z"/>
</svg>
