<?xml version="1.0" encoding="utf-8"?>
<!-- Generator: Adobe Illustrator 16.0.4, SVG Export Plug-In . SVG Version: 6.00 Build 0)  -->
<!DOCTYPE svg PUBLIC "-//W3C//DTD SVG 1.1//EN" "http://www.w3.org/Graphics/SVG/1.1/DTD/svg11.dtd">
<svg version="1.1" id="Layer_1" xmlns="http://www.w3.org/2000/svg" xmlns:xlink="http://www.w3.org/1999/xlink" x="0px" y="0px"
	 width="64px" height="64px" viewBox="0 0 64 64" enable-background="new 0 0 64 64" xml:space="preserve">
<path d="M17.025,31.122c2.449,0,4.846,0,7.292,0c0,9.035,0,17.989,0,26.962c4.057,0,8.059,0,12.141,0c0-9.019,0-17.991,0-27.017
	c2.796,0,5.513,0,8.246,0c0-3.051,0-6.045,0-9.12c-2.786,0-5.519,0-8.346,0c0.075-1.157,0.042-2.246,0.235-3.296
	c0.355-1.926,1.583-3.496,3.949-3.468c1.215,0.015,2.433-0.019,3.649,0.012c0.543,0.014,0.724-0.165,0.718-0.704
	c-0.026-2.12-0.011-4.24-0.011-6.361c0-0.667,0-1.334,0-1.98c-0.948-0.076-1.809-0.189-2.672-0.21
	c-3.165-0.071-6.328-0.009-9.449,0.577c-3.321,0.622-5.61,2.531-7.046,5.538c-1.1,2.306-1.507,4.728-1.44,7.253
	c0.022,0.881,0.005,1.762,0.005,2.693c-2.484,0-4.861,0-7.271,0C17.025,25.034,17.025,28.012,17.025,31.122z"/>
</svg>
