<?xml version="1.0" encoding="utf-8"?>
<!-- Generator: Adobe Illustrator 16.0.4, SVG Export Plug-In . SVG Version: 6.00 Build 0)  -->
<!DOCTYPE svg PUBLIC "-//W3C//DTD SVG 1.1//EN" "http://www.w3.org/Graphics/SVG/1.1/DTD/svg11.dtd">
<svg version="1.1" id="Layer_1" xmlns="http://www.w3.org/2000/svg" xmlns:xlink="http://www.w3.org/1999/xlink" x="0px" y="0px"
	 width="64px" height="64px" viewBox="0 0 64 64" enable-background="new 0 0 64 64" xml:space="preserve">
<path d="M62.732,30.834c0,0.555,0,1.11,0,1.665c-0.033,0.208-0.076,0.416-0.098,0.624c-0.117,1.144-0.163,2.298-0.353,3.428
	c-1.097,6.521-3.97,12.141-8.701,16.771c-4.692,4.596-10.3,7.393-16.81,8.342c-1.195,0.175-2.404,0.27-3.605,0.403
	c-0.556,0-1.11,0-1.665,0c-0.187-0.032-0.372-0.077-0.56-0.097c-1.164-0.117-2.34-0.162-3.492-0.355
	c-6.521-1.095-12.141-3.971-16.771-8.699c-4.596-4.693-7.394-10.3-8.342-16.811c-0.174-1.195-0.271-2.404-0.403-3.606
	c0-0.555,0-1.109,0-1.665c0.033-0.208,0.077-0.415,0.098-0.624c0.117-1.143,0.163-2.297,0.353-3.428
	c1.097-6.521,3.971-12.14,8.701-16.772c4.692-4.595,10.3-7.393,16.809-8.341c1.196-0.174,2.404-0.271,3.607-0.403
	c0.554,0,1.109,0,1.665,0c0.186,0.033,0.371,0.077,0.559,0.096c1.164,0.118,2.34,0.162,3.492,0.356
	c6.521,1.095,12.139,3.97,16.771,8.699c4.596,4.693,7.393,10.301,8.342,16.81C62.504,28.424,62.6,29.632,62.732,30.834z
	 M32.354,25.957c-1.931,1.933-3.824,3.827-5.713,5.718c-0.382-0.375-0.801-0.787-1.332-1.309c0.77-0.724,1.523-1.433,2.126-2
	c-2.325-2.399-4.601-4.749-6.761-6.978c-3.476,3.475-6.935,6.933-10.329,10.327c2.23,2.23,4.531,4.531,6.87,6.87
	c0.327-0.312,0.705-0.674,1.029-0.984c2.736,2.736,5.43,5.43,8.15,8.151c-0.318,0.341-0.677,0.724-0.926,0.989
	c2.354,2.354,4.666,4.666,6.944,6.943c3.378-3.378,6.827-6.829,10.218-10.22c-2.279-2.288-4.592-4.608-7.002-7.028
	c-0.645,0.689-1.352,1.445-1.973,2.111c-0.43-0.354-0.786-0.646-1.031-0.848c1.943-1.941,3.835-3.832,5.682-5.678
	c0.26,0.255,0.586,0.575,1.072,1.053c-0.724,0.666-1.454,1.336-2.091,1.921c2.323,2.331,4.619,4.638,6.814,6.841
	c3.404-3.391,6.853-6.826,10.238-10.199c-2.248-2.249-4.55-4.55-6.891-6.889c-0.328,0.313-0.705,0.674-1.032,0.987
	c-2.735-2.735-5.429-5.429-8.151-8.151c0.32-0.34,0.68-0.723,0.931-0.992c-2.353-2.354-4.664-4.666-6.902-6.904
	c-3.365,3.359-6.801,6.789-10.144,10.125c2.269,2.266,4.582,4.577,7.039,7.033c0.588-0.668,1.244-1.414,1.892-2.15
	C31.573,25.181,31.979,25.584,32.354,25.957z"/>
</svg>
