<?xml version="1.0" encoding="utf-8"?>
<!-- Generator: Adobe Illustrator 16.0.4, SVG Export Plug-In . SVG Version: 6.00 Build 0)  -->
<!DOCTYPE svg PUBLIC "-//W3C//DTD SVG 1.1//EN" "http://www.w3.org/Graphics/SVG/1.1/DTD/svg11.dtd">
<svg version="1.1" id="Layer_1" xmlns="http://www.w3.org/2000/svg" xmlns:xlink="http://www.w3.org/1999/xlink" x="0px" y="0px"
	 width="64px" height="64px" viewBox="0 0 64 64" enable-background="new 0 0 64 64" xml:space="preserve">
<path fill-rule="evenodd" clip-rule="evenodd" d="M58.719,50.383c-0.349,1.693-1.5,2.804-2.719,3.912
	c-2.258,2.051-4.594,3.938-7.559,4.896c-4.146,1.34-8.26,1.23-12.375-0.134c-6.248-2.071-11.223-6.044-15.755-10.632
	c-4.19-4.243-7.938-8.857-10.841-14.094c-2.659-4.798-4.52-9.848-4.141-15.455c0.328-4.892,2.217-9.072,5.975-12.318
	c1.059-0.916,2.1-1.862,3.227-2.69c1.84-1.354,3.533-1.401,5.129,0.214c3.027,3.07,5.428,6.602,6.6,10.824
	c0.502,1.807,0.035,3.483-1.285,4.812c-1.064,1.068-2.207,2.077-3.41,2.988c-2.502,1.897-3.086,3.68-1.961,6.62
	c1.281,3.35,3.514,6.08,5.842,8.729c2.103,2.393,4.295,4.704,7.111,6.296c2.985,1.688,4.758,1.411,7.184-1.02
	c0.854-0.856,1.773-1.652,2.703-2.427c2.04-1.699,4.293-1.838,6.559-0.597c3.219,1.765,5.945,4.173,8.305,6.968
	c0.631,0.748,0.949,1.762,1.412,2.652C58.719,50.08,58.719,50.232,58.719,50.383z"/>
</svg>
